<!-- Generator: Adobe Illustrator 22.0.1, SVG Export Plug-In  -->
<svg version="1.1"
	 xmlns="http://www.w3.org/2000/svg" xmlns:xlink="http://www.w3.org/1999/xlink" xmlns:a="http://ns.adobe.com/AdobeSVGViewerExtensions/3.0/"
	 x="0px" y="0px" width="125.43px" height="78.393px" viewBox="0 0 125.43 78.393"
	 style="enable-background:new 0 0 125.43 78.393;" xml:space="preserve">
<style type="text/css">
	.st0{fill:#FFFFFF;}
	.st1{fill:#0066B2;}
	.st2{fill:#F9A533;}
</style>
<defs>
</defs>
<g>
	<path class="st0" d="M125.43,74.213c0,2.309-1.871,4.18-4.18,4.18H4.181C1.872,78.393,0,76.522,0,74.213V4.182
		C0,1.872,1.872,0,4.181,0h117.068c2.309,0,4.18,1.872,4.18,4.182V74.213z"/>
	<g>
		<g>
			<polygon class="st1" points="57.721,50.972 51.595,50.972 55.424,27.438 61.552,27.438 			"/>
			<path class="st1" d="M46.439,27.438l-5.841,16.187l-0.692-3.485v0.001l-2.062-10.584c0,0-0.248-2.119-2.906-2.119h-9.657
				l-0.113,0.399c0,0,2.953,0.613,6.41,2.69l5.323,20.446h6.384l9.749-23.535H46.439z"/>
			<path class="st1" d="M94.635,50.972h5.626l-4.905-23.535H90.43c-2.275,0-2.83,1.753-2.83,1.753l-9.138,21.781h6.386l1.278-3.495
				h7.789L94.635,50.972z M87.893,42.648l3.219-8.809l1.812,8.809H87.893z"/>
			<path class="st1" d="M78.942,33.097l0.874-5.054c0,0-2.699-1.025-5.51-1.025c-3.041,0-10.262,1.329-10.262,7.791
				c0,6.081,8.476,6.156,8.476,9.348c0,3.193-7.602,2.623-10.112,0.608l-0.911,5.283c0,0,2.735,1.33,6.917,1.33
				c4.18,0,10.49-2.166,10.49-8.057c0-6.119-8.552-6.69-8.552-9.35C70.353,31.31,76.32,31.652,78.942,33.097z"/>
		</g>
		<path class="st2" d="M39.906,40.14l-2.062-10.584c0,0-0.248-2.119-2.906-2.119h-9.657l-0.113,0.399c0,0,4.643,0.962,9.094,4.565
			C38.521,35.847,39.906,40.14,39.906,40.14z"/>
	</g>
</g>
</svg>