<!-- Generator: Adobe Illustrator 22.0.1, SVG Export Plug-In  -->
<svg version="1.1"
	 xmlns="http://www.w3.org/2000/svg" xmlns:xlink="http://www.w3.org/1999/xlink" xmlns:a="http://ns.adobe.com/AdobeSVGViewerExtensions/3.0/"
	 x="0px" y="0px" width="125.432px" height="78.393px" viewBox="0 0 125.432 78.393"
	 style="enable-background:new 0 0 125.432 78.393;" xml:space="preserve">
<style type="text/css">
	.st0{fill:#FFFFFF;}
	.st1{fill:#0078A9;}
</style>
<defs>
</defs>
<g>
	<path class="st0" d="M125.432,74.213c0,2.309-1.873,4.18-4.181,4.18H4.182C1.873,78.393,0,76.521,0,74.213V4.18
		C0,1.871,1.873,0,4.182,0H121.25c2.308,0,4.181,1.871,4.181,4.18V74.213z"/>
	<g>
		<path class="st0" d="M38.917,37.371v-1.254l-0.601,1.254h-5.193l-0.651-1.346v1.346h-9.707l-1.148-2.715h-1.943l-1.213,2.715
			h-5.037v-8.195l3.692-8.348h7.064l0.992,2.365v-2.348h8.641l1.899,3.982l1.857-4h27.275c0,0,1.43-0.02,2.369,0.643l-0.003-0.643
			h6.87v0.904c0,0,1.235-0.904,3.062-0.904c1.827,0,12.124,0,12.124,0l1.065,2.4v-2.4h7.77l1.41,2.4v-2.4h7.428v16.559h-7.631
			L97.516,34.5v2.871h-9.484l-1.335-2.957h-1.858l-1.254,2.957h-5.738c0,0-2.14-0.027-3.746-1.176c0,0.602,0,1.176,0,1.176H62.674
			c0,0,0-3.301,0-3.863c0-0.561-0.431-0.521-0.431-0.521h-0.416v4.385H38.917z"/>
		<path class="st0" d="M33.216,40.957h15.017l2.165,2.453l2.217-2.453H64.16c0,0,1.084,0.027,2.115,0.576v-0.576
			c0,0,8.976,0,10.28,0c1.305,0,2.402,0.652,2.402,0.652v-0.652h13.215v0.602c0,0,0.939-0.602,2.205-0.602c1.264,0,8.61,0,8.61,0
			v0.602c0,0,1.083-0.602,2.23-0.602c1.148,0,6.758,0,6.758,0v15.604c0,0-0.887,1.006-2.726,1.006h-8.912V57.07
			c0,0-0.847,0.496-2.139,0.496c-1.291,0-23.673,0-23.673,0s0-3.633,0-4.033c0-0.396-0.174-0.469-0.527-0.469h-0.327v4.502h-7.396
			v-4.475c0,0-0.822,0.441-2.191,0.441c-1.371,0-2.662,0-2.662,0v4.033h-9.119l-2.076-2.531l-2.217,2.531H33.216V40.957z"/>
		<polygon class="st1" points="80.542,43.447 89.965,43.447 89.965,45.975 83.427,45.975 83.427,48.178 89.782,48.178 
			89.782,50.404 83.427,50.404 83.427,52.723 89.965,52.723 89.965,55.188 80.542,55.188 		"/>
		<path class="st1" d="M108.169,48.021c3.543,0.182,3.838,1.951,3.838,3.838c0,2.199-1.809,3.381-3.694,3.381h-6.055v-2.518h4.718
			c0.799,0,1.991,0,1.991-1.127c0-0.535-0.208-0.877-1.062-0.967c-0.378-0.055-1.779-0.133-1.991-0.137
			c-3.2-0.084-3.945-1.676-3.945-3.613c0-2.201,1.547-3.404,3.435-3.404h6.055v2.516h-4.432c-1.007,0.01-2.094-0.119-2.094,1.02
			c0,0.721,0.535,0.865,1.217,0.932C106.387,47.941,107.958,48.023,108.169,48.021z"/>
		<path class="st1" d="M97.317,48.021c3.543,0.182,3.839,1.951,3.839,3.838c0,2.199-1.808,3.381-3.695,3.381h-6.054v-2.518h4.718
			c0.799,0,1.993,0,1.993-1.127c0-0.535-0.211-0.877-1.063-0.967c-0.38-0.055-1.782-0.133-1.992-0.137
			c-3.2-0.084-3.943-1.676-3.943-3.613c0-2.201,1.545-3.404,3.433-3.404h6.054v2.516h-4.429c-1.01,0.01-2.097-0.119-2.097,1.02
			c0,0.721,0.537,0.865,1.219,0.932C95.535,47.941,97.109,48.023,97.317,48.021z"/>
		<path class="st1" d="M63.141,43.473H53.025l-3.302,3.643l-3.196-3.668H35.166v11.74H46.16l3.459-3.879L53,55.215h5.53v-3.986
			h3.878c1.495,0,4.22-0.051,4.22-4.166C66.627,44.127,64.557,43.473,63.141,43.473z M44.652,52.723h-6.643v-2.318h6.355v-2.227
			h-6.355v-2.203l7.01,0.016l2.806,3.195L44.652,52.723z M55.672,54.086l-4.141-4.9l4.141-4.586V54.086z M62.171,48.811h-3.59
			v-2.818h3.601c1.206,0,1.587,0.773,1.587,1.35C63.769,48.129,63.35,48.811,62.171,48.811z"/>
		<path class="st1" d="M77.064,49.867c1.573-0.785,1.993-1.834,1.993-3.25c0-2.514-2.043-3.143-3.46-3.143h-7.493v11.74h2.882
			v-4.143h3.774c0.995,0,1.388,0.996,1.414,1.992l0.079,2.15h2.805l-0.105-2.412C78.952,50.914,78.429,50.023,77.064,49.867z
			 M74.575,48.652h-3.589v-2.66h3.602c1.206,0,1.585,0.773,1.585,1.35C76.173,48.127,75.755,48.652,74.575,48.652z"/>
		<rect x="69.258" y="23.18" class="st1" width="2.883" height="11.754"/>
		<polygon class="st1" points="45.662,23.193 55.081,23.193 55.081,25.721 48.546,25.721 48.546,27.924 54.899,27.924 54.899,30.15 
			48.546,30.15 48.546,32.469 55.081,32.469 55.081,34.934 45.662,34.934 		"/>
		<path class="st1" d="M65.756,29.586c1.574-0.783,1.993-1.834,1.993-3.25c0-2.516-2.044-3.142-3.461-3.142h-7.493v11.74h2.883
			v-4.141h3.772c0.998,0,1.39,0.994,1.416,1.99l0.081,2.15h2.804l-0.105-2.412C67.644,30.635,67.119,29.744,65.756,29.586z
			 M63.267,28.371h-3.59v-2.66h3.602c1.206,0,1.585,0.774,1.585,1.35C64.864,27.848,64.446,28.371,63.267,28.371z"/>
		<path class="st1" d="M39.014,23.193l-3.537,7.875l-3.525-7.875h-4.52V34.5l-5.032-11.307h-3.813l-5.137,11.74h3.041l1.125-2.621
			h5.754l1.141,2.621h5.804v-8.715l3.851,8.715h2.622l3.944-8.57v8.57h2.883v-11.74H39.014z M18.704,29.779l1.719-4.104l1.791,4.104
			H18.704z"/>
		<path class="st1" d="M101.886,23.188v8.129l-4.86-8.129h-4.26v11.025l-4.912-11.019h-3.814l-3.971,9.094c0,0-1.677,0-1.846-0.041
			c-0.697-0.143-1.781-0.633-1.795-2.703v-0.852c0-2.752,1.495-2.953,3.41-2.953h1.78v-2.551h-3.764c-1.311,0-4.161,1-4.257,5.822
			c-0.066,3.25,1.349,5.93,4.545,5.93h3.801l1.127-2.621h5.753l1.139,2.621h5.687v-8.598l5.188,8.598h3.931V23.188H101.886z
			 M84.181,29.785l1.716-4.104l1.808,4.104H84.181z"/>
	</g>
</g>
</svg>