<!-- Generator: Adobe Illustrator 22.0.1, SVG Export Plug-In  -->
<svg version="1.1"
	 xmlns="http://www.w3.org/2000/svg" xmlns:xlink="http://www.w3.org/1999/xlink" xmlns:a="http://ns.adobe.com/AdobeSVGViewerExtensions/3.0/"
	 x="0px" y="0px" width="125.43px" height="78.393px" viewBox="0 0 125.43 78.393"
	 style="overflow:inherit;enable-background:new 0 0 125.43 78.393;" xml:space="preserve">
<style type="text/css">
	.st0{fill:#FFFFFF;}
	.st1{fill:#EC1C2E;}
	.st2{fill:#0084C4;}
	.st3{fill:none;stroke:#FFFFFF;stroke-width:0.215;}
</style>
<defs>
</defs>
<g>
	<path class="st0" d="M125.43,74.213c0,2.309-1.871,4.18-4.181,4.18H4.181c-2.31,0-4.181-1.871-4.181-4.18V4.182
		C0,1.872,1.871,0,4.181,0h117.067c2.31,0,4.181,1.872,4.181,4.182V74.213z"/>
	<g>
		<polygon class="st1" points="77.644,61.709 78.806,61.679 79.952,61.591 81.077,61.45 82.186,61.25 83.281,61 84.354,60.695 
			85.397,60.341 86.425,59.934 87.424,59.482 88.394,58.986 89.34,58.446 90.251,57.855 91.138,57.226 91.989,56.561 92.811,55.851 
			93.595,55.103 94.333,54.318 95.044,53.497 95.717,52.646 96.347,51.766 96.931,50.849 97.472,49.902 97.973,48.932 
			98.425,47.934 98.825,46.905 99.18,45.863 99.483,44.79 99.736,43.703 99.935,42.585 100.075,41.461 100.164,40.314 
			100.195,39.152 100.164,37.999 100.075,36.859 99.935,35.742 99.736,34.633 99.483,33.553 99.18,32.488 98.825,31.444 
			98.425,30.423 97.973,29.433 97.472,28.462 96.931,27.522 96.347,26.604 95.717,25.726 95.044,24.874 94.333,24.06 93.595,23.277 
			92.811,22.536 91.989,21.826 91.138,21.16 90.251,20.531 89.34,19.948 88.394,19.408 87.424,18.903 86.425,18.453 85.397,18.052 
			84.354,17.698 83.281,17.395 82.186,17.143 81.077,16.943 79.952,16.803 78.806,16.714 77.644,16.685 76.482,16.714 
			75.336,16.803 74.211,16.943 73.101,17.143 72.006,17.395 70.941,17.698 69.891,18.052 68.87,18.453 67.872,18.903 66.901,19.408 
			65.961,19.948 65.045,20.531 64.164,21.16 63.314,21.826 62.501,22.536 61.723,23.277 60.976,24.06 60.266,24.874 59.6,25.726 
			58.973,26.604 58.388,27.522 57.847,28.462 57.351,29.433 56.907,30.423 56.5,31.444 56.144,32.488 55.849,33.553 55.598,34.633 
			55.397,35.742 55.257,36.859 55.167,37.999 55.14,39.152 55.167,40.314 55.257,41.461 55.397,42.585 55.598,43.703 55.849,44.79 
			56.144,45.863 56.5,46.905 56.907,47.934 57.351,48.932 57.847,49.902 58.388,50.849 58.973,51.766 59.6,52.646 60.266,53.497 
			60.976,54.318 61.723,55.103 62.501,55.851 63.314,56.561 64.164,57.226 65.045,57.855 65.961,58.446 66.901,58.986 
			67.872,59.482 68.87,59.934 69.891,60.341 70.941,60.695 72.006,61 73.101,61.25 74.211,61.45 75.336,61.591 76.482,61.679 		"/>
		<polygon class="st2" points="47.785,61.709 48.946,61.679 50.094,61.591 51.218,61.45 52.328,61.25 53.422,61 54.489,60.695 
			55.539,60.341 56.56,59.934 57.559,59.482 58.527,58.986 59.466,58.446 60.384,57.855 61.264,57.226 62.115,56.561 62.93,55.851 
			63.713,55.103 64.454,54.318 65.164,53.497 65.83,52.646 66.458,51.766 67.042,50.849 67.583,49.902 68.078,48.932 68.529,47.934 
			68.93,46.905 69.284,45.863 69.581,44.79 69.832,43.703 70.031,42.585 70.172,41.461 70.26,40.314 70.29,39.152 70.26,37.999 
			70.172,36.859 70.031,35.742 69.832,34.633 69.581,33.553 69.284,32.488 68.93,31.444 68.529,30.423 68.078,29.433 67.583,28.462 
			67.042,27.522 66.458,26.604 65.83,25.726 65.164,24.874 64.454,24.06 63.713,23.277 62.93,22.536 62.115,21.826 61.264,21.16 
			60.384,20.531 59.466,19.948 58.527,19.408 57.559,18.903 56.56,18.453 55.539,18.052 54.489,17.698 53.422,17.395 52.328,17.143 
			51.218,16.943 50.094,16.803 48.946,16.714 47.785,16.685 46.623,16.714 45.477,16.803 44.352,16.943 43.243,17.143 
			42.148,17.395 41.075,17.698 40.032,18.052 39.004,18.453 38.006,18.903 37.036,19.408 36.089,19.948 35.179,20.531 34.291,21.16 
			33.44,21.826 32.619,22.536 31.843,23.277 31.096,24.06 30.385,24.874 29.712,25.726 29.082,26.604 28.498,27.522 27.958,28.462 
			27.455,29.433 27.004,30.423 26.605,31.444 26.25,32.488 25.947,33.553 25.694,34.633 25.495,35.742 25.354,36.859 25.265,37.999 
			25.236,39.152 25.265,40.314 25.354,41.461 25.495,42.585 25.694,43.703 25.947,44.79 26.25,45.863 26.605,46.905 27.004,47.934 
			27.455,48.932 27.958,49.902 28.498,50.849 29.082,51.766 29.712,52.646 30.385,53.497 31.096,54.318 31.843,55.103 
			32.619,55.851 33.44,56.561 34.291,57.226 35.179,57.855 36.089,58.446 37.036,58.986 38.006,59.482 39.004,59.934 40.032,60.341 
			41.075,60.695 42.148,61 43.243,61.25 44.352,61.45 45.477,61.591 46.623,61.679 		"/>
		<polygon class="st1" points="59.941,25.259 71.355,25.259 71.355,24.001 61.043,24.001 		"/>
		<polygon class="st1" points="58.15,27.922 71.355,27.922 71.355,26.672 58.95,26.672 		"/>
		<polygon class="st1" points="56.81,30.63 71.355,30.63 71.355,29.372 57.425,29.372 		"/>
		<polygon class="st1" points="55.939,33.293 71.355,33.293 71.355,32.042 56.323,32.042 		"/>
		<polygon class="st1" points="55.369,35.964 71.355,35.964 71.355,34.706 55.598,34.706 		"/>
		<polygon class="st1" points="55.25,41.135 71.355,41.135 71.355,39.876 55.14,39.876 		"/>
		<polygon class="st1" points="55.635,43.954 71.355,43.954 71.355,42.696 55.405,42.696 		"/>
		<polygon class="st1" points="56.398,46.241 71.355,46.241 71.355,44.983 56.012,44.983 		"/>
		<polygon class="st1" points="57.536,49.021 71.355,49.021 71.355,47.764 56.93,47.764 		"/>
		<polygon class="st1" points="59.143,51.84 71.355,51.84 71.355,50.583 58.298,50.583 		"/>
		<polygon class="st1" points="61.153,54.547 71.245,54.547 71.245,53.29 60.051,53.29 		"/>
		<g>
			<g>
				<polygon class="st1" points="96.487,52.98 96.554,52.78 96.664,52.595 96.806,52.432 96.969,52.298 97.152,52.195 
					97.353,52.128 97.567,52.106 97.789,52.128 97.996,52.195 98.181,52.298 98.344,52.432 98.476,52.595 98.58,52.78 98.647,52.98 
					98.418,52.98 98.372,52.839 98.293,52.683 98.188,52.55 98.062,52.446 97.914,52.366 97.744,52.313 97.567,52.298 97.39,52.313 
					97.218,52.366 97.071,52.446 96.939,52.55 96.834,52.683 96.753,52.839 96.709,52.98 				"/>
				<polygon class="st1" points="97.183,52.98 97.183,52.713 97.604,52.713 97.7,52.72 97.781,52.728 97.855,52.751 97.914,52.78 
					97.959,52.817 97.996,52.861 98.019,52.913 98.026,52.98 97.833,52.98 97.833,52.98 97.826,52.943 97.811,52.913 97.789,52.883 
					97.76,52.861 97.723,52.846 97.687,52.839 97.649,52.832 97.604,52.832 97.374,52.832 97.374,52.98 				"/>
				<polygon class="st1" points="96.472,53.172 96.487,52.987 96.487,52.98 96.709,52.98 96.702,53.017 96.686,53.172 				"/>
				<polygon class="st1" points="97.183,53.172 97.183,52.98 97.374,52.98 97.374,53.135 97.567,53.135 97.633,53.135 
					97.693,53.135 97.736,53.127 97.774,53.112 97.796,53.098 97.819,53.069 97.833,53.032 97.833,52.98 98.026,52.98 98.026,52.98 
					98.019,53.046 98.003,53.106 97.982,53.149 97.959,53.172 				"/>
				<polygon class="st1" points="98.439,53.172 98.425,53.017 98.418,52.98 98.647,52.98 98.647,52.987 98.669,53.172 				"/>
				<polygon class="st1" points="96.472,53.172 96.465,53.208 96.487,53.43 96.554,53.638 96.664,53.815 96.806,53.978 
					96.969,54.104 97.152,54.201 97.353,54.259 97.567,54.282 97.789,54.259 97.996,54.201 98.181,54.104 98.344,53.978 
					98.476,53.815 98.58,53.638 98.647,53.43 98.669,53.208 98.669,53.172 98.439,53.172 98.439,53.208 98.425,53.401 
					98.372,53.579 98.293,53.734 98.188,53.868 98.062,53.978 97.914,54.06 97.744,54.111 97.567,54.126 97.39,54.111 97.218,54.06 
					97.071,53.978 96.939,53.868 96.834,53.734 96.753,53.579 96.702,53.401 96.686,53.208 96.686,53.172 				"/>
				<polygon class="st1" points="97.183,53.172 97.183,53.63 97.374,53.63 97.374,53.254 97.567,53.254 97.796,53.63 97.989,53.63 
					97.715,53.254 97.781,53.246 97.848,53.238 97.9,53.216 97.945,53.187 97.959,53.172 				"/>
			</g>
		</g>
		<polygon class="st0" points="72.768,37.259 72.621,37.251 72.473,37.237 72.339,37.214 72.207,37.201 72.073,37.177 71.94,37.155 
			71.8,37.133 71.651,37.111 71.497,37.095 71.333,37.081 71.148,37.066 70.948,37.058 70.727,37.058 70.482,37.066 70.208,37.081 
			69.914,37.103 69.698,37.133 69.498,37.177 69.314,37.237 69.151,37.304 69.003,37.384 68.87,37.474 68.758,37.577 68.671,37.68 
			68.604,37.799 68.56,37.924 68.537,38.05 68.537,38.183 68.567,38.324 68.619,38.464 68.699,38.605 68.803,38.746 69.018,38.938 
			69.269,39.094 69.565,39.227 69.884,39.337 70.216,39.448 70.564,39.56 70.919,39.685 71.259,39.833 71.578,40.011 71.881,40.226 
			72.147,40.5 72.369,40.825 72.539,41.224 72.65,41.698 72.688,42.26 72.65,42.926 72.569,43.421 72.435,43.865 72.266,44.265 
			72.05,44.619 71.8,44.93 71.525,45.197 71.222,45.426 70.897,45.626 70.556,45.789 70.202,45.921 69.839,46.033 69.476,46.114 
			69.114,46.173 68.758,46.21 68.42,46.232 68.086,46.241 67.626,46.241 67.213,46.232 66.835,46.225 66.488,46.218 66.17,46.204 
			65.889,46.188 65.623,46.167 65.385,46.136 65.164,46.106 64.956,46.069 64.763,46.033 64.572,45.981 64.395,45.929 
			64.216,45.877 64.039,45.811 63.854,45.744 64.313,43.421 64.417,43.444 64.542,43.48 64.697,43.517 64.868,43.561 65.067,43.599 
			65.289,43.651 65.526,43.694 65.777,43.739 66.044,43.776 66.325,43.813 66.614,43.843 66.917,43.872 67.221,43.887 
			67.531,43.894 67.843,43.894 68.16,43.879 68.455,43.828 68.699,43.747 68.884,43.628 69.032,43.496 69.144,43.339 69.225,43.178 
			69.292,43.015 69.335,42.852 69.358,42.682 69.351,42.533 69.314,42.393 69.254,42.275 69.173,42.156 69.07,42.053 68.943,41.956 
			68.803,41.867 68.647,41.787 68.478,41.705 68.293,41.624 68.1,41.55 67.908,41.476 67.702,41.394 67.494,41.312 67.28,41.224 
			67.072,41.135 66.866,41.039 66.658,40.928 66.458,40.81 66.266,40.684 66.087,40.543 65.919,40.38 65.764,40.21 65.623,40.018 
			65.497,39.811 65.393,39.581 65.305,39.337 65.245,39.063 65.207,38.768 65.2,38.442 65.223,38.094 65.245,37.88 65.274,37.672 
			65.305,37.474 65.348,37.281 65.393,37.095 65.444,36.911 65.511,36.741 65.578,36.571 65.659,36.415 65.74,36.26 65.836,36.119 
			65.941,35.979 66.052,35.846 66.17,35.719 66.295,35.601 66.435,35.49 66.583,35.387 66.739,35.291 66.909,35.202 67.088,35.113 
			67.271,35.039 67.471,34.965 67.68,34.906 67.9,34.846 68.138,34.795 68.382,34.751 68.633,34.714 68.9,34.684 69.18,34.662 
			69.476,34.647 69.781,34.633 70.098,34.633 70.489,34.633 70.845,34.639 71.164,34.647 71.459,34.662 71.718,34.677 
			71.956,34.691 72.169,34.714 72.354,34.729 72.525,34.751 72.673,34.773 72.813,34.787 72.931,34.81 73.036,34.825 73.132,34.839 
			73.22,34.854 73.301,34.862 		"/>
		<g>
			<g>
				<polyline class="st3" points="72.768,37.259 72.768,37.259 72.621,37.251 72.473,37.237 72.339,37.214 72.207,37.201 
					72.073,37.177 71.94,37.155 71.8,37.133 71.651,37.111 71.497,37.095 71.333,37.081 71.148,37.066 70.948,37.058 70.727,37.058 
					70.482,37.066 70.208,37.081 69.914,37.103 69.914,37.103 69.698,37.133 69.498,37.177 69.314,37.237 69.151,37.304 
					69.003,37.384 68.87,37.474 68.758,37.577 68.671,37.68 68.604,37.799 68.56,37.924 68.537,38.05 68.537,38.183 68.567,38.324 
					68.619,38.464 68.699,38.605 68.803,38.746 68.803,38.746 69.018,38.938 69.269,39.094 69.565,39.227 69.884,39.337 
					70.216,39.448 70.564,39.56 70.919,39.685 71.259,39.833 71.578,40.011 71.881,40.226 72.147,40.5 72.369,40.825 72.539,41.224 
					72.65,41.698 72.688,42.26 72.65,42.926 72.65,42.926 72.569,43.421 72.435,43.865 72.266,44.265 72.05,44.619 71.8,44.93 
					71.525,45.197 71.222,45.426 70.897,45.626 70.556,45.789 70.202,45.921 69.839,46.033 69.476,46.114 69.114,46.173 
					68.758,46.21 68.42,46.232 68.086,46.241 68.086,46.241 67.626,46.241 67.213,46.232 66.835,46.225 66.488,46.218 66.17,46.204 
					65.889,46.188 65.623,46.167 65.385,46.136 65.164,46.106 64.956,46.069 64.763,46.033 64.572,45.981 64.395,45.929 
					64.216,45.877 64.039,45.811 63.854,45.744 64.313,43.421 64.313,43.421 64.417,43.444 64.542,43.48 64.697,43.517 
					64.868,43.561 65.067,43.599 65.289,43.651 65.526,43.694 65.777,43.739 66.044,43.776 66.325,43.813 66.614,43.843 
					66.917,43.872 67.221,43.887 67.531,43.894 67.843,43.894 68.16,43.879 68.16,43.879 68.455,43.828 68.699,43.747 
					68.884,43.628 69.032,43.496 69.144,43.339 69.225,43.178 69.292,43.015 69.335,42.852 69.335,42.852 69.358,42.682 
					69.351,42.533 69.314,42.393 69.254,42.275 69.173,42.156 69.07,42.053 68.943,41.956 68.803,41.867 68.647,41.787 
					68.478,41.705 68.293,41.624 68.1,41.55 67.908,41.476 67.702,41.394 67.494,41.312 67.28,41.224 67.072,41.135 66.866,41.039 
					66.658,40.928 66.458,40.81 66.266,40.684 66.087,40.543 65.919,40.38 65.764,40.21 65.623,40.018 65.497,39.811 65.393,39.581 
					65.305,39.337 65.245,39.063 65.207,38.768 65.2,38.442 65.223,38.094 65.223,38.094 65.245,37.88 65.274,37.672 65.305,37.474 
					65.348,37.281 65.393,37.095 65.444,36.911 65.511,36.741 65.578,36.571 65.659,36.415 65.74,36.26 65.836,36.119 
					65.941,35.979 66.052,35.846 66.17,35.719 66.295,35.601 66.435,35.49 66.583,35.387 66.739,35.291 66.909,35.202 
					67.088,35.113 67.271,35.039 67.471,34.965 67.68,34.906 67.9,34.846 68.138,34.795 68.382,34.751 68.633,34.714 68.9,34.684 
					69.18,34.662 69.476,34.647 69.781,34.633 70.098,34.633 70.098,34.633 70.489,34.633 70.845,34.639 71.164,34.647 
					71.459,34.662 71.718,34.677 71.956,34.691 72.169,34.714 72.354,34.729 72.525,34.751 72.673,34.773 72.813,34.787 
					72.931,34.81 73.036,34.825 73.132,34.839 73.22,34.854 73.301,34.862 72.768,37.259 				"/>
			</g>
		</g>
		<polygon class="st0" points="75.202,32.309 78.176,32.309 77.718,34.899 79.545,34.899 79.131,37.259 77.26,37.221 76.276,43.118 
			76.26,43.243 76.26,43.354 76.276,43.451 76.306,43.54 76.35,43.614 76.4,43.688 76.468,43.747 76.542,43.79 76.631,43.836 
			76.72,43.872 76.822,43.902 76.927,43.917 77.045,43.939 77.164,43.946 77.289,43.954 77.415,43.954 77.651,43.954 77.858,43.939 
			78.05,43.91 78.214,43.872 78.339,43.836 78.437,43.798 78.495,43.768 78.517,43.762 78.214,45.781 78.141,45.826 78.059,45.863 
			77.978,45.9 77.895,45.937 77.814,45.966 77.724,45.996 77.637,46.024 77.534,46.055 77.428,46.084 77.318,46.106 77.193,46.128 
			77.06,46.15 76.919,46.173 76.771,46.195 76.601,46.218 76.423,46.241 75.624,46.241 75.202,46.21 74.825,46.167 74.493,46.106 
			74.204,46.024 73.959,45.937 73.752,45.826 73.583,45.701 73.442,45.559 73.33,45.403 73.249,45.233 73.198,45.048 73.168,44.842 
			73.161,44.627 73.168,44.391 73.19,44.146 73.228,43.879 		"/>
		<g>
			<g>
				<polyline class="st3" points="75.202,32.309 78.176,32.309 77.718,34.899 79.545,34.899 79.131,37.259 77.26,37.221 
					76.276,43.118 76.276,43.118 76.26,43.243 76.26,43.354 76.276,43.451 76.306,43.54 76.35,43.614 76.4,43.688 76.468,43.747 
					76.542,43.79 76.631,43.836 76.72,43.872 76.822,43.902 76.927,43.917 77.045,43.939 77.164,43.946 77.289,43.954 
					77.415,43.954 77.415,43.954 77.651,43.954 77.858,43.939 78.05,43.91 78.214,43.872 78.339,43.836 78.437,43.798 
					78.495,43.768 78.517,43.762 78.214,45.781 78.214,45.781 78.141,45.826 78.059,45.863 77.978,45.9 77.895,45.937 
					77.814,45.966 77.724,45.996 77.637,46.024 77.534,46.055 77.428,46.084 77.318,46.106 77.193,46.128 77.06,46.15 
					76.919,46.173 76.771,46.195 76.601,46.218 76.423,46.241 75.624,46.241 75.624,46.241 75.202,46.21 74.825,46.167 
					74.493,46.106 74.204,46.024 73.959,45.937 73.752,45.826 73.583,45.701 73.442,45.559 73.33,45.403 73.249,45.233 
					73.198,45.048 73.168,44.842 73.161,44.627 73.168,44.391 73.19,44.146 73.228,43.879 75.202,32.309 				"/>
			</g>
		</g>
		<polygon class="st0" points="57.122,41.29 57.083,41.476 57.078,41.661 57.092,41.86 57.137,42.053 57.195,42.253 57.285,42.452 
			57.388,42.644 57.514,42.829 57.654,43.007 57.817,43.178 57.987,43.326 58.172,43.466 58.371,43.584 58.579,43.681 
			58.802,43.754 59.022,43.806 59.29,43.843 59.556,43.879 59.829,43.91 60.102,43.924 60.384,43.931 60.658,43.931 60.948,43.917 
			61.228,43.894 61.516,43.851 61.812,43.798 62.108,43.724 62.404,43.628 62.7,43.517 63.011,43.385 63.314,43.222 63.625,43.044 
			63.167,45.67 62.996,45.759 62.825,45.84 62.67,45.908 62.508,45.966 62.345,46.024 62.182,46.069 62.012,46.106 61.827,46.144 
			61.636,46.167 61.427,46.188 61.198,46.21 60.955,46.218 60.688,46.232 60.391,46.232 60.066,46.241 59.711,46.241 59.453,46.241 
			59.186,46.225 58.927,46.21 58.661,46.181 58.388,46.144 58.121,46.099 57.854,46.041 57.588,45.981 57.329,45.9 57.07,45.818 
			56.819,45.722 56.566,45.612 56.323,45.485 56.085,45.352 55.864,45.204 55.642,45.042 55.435,44.864 55.235,44.672 
			55.042,44.464 54.872,44.242 54.71,43.998 54.562,43.747 54.429,43.474 54.311,43.184 54.207,42.875 54.126,42.548 54.059,42.208 
			54.015,41.838 53.986,41.453 53.986,41.054 54,40.625 54.037,40.18 54.059,40.026 54.081,39.848 54.111,39.67 54.148,39.479 
			54.184,39.278 54.236,39.071 54.296,38.857 54.354,38.635 54.429,38.405 54.51,38.183 54.607,37.954 54.71,37.725 54.828,37.495 
			54.954,37.266 55.095,37.038 55.242,36.815 55.413,36.601 55.59,36.386 55.783,36.178 55.997,35.986 56.218,35.793 56.464,35.617 
			56.723,35.453 57.004,35.298 57.299,35.165 57.617,35.039 57.949,34.928 58.304,34.839 58.683,34.766 59.082,34.714 
			59.497,34.684 59.941,34.669 60.148,34.669 60.355,34.684 60.569,34.699 60.784,34.721 60.997,34.751 61.22,34.795 61.435,34.846 
			61.649,34.906 61.863,34.972 62.079,35.054 62.286,35.142 62.485,35.247 62.679,35.365 62.871,35.49 63.047,35.639 63.226,35.793 
			63.388,35.964 63.543,36.149 63.684,36.356 63.81,36.571 63.929,36.807 64.032,37.058 64.12,37.333 64.186,37.622 64.246,37.933 
			64.282,38.256 64.299,38.605 64.299,38.975 64.275,39.367 64.239,39.781 64.172,40.218 64.083,40.677 63.966,41.328 
			56.279,41.328 56.737,39.271 61.347,39.271 61.369,38.99 61.369,38.73 61.353,38.487 61.31,38.264 61.25,38.065 61.176,37.88 
			61.08,37.717 60.968,37.569 60.843,37.436 60.702,37.326 60.554,37.237 60.398,37.162 60.229,37.103 60.051,37.058 59.866,37.038 
			59.674,37.029 59.466,37.029 59.274,37.058 59.082,37.095 58.905,37.155 58.735,37.237 58.572,37.333 58.417,37.443 
			58.276,37.569 58.143,37.717 58.025,37.873 57.913,38.043 57.81,38.228 57.722,38.419 57.647,38.627 57.588,38.85 57.536,39.079 
					"/>
		<g>
			<g>
				<polyline class="st3" points="57.122,41.29 57.122,41.29 57.083,41.476 57.078,41.661 57.092,41.86 57.137,42.053 
					57.195,42.253 57.285,42.452 57.388,42.644 57.514,42.829 57.654,43.007 57.817,43.178 57.987,43.326 58.172,43.466 
					58.371,43.584 58.579,43.681 58.802,43.754 59.022,43.806 59.022,43.806 59.29,43.843 59.556,43.879 59.829,43.91 
					60.102,43.924 60.384,43.931 60.658,43.931 60.948,43.917 61.228,43.894 61.516,43.851 61.812,43.798 62.108,43.724 
					62.404,43.628 62.7,43.517 63.011,43.385 63.314,43.222 63.625,43.044 63.167,45.67 63.167,45.67 62.996,45.759 62.825,45.84 
					62.67,45.908 62.508,45.966 62.345,46.024 62.182,46.069 62.012,46.106 61.827,46.144 61.636,46.167 61.427,46.188 
					61.198,46.21 60.955,46.218 60.688,46.232 60.391,46.232 60.066,46.241 59.711,46.241 59.711,46.241 59.453,46.241 
					59.186,46.225 58.927,46.21 58.661,46.181 58.388,46.144 58.121,46.099 57.854,46.041 57.588,45.981 57.329,45.9 57.07,45.818 
					56.819,45.722 56.566,45.612 56.323,45.485 56.085,45.352 55.864,45.204 55.642,45.042 55.435,44.864 55.235,44.672 
					55.042,44.464 54.872,44.242 54.71,43.998 54.562,43.747 54.429,43.474 54.311,43.184 54.207,42.875 54.126,42.548 
					54.059,42.208 54.015,41.838 53.986,41.453 53.986,41.054 54,40.625 54.037,40.18 54.037,40.18 54.059,40.026 54.081,39.848 
					54.111,39.67 54.148,39.479 54.184,39.278 54.236,39.071 54.296,38.857 54.354,38.635 54.429,38.405 54.51,38.183 
					54.607,37.954 54.71,37.725 54.828,37.495 54.954,37.266 55.095,37.038 55.242,36.815 55.413,36.601 55.59,36.386 
					55.783,36.178 55.997,35.986 56.218,35.793 56.464,35.617 56.723,35.453 57.004,35.298 57.299,35.165 57.617,35.039 
					57.949,34.928 58.304,34.839 58.683,34.766 59.082,34.714 59.497,34.684 59.941,34.669 59.941,34.669 60.148,34.669 
					60.355,34.684 60.569,34.699 60.784,34.721 60.997,34.751 61.22,34.795 61.435,34.846 61.649,34.906 61.863,34.972 
					62.079,35.054 62.286,35.142 62.485,35.247 62.679,35.365 62.871,35.49 63.047,35.639 63.226,35.793 63.388,35.964 
					63.543,36.149 63.684,36.356 63.81,36.571 63.929,36.807 64.032,37.058 64.12,37.333 64.186,37.622 64.246,37.933 
					64.282,38.256 64.299,38.605 64.299,38.975 64.275,39.367 64.239,39.781 64.172,40.218 64.083,40.677 63.966,41.328 
					56.279,41.328 56.737,39.271 61.347,39.271 61.347,39.271 61.369,38.99 61.369,38.73 61.353,38.487 61.31,38.264 61.25,38.065 
					61.176,37.88 61.08,37.717 60.968,37.569 60.843,37.436 60.702,37.326 60.554,37.237 60.398,37.162 60.229,37.103 
					60.051,37.058 59.866,37.038 59.674,37.029 59.674,37.029 59.466,37.029 59.274,37.058 59.082,37.095 58.905,37.155 
					58.735,37.237 58.572,37.333 58.417,37.443 58.276,37.569 58.143,37.717 58.025,37.873 57.913,38.043 57.81,38.228 
					57.722,38.419 57.647,38.627 57.588,38.85 57.536,39.079 57.122,41.29 				"/>
			</g>
		</g>
		<polygon class="st0" points="53.009,43.879 52.587,46.241 49.917,46.241 49.946,46.018 49.975,45.795 50.005,45.597 
			50.034,45.411 50.064,45.255 50.086,45.123 50.115,45.034 50.146,44.983 50.005,45.145 49.827,45.307 49.628,45.464 
			49.398,45.612 49.155,45.752 48.888,45.885 48.606,46.003 48.317,46.114 48.015,46.21 47.705,46.292 47.393,46.35 47.083,46.395 
			46.772,46.417 46.468,46.425 46.173,46.404 45.884,46.358 45.507,46.27 45.174,46.15 44.872,46.01 44.605,45.854 44.369,45.685 
			44.167,45.493 43.991,45.293 43.842,45.072 43.716,44.85 43.613,44.619 43.532,44.382 43.465,44.139 43.421,43.902 43.39,43.658 
			43.376,43.421 43.368,43.191 43.399,42.778 43.465,42.386 43.562,42.007 43.702,41.653 43.872,41.321 44.063,41.01 44.293,40.721 
			44.538,40.447 44.812,40.203 45.1,39.989 45.411,39.79 45.737,39.618 46.077,39.471 46.425,39.352 46.779,39.264 47.142,39.197 
			47.156,39.197 47.208,39.19 47.29,39.181 47.4,39.167 47.527,39.152 47.674,39.138 47.838,39.115 48.015,39.102 48.192,39.086 
			48.371,39.063 48.555,39.048 48.733,39.034 48.894,39.019 49.05,39.012 49.191,39.005 49.31,39.005 49.435,39.005 49.562,39.005 
			49.688,39.005 49.82,39.012 49.946,39.012 50.064,39.019 50.181,39.019 50.301,39.019 50.404,39.027 50.5,39.027 50.583,39.034 
			50.657,39.034 50.715,39.042 50.759,39.042 50.789,39.042 50.796,39.042 50.819,38.968 50.87,38.791 50.909,38.582 50.909,38.398 
			50.893,38.264 50.87,38.139 50.833,38.02 50.782,37.91 50.723,37.806 50.649,37.71 50.575,37.622 50.486,37.532 50.39,37.458 
			50.293,37.399 50.181,37.34 50.071,37.288 49.954,37.251 49.827,37.221 49.701,37.201 49.575,37.185 49.273,37.177 48.954,37.185 
			48.62,37.192 48.282,37.214 47.94,37.237 47.601,37.266 47.26,37.304 46.927,37.34 46.609,37.391 46.307,37.436 46.033,37.488 
			45.774,37.547 45.544,37.606 45.351,37.665 45.195,37.725 45.086,37.791 45.847,35.276 46.069,35.173 46.307,35.077 
			46.542,34.995 46.793,34.928 47.054,34.876 47.319,34.832 47.601,34.795 47.889,34.766 48.185,34.751 48.488,34.736 
			48.799,34.729 49.125,34.729 49.464,34.729 49.805,34.729 50.161,34.736 50.53,34.744 50.833,34.773 51.152,34.817 51.484,34.899 
			51.817,34.995 52.15,35.12 52.484,35.276 52.794,35.453 53.09,35.661 53.363,35.897 53.608,36.156 53.815,36.445 53.977,36.762 
			54.096,37.111 54.163,37.488 54.17,37.887 54.111,38.324 		"/>
		<g>
			<g>
				<polyline class="st3" points="53.009,43.879 52.587,46.241 49.917,46.241 49.917,46.241 49.946,46.018 49.975,45.795 
					50.005,45.597 50.034,45.411 50.064,45.255 50.086,45.123 50.115,45.034 50.146,44.983 50.146,44.983 50.005,45.145 
					49.827,45.307 49.628,45.464 49.398,45.612 49.155,45.752 48.888,45.885 48.606,46.003 48.317,46.114 48.015,46.21 
					47.705,46.292 47.393,46.35 47.083,46.395 46.772,46.417 46.468,46.425 46.173,46.404 45.884,46.358 45.884,46.358 
					45.507,46.27 45.174,46.15 44.872,46.01 44.605,45.854 44.369,45.685 44.167,45.493 43.991,45.293 43.842,45.072 43.716,44.85 
					43.613,44.619 43.532,44.382 43.465,44.139 43.421,43.902 43.39,43.658 43.376,43.421 43.368,43.191 43.368,43.191 
					43.399,42.778 43.465,42.386 43.562,42.007 43.702,41.653 43.872,41.321 44.063,41.01 44.293,40.721 44.538,40.447 
					44.812,40.203 45.1,39.989 45.411,39.79 45.737,39.618 46.077,39.471 46.425,39.352 46.779,39.264 47.142,39.197 47.142,39.197 
					47.156,39.197 47.208,39.19 47.29,39.181 47.4,39.167 47.527,39.152 47.674,39.138 47.838,39.115 48.015,39.102 48.192,39.086 
					48.371,39.063 48.555,39.048 48.733,39.034 48.894,39.019 49.05,39.012 49.191,39.005 49.31,39.005 49.31,39.005 49.435,39.005 
					49.562,39.005 49.688,39.005 49.82,39.012 49.946,39.012 50.064,39.019 50.181,39.019 50.301,39.019 50.404,39.027 50.5,39.027 
					50.583,39.034 50.657,39.034 50.715,39.042 50.759,39.042 50.789,39.042 50.796,39.042 50.796,39.042 50.819,38.968 
					50.87,38.791 50.909,38.582 50.909,38.398 50.909,38.398 50.893,38.264 50.87,38.139 50.833,38.02 50.782,37.91 50.723,37.806 
					50.649,37.71 50.575,37.622 50.486,37.532 50.39,37.458 50.293,37.399 50.181,37.34 50.071,37.288 49.954,37.251 49.827,37.221 
					49.701,37.201 49.575,37.185 49.575,37.185 49.273,37.177 48.954,37.185 48.62,37.192 48.282,37.214 47.94,37.237 
					47.601,37.266 47.26,37.304 46.927,37.34 46.609,37.391 46.307,37.436 46.033,37.488 45.774,37.547 45.544,37.606 
					45.351,37.665 45.195,37.725 45.086,37.791 45.847,35.276 45.847,35.276 46.069,35.173 46.307,35.077 46.542,34.995 
					46.793,34.928 47.054,34.876 47.319,34.832 47.601,34.795 47.889,34.766 48.185,34.751 48.488,34.736 48.799,34.729 
					49.125,34.729 49.464,34.729 49.805,34.729 50.161,34.736 50.53,34.744 50.53,34.744 50.833,34.773 51.152,34.817 
					51.484,34.899 51.817,34.995 52.15,35.12 52.484,35.276 52.794,35.453 53.09,35.661 53.363,35.897 53.608,36.156 53.815,36.445 
					53.977,36.762 54.096,37.111 54.163,37.488 54.17,37.887 54.111,38.324 53.009,43.879 				"/>
			</g>
		</g>
		<polygon class="st2" points="50.455,41.098 50.448,41.039 50.404,40.994 50.33,40.958 50.234,40.936 50.108,40.921 49.975,40.913 
			49.82,40.913 49.657,40.913 49.487,40.928 49.31,40.95 49.14,40.972 48.97,41.002 48.807,41.031 48.65,41.061 48.518,41.098 
			48.4,41.135 48.333,41.15 48.244,41.179 48.134,41.217 48.015,41.268 47.889,41.321 47.748,41.387 47.607,41.468 47.468,41.55 
			47.327,41.653 47.193,41.765 47.067,41.882 46.958,42.017 46.852,42.156 46.779,42.312 46.721,42.481 46.683,42.659 
			46.668,43.021 46.721,43.303 46.809,43.524 46.942,43.688 47.105,43.798 47.274,43.872 47.46,43.91 47.638,43.917 47.963,43.91 
			48.252,43.879 48.525,43.828 48.769,43.762 48.992,43.688 49.191,43.599 49.368,43.496 49.523,43.385 49.664,43.273 
			49.783,43.147 49.887,43.029 49.975,42.904 50.049,42.778 50.108,42.659 50.153,42.542 50.19,42.43 50.227,42.267 50.264,42.096 
			50.301,41.918 50.338,41.734 50.367,41.557 50.397,41.394 50.427,41.239 		"/>
		<polygon class="st0" points="30.682,46.241 27.788,46.241 30.222,32.309 35.253,32.309 35.749,40.603 39.174,32.309 
			44.397,32.309 41.956,46.241 39.063,46.241 40.89,35.808 40.779,35.808 36.474,46.241 33.234,46.241 33.204,45.803 33.137,44.642 
			33.041,42.999 32.93,41.114 32.82,39.211 32.724,37.532 32.656,36.319 32.626,35.808 32.619,35.808 32.59,35.808 32.56,35.808 
			32.523,35.808 32.494,35.808 32.479,35.808 32.479,35.808 32.508,35.808 		"/>
		<g>
			<g>
				<polyline class="st3" points="30.682,46.241 27.788,46.241 30.222,32.309 35.253,32.309 35.749,40.603 39.174,32.309 
					44.397,32.309 41.956,46.241 39.063,46.241 40.89,35.808 40.779,35.808 36.474,46.241 33.234,46.241 33.234,46.241 
					33.204,45.803 33.137,44.642 33.041,42.999 32.93,41.114 32.82,39.211 32.724,37.532 32.656,36.319 32.626,35.808 
					32.626,35.808 32.619,35.808 32.59,35.808 32.56,35.808 32.523,35.808 32.494,35.808 32.479,35.808 32.479,35.808 
					32.508,35.808 30.682,46.241 				"/>
			</g>
		</g>
		<polygon class="st0" points="79.014,46.241 82.025,46.241 82.025,46.241 83.052,40.226 83.097,39.989 83.148,39.759 83.207,39.53 
			83.281,39.316 83.363,39.102 83.467,38.901 83.592,38.708 83.732,38.525 83.903,38.36 84.094,38.212 84.324,38.08 84.576,37.96 
			84.873,37.865 85.205,37.791 85.575,37.747 85.989,37.717 86.026,37.717 86.07,37.725 86.13,37.732 86.189,37.732 86.241,37.739 
			86.285,37.747 86.315,37.754 86.33,37.754 86.337,37.71 86.367,37.583 86.404,37.391 86.462,37.147 86.537,36.875 86.618,36.578 
			86.715,36.282 86.825,36.002 86.907,35.793 87.003,35.594 87.099,35.395 87.203,35.21 87.292,35.054 87.366,34.928 87.417,34.846 
			87.433,34.817 87.417,34.817 87.38,34.802 87.329,34.795 87.254,34.78 87.18,34.766 87.091,34.758 87.01,34.744 86.937,34.744 
			86.611,34.766 86.315,34.802 86.041,34.862 85.789,34.928 85.552,35.016 85.339,35.113 85.131,35.231 84.946,35.357 
			84.761,35.499 84.591,35.653 84.436,35.816 84.272,35.993 84.118,36.178 83.969,36.378 83.814,36.585 83.66,36.8 84.007,34.899 
			80.996,34.862 79.014,46.241 		"/>
		<g>
			<g>
				<polyline class="st3" points="79.014,46.241 82.025,46.241 82.025,46.241 83.052,40.226 83.052,40.226 83.097,39.989 
					83.148,39.759 83.207,39.53 83.281,39.316 83.363,39.102 83.467,38.901 83.592,38.708 83.732,38.525 83.903,38.36 
					84.094,38.212 84.324,38.08 84.576,37.96 84.873,37.865 85.205,37.791 85.575,37.747 85.989,37.717 85.989,37.717 
					86.026,37.717 86.07,37.725 86.13,37.732 86.189,37.732 86.241,37.739 86.285,37.747 86.315,37.754 86.33,37.754 86.33,37.754 
					86.337,37.71 86.367,37.583 86.404,37.391 86.462,37.147 86.537,36.875 86.618,36.578 86.715,36.282 86.825,36.002 
					86.825,36.002 86.907,35.793 87.003,35.594 87.099,35.395 87.203,35.21 87.292,35.054 87.366,34.928 87.417,34.846 
					87.433,34.817 87.433,34.817 87.417,34.817 87.38,34.802 87.329,34.795 87.254,34.78 87.18,34.766 87.091,34.758 87.01,34.744 
					86.937,34.744 86.937,34.744 86.611,34.766 86.315,34.802 86.041,34.862 85.789,34.928 85.552,35.016 85.339,35.113 
					85.131,35.231 84.946,35.357 84.761,35.499 84.591,35.653 84.436,35.816 84.272,35.993 84.118,36.178 83.969,36.378 
					83.814,36.585 83.66,36.8 84.007,34.899 80.996,34.862 79.014,46.241 79.014,46.241 				"/>
			</g>
		</g>
		<polygon class="st0" points="92.04,34.744 92.373,34.751 92.699,34.773 93.018,34.802 93.329,34.846 93.625,34.906 93.912,34.98 
			94.187,35.062 94.459,35.157 94.718,35.268 94.963,35.387 95.207,35.513 95.429,35.653 95.651,35.808 95.858,35.971 
			96.051,36.142 96.235,36.327 96.413,36.519 96.575,36.726 96.725,36.934 96.864,37.155 96.997,37.384 97.108,37.628 
			97.218,37.873 97.309,38.131 97.39,38.391 97.456,38.665 97.515,38.946 97.561,39.234 97.589,39.521 97.604,39.826 97.611,40.137 
			97.604,40.447 97.582,40.825 97.538,41.188 97.486,41.535 97.419,41.875 97.345,42.201 97.249,42.511 97.146,42.815 
			97.035,43.102 96.901,43.377 96.769,43.643 96.612,43.894 96.457,44.131 96.287,44.361 96.101,44.575 95.91,44.775 95.71,44.968 
			95.503,45.145 95.289,45.316 95.06,45.47 94.83,45.612 94.585,45.744 94.333,45.863 94.083,45.974 93.816,46.069 93.55,46.158 
			93.269,46.232 92.987,46.292 92.706,46.344 92.411,46.381 92.115,46.41 91.812,46.425 91.508,46.432 91.204,46.425 90.901,46.41 
			90.613,46.381 90.324,46.335 90.044,46.284 89.762,46.225 89.496,46.15 89.238,46.062 88.978,45.966 88.733,45.854 88.497,45.737 
			88.268,45.604 88.046,45.464 87.839,45.307 87.631,45.145 87.439,44.968 87.262,44.782 87.084,44.583 86.928,44.376 
			86.774,44.154 86.64,43.924 86.507,43.681 86.396,43.428 86.291,43.169 86.204,42.896 86.122,42.607 86.056,42.312 86.004,42.007 
			85.968,41.69 85.945,41.364 85.938,41.025 85.945,40.677 85.968,40.322 86.004,39.98 86.056,39.647 86.122,39.33 86.196,39.019 
			86.285,38.715 86.381,38.427 86.492,38.146 86.611,37.873 86.743,37.614 86.891,37.369 87.047,37.125 87.21,36.904 87.387,36.682 
			87.572,36.481 87.765,36.282 87.972,36.097 88.187,35.927 88.408,35.765 88.638,35.617 88.881,35.483 89.133,35.351 
			89.392,35.239 89.651,35.135 89.926,35.048 90.205,34.965 90.495,34.899 90.791,34.839 91.094,34.802 91.403,34.766 
			91.723,34.751 		"/>
		<g>
			<g>
				<polyline class="st3" points="92.04,34.744 92.04,34.744 92.373,34.751 92.699,34.773 93.018,34.802 93.329,34.846 
					93.625,34.906 93.912,34.98 94.187,35.062 94.459,35.157 94.718,35.268 94.963,35.387 95.207,35.513 95.429,35.653 
					95.651,35.808 95.858,35.971 96.051,36.142 96.235,36.327 96.413,36.519 96.575,36.726 96.725,36.934 96.864,37.155 
					96.997,37.384 97.108,37.628 97.218,37.873 97.309,38.131 97.39,38.391 97.456,38.665 97.515,38.946 97.561,39.234 
					97.589,39.521 97.604,39.826 97.611,40.137 97.604,40.447 97.604,40.447 97.582,40.825 97.538,41.188 97.486,41.535 
					97.419,41.875 97.345,42.201 97.249,42.511 97.146,42.815 97.035,43.102 96.901,43.377 96.769,43.643 96.612,43.894 
					96.457,44.131 96.287,44.361 96.101,44.575 95.91,44.775 95.71,44.968 95.503,45.145 95.289,45.316 95.06,45.47 94.83,45.612 
					94.585,45.744 94.333,45.863 94.083,45.974 93.816,46.069 93.55,46.158 93.269,46.232 92.987,46.292 92.706,46.344 
					92.411,46.381 92.115,46.41 91.812,46.425 91.508,46.432 91.508,46.432 91.204,46.425 90.901,46.41 90.613,46.381 
					90.324,46.335 90.044,46.284 89.762,46.225 89.496,46.15 89.238,46.062 88.978,45.966 88.733,45.854 88.497,45.737 
					88.268,45.604 88.046,45.464 87.839,45.307 87.631,45.145 87.439,44.968 87.262,44.782 87.084,44.583 86.928,44.376 
					86.774,44.154 86.64,43.924 86.507,43.681 86.396,43.428 86.291,43.169 86.204,42.896 86.122,42.607 86.056,42.312 
					86.004,42.007 85.968,41.69 85.945,41.364 85.938,41.025 85.945,40.677 85.945,40.677 85.968,40.322 86.004,39.98 
					86.056,39.647 86.122,39.33 86.196,39.019 86.285,38.715 86.381,38.427 86.492,38.146 86.611,37.873 86.743,37.614 
					86.891,37.369 87.047,37.125 87.21,36.904 87.387,36.682 87.572,36.481 87.765,36.282 87.972,36.097 88.187,35.927 
					88.408,35.765 88.638,35.617 88.881,35.483 89.133,35.351 89.392,35.239 89.651,35.135 89.926,35.048 90.205,34.965 
					90.495,34.899 90.791,34.839 91.094,34.802 91.403,34.766 91.723,34.751 92.04,34.744 				"/>
			</g>
		</g>
		<polygon class="st0" points="96.465,45.67 97.338,45.67 97.338,45.781 96.997,45.781 96.997,46.506 96.806,46.506 96.806,45.781 
			96.465,45.781 		"/>
		<g>
			<g>
				<polyline class="st3" points="96.465,45.67 97.338,45.67 97.338,45.781 96.997,45.781 96.997,46.506 96.806,46.506 
					96.806,45.781 96.465,45.781 96.465,45.67 				"/>
			</g>
		</g>
		<polygon class="st0" points="97.449,45.67 97.715,45.67 98.026,46.314 98.026,46.314 98.329,45.67 98.596,45.67 98.596,46.506 
			98.403,46.506 98.403,45.863 98.403,45.863 98.1,46.506 97.945,46.506 97.64,45.863 97.64,45.863 97.64,46.506 97.449,46.506 		
			"/>
		<g>
			<g>
				<polyline class="st3" points="97.449,45.67 97.715,45.67 98.026,46.314 98.026,46.314 98.329,45.67 98.596,45.67 98.596,46.506 
					98.403,46.506 98.403,45.863 98.403,45.863 98.1,46.506 97.945,46.506 97.64,45.863 97.64,45.863 97.64,46.506 97.449,46.506 
					97.449,45.67 				"/>
			</g>
		</g>
		<polygon class="st1" points="89.681,40.18 89.637,40.595 89.613,40.979 89.613,41.328 89.637,41.653 89.681,41.949 89.746,42.208 
			89.83,42.445 89.932,42.659 90.058,42.843 90.198,42.999 90.354,43.132 90.524,43.237 90.708,43.317 90.917,43.377 91.13,43.406 
			91.36,43.421 91.612,43.414 91.856,43.385 92.085,43.332 92.307,43.251 92.515,43.147 92.714,43.015 92.898,42.858 93.077,42.673 
			93.232,42.467 93.38,42.229 93.52,41.963 93.639,41.675 93.75,41.357 93.846,41.01 93.921,40.632 93.987,40.226 94.023,39.907 
			94.046,39.604 94.046,39.308 94.023,39.027 93.987,38.768 93.928,38.516 93.846,38.287 93.75,38.073 93.632,37.88 93.497,37.717 
			93.343,37.569 93.173,37.451 92.98,37.354 92.773,37.295 92.552,37.259 92.307,37.259 92.004,37.281 91.723,37.333 91.463,37.42 
			91.219,37.532 90.997,37.68 90.791,37.843 90.606,38.027 90.442,38.236 90.288,38.457 90.155,38.694 90.035,38.93 89.939,39.181 
			89.851,39.433 89.777,39.685 89.725,39.937 		"/>
	</g>
</g>
</svg>