<?xml version="1.0" encoding="utf-8"?>
<!-- Generator: Adobe Illustrator 22.0.1, SVG Export Plug-In . SVG Version: 6.00 Build 0)  -->
<svg version="1.1" id="Layer_1" xmlns="http://www.w3.org/2000/svg" xmlns:xlink="http://www.w3.org/1999/xlink" x="0px" y="0px"
	 viewBox="0 0 714.6 118.3" style="enable-background:new 0 0 714.6 118.3;" xml:space="preserve">
<style type="text/css">
	.st0{fill:#FFFFFF;}
</style>
<g id="Calque_1">
</g>
<g id="XMLID_323_">
	<path id="XMLID_341_" class="st0" d="M186.9,62.3c-0.1-0.4-0.1-1.1-0.1-2c0-5.8,1.9-10.4,5.8-13.7c3.9-3.3,8.2-4.9,12.9-4.9
		c6.2,0,10.5,2.3,12.9,7L186.9,62.3z M232,54c-0.1-6.9-2.7-12.5-7.8-16.8c-5.1-4.3-11.6-6.5-19.3-6.5c-4.9,0-9.6,1.1-14,3.3
		c-4.4,2.2-8.1,5.6-11.1,10.1c-3,4.6-4.5,9.9-4.5,16c0,8.8,2.9,15.8,8.7,21.1c5.8,5.3,12.7,8,20.7,8c9.2,0,17.2-3.5,23.9-10.5
		l-7-7.8c-4.1,5-9.4,7.5-15.8,7.5s-11.4-2.3-15.1-6.8l41.4-17.4L232,54z"/>
	<path id="XMLID_189_" class="st0" d="M161.6,34.2c-3.3,2.3-5.9,5.2-7.9,8.8V31.5h-12v56.8h12V64c0-6.5,1.5-11.6,4.5-15.5
		c3-3.8,7.4-5.8,13.3-5.8h0.6l-0.1-12.1C168.4,30.8,164.9,31.9,161.6,34.2"/>
	<path id="XMLID_188_" class="st0" d="M274.9,59.4c-1.9-1.3-3.7-2.3-5.4-3c-1.7-0.7-3.4-1.4-5.2-1.9c-1.8-0.6-3.8-1.1-6.1-1.7
		c-2.3-0.6-4.1-1.2-5.4-1.8c-1.9-0.9-2.8-2.2-2.8-4.1c0-2.1,0.9-3.6,2.7-4.6c1.8-1,4.1-1.5,6.9-1.5c5.4,0,10.4,1.5,15.1,4.6l4.5-8.9
		c-5.8-3.8-12-5.8-18.6-5.8c-6.6,0-11.9,1.6-16,4.8c-4.1,3.2-6.1,7.4-6.1,12.7c0,7.5,5.9,12.8,17.7,16c0.3,0.1,0.7,0.2,1.3,0.4
		c7.5,2.3,11.3,4.8,11.3,7.7c0,1.9-0.8,3.5-2.4,4.8c-1.6,1.2-3.7,1.9-6.4,1.9c-6.2,0-12.6-2.5-19.2-7.5l-5.8,9.3
		c3.4,2.7,7.4,4.8,11.8,6.3c4.5,1.5,8.7,2.2,12.9,2.2c6.1,0,11.1-1.6,15.1-4.9c3.9-3.2,5.9-7.6,5.9-13C280.7,66,278.7,62,274.9,59.4
		"/>
	<path id="XMLID_336_" class="st0" d="M116.6,51c-2.5,2.7-7.3,4-14.3,4H87.7V25.1h12.8c6.8,0,11.9,1.1,15.1,3.2
		c3.2,2.1,4.8,5.8,4.8,10.9C120.4,44.4,119.1,48.4,116.6,51 M125.5,20.2c-5.2-4.3-13.5-6.5-24.8-6.5H75.1v74.7h12.6V66.5H101
		c11,0,19.1-2.1,24.4-6.3c5.3-4.2,8-10.8,8-19.9C133.3,31.3,130.7,24.6,125.5,20.2"/>
	<path id="XMLID_185_" class="st0" d="M308.6,78.9c-2.6,0-4.6-0.8-6-2.4c-1.4-1.6-2.1-3.8-2.1-6.5V41.2h15v-9.6h-15V13.7h-12v56
		c0,6,1.8,10.7,5.4,14.3c3.6,3.5,7.9,5.3,13,5.3c5.1,0,9.7-1.9,13.9-5.7l-4.9-8.4C313.7,77.6,311.2,78.9,308.6,78.9"/>
	<path id="XMLID_332_" class="st0" d="M363.4,73.5c-3.3,3.5-7.3,5.2-12,5.2c-4.7,0-8.8-1.7-12.3-5.1c-3.5-3.4-5.2-7.8-5.2-13.3
		s1.7-10,5.1-13.6c3.4-3.6,7.5-5.4,12.3-5.4c4.8,0,8.8,1.8,12.1,5.4c3.3,3.6,4.9,8.2,4.9,13.6C368.3,65.6,366.7,70,363.4,73.5
		 M368.1,41.4c-4.8-7.1-11-10.7-18.5-10.7c-7.5,0-14,2.6-19.4,7.9c-5.5,5.3-8.2,12.3-8.2,21.1c0,8.8,2.7,16,8,21.4
		c5.3,5.4,11.6,8.1,18.8,8.1c3.6,0,7.1-0.9,10.6-2.6c3.5-1.7,6.4-4.3,8.7-7.5v9.3h12V31.5h-12L368.1,41.4L368.1,41.4z"/>
	<path id="XMLID_329_" class="st0" d="M557.3,73.4c-3.4,3.5-7.7,5.2-12.9,5.2c-5.2,0-9.5-1.7-12.9-5.2c-3.4-3.5-5.1-7.9-5.1-13.4
		c0-5.5,1.7-9.9,5.1-13.4c3.4-3.5,7.7-5.2,12.9-5.2c5.2,0,9.5,1.7,12.9,5.2c3.4,3.5,5.1,7.9,5.1,13.4S560.7,69.9,557.3,73.4
		 M544.5,30.7c-8.5,0-15.7,2.8-21.4,8.5c-5.7,5.7-8.5,12.6-8.5,20.8s2.8,15.1,8.5,20.8c5.7,5.7,12.8,8.5,21.4,8.5s15.7-2.8,21.4-8.5
		c5.7-5.7,8.5-12.6,8.5-20.8s-2.8-15.1-8.5-20.8C560.1,33.5,553,30.7,544.5,30.7"/>
	<path id="XMLID_326_" class="st0" d="M622.3,73.4c-3.5,3.4-7.6,5.1-12.3,5.1s-8.7-1.7-12-5.2c-3.3-3.5-4.9-7.9-4.9-13.3
		c0-5.4,1.6-9.9,4.9-13.5c3.3-3.6,7.3-5.4,12.1-5.4c4.8,0,8.9,1.8,12.3,5.4c3.4,3.6,5.1,8.1,5.1,13.6
		C627.5,65.6,625.8,70,622.3,73.4 M631.4,38.6c-5.4-5.3-11.9-7.9-19.5-7.9c-7.6,0-13.8,3.6-18.5,10.8v-9.9h-12v77.5h12V79.8
		c5.7,6.3,12.1,9.4,19.3,9.4c7.2,0,13.4-2.7,18.8-8.2c5.4-5.5,8.1-12.6,8.1-21.4S636.8,43.9,631.4,38.6"/>
	<path id="XMLID_178_" class="st0" d="M486.7,30.7c-4,0-7.7,1-11.2,3c-3.5,2-6,4.7-7.7,8.2V9.2h-12v79.1h12V57.6
		c0-5.3,1.5-9.3,4.6-12c3.1-2.7,6.7-4.1,10.8-4.1c8.7,0,13,5.2,13,15.7v31.2h12V53.5c0-7.4-2-13.1-5.9-17
		C498.3,32.6,493.1,30.7,486.7,30.7"/>
	<path id="XMLID_177_" class="st0" d="M441.6,52.5c-3.9-3.3-9.6-5.9-17.3-7.8c-7.7-1.8-12.7-3.6-15-5.2c-2.3-1.6-3.5-3.9-3.5-6.9
		c0-3,1.2-5.3,3.5-6.8c2.3-1.5,5.4-2.2,9-2.2c3.7,0,7.4,0.6,11.2,1.9c3.8,1.3,6.8,2.9,9,4.9l6.7-9.5c-3.4-2.8-7.5-5.1-12.2-6.6
		c-4.7-1.6-9.4-2.4-14.2-2.4c-7.4,0-13.6,1.9-18.6,5.6c-5,3.7-7.5,9.1-7.5,16s2.2,12,6.6,15.4c2.2,1.8,4.7,3.2,7.6,4.3
		c2.8,1.1,7,2.3,12.5,3.6c5.5,1.3,9.3,2.8,11.6,4.4c2.2,1.6,3.4,3.8,3.4,6.7s-1.2,5.2-3.6,6.9c-2.4,1.7-5.6,2.6-9.7,2.6
		c-8.1,0-15.9-3.3-23.5-9.8l-7.9,9.5c9,8,19.4,12.1,31.1,12.1c8,0,14.4-2,19.3-6.1c4.9-4.1,7.4-9.3,7.4-15.9S445.4,55.8,441.6,52.5"
		/>
</g>
</svg>
