<?xml version="1.0" standalone="no"?>
<!DOCTYPE svg PUBLIC "-//W3C//DTD SVG 1.1//EN" "http://www.w3.org/Graphics/SVG/1.1/DTD/svg11.dtd" >
<svg xmlns="http://www.w3.org/2000/svg" xmlns:xlink="http://www.w3.org/1999/xlink" version="1.1">
<metadata>
Created by FontForge 20170731 at Tue Nov 22 18:24:01 2005
 By ,,,
Copyright 2004 Monotype Imaging, Inc. All Rights Reserved.
</metadata>
<defs>
<font id="NeoSansStd-Bold" horiz-adv-x="645" >
  <font-face 
    font-family="Neo Sans Std"
    font-weight="700"
    font-stretch="normal"
    units-per-em="1000"
    panose-1="2 11 8 4 3 5 4 4 2 4"
    ascent="765"
    descent="-235"
    x-height="573"
    cap-height="743"
    bbox="-93 -216 1533 1012"
    underline-thickness="80"
    underline-position="-239"
    unicode-range="U+0020-FB04"
  />
<missing-glyph horiz-adv-x="500" 
d="M12 0v665h475v-665h-475zM88 618l162 -243l161 243h-323zM60 575v-484l40 61l80 120l41 61zM440 575l-162 -242l162 -243v485zM411 48l-161 242l-162 -242h323z" />
    <glyph glyph-name="f_b" unicode="fb" horiz-adv-x="1021" 
d="M476 653h-133q-35 0 -43.5 -8t-8.5 -39v-33h82q8 0 14 -6t6 -14v-81q0 -8 -6 -14t-14 -6h-82v-432q0 -8 -6 -14t-14 -6h-123q-8 0 -14 6t-6 14v432l-80 13q-21 4 -21 21v66q0 8 6.5 14.5t14.5 6.5h80v42q0 53 11 85.5t37.5 49t58.5 21.5t85 5q126 0 180 -9h119
q8 0 13.5 -6t5.5 -14v-173q51 7 82 7q124 0 187.5 -67.5t63.5 -188.5v-78q0 -122 -65 -189t-186 -67q-107 0 -213 26q-19 4 -25 10t-6 19v607zM809 247v78q0 58 -19.5 90t-69.5 32q-42 0 -82 -5v-312q38 -6 82 -6q50 0 69.5 32t19.5 91z" />
    <glyph glyph-name="f_f_b" unicode="ffb" horiz-adv-x="1368" 
d="M394 670q0 -17 -21 -17h-49q-22 0 -27.5 -8t-5.5 -39v-33h184v42q0 53 11 85.5t37.5 49t58.5 21.5t85 5q126 0 180 -9h119q8 0 13.5 -6t5.5 -14v-173q51 7 82 7q124 0 187.5 -67.5t63.5 -188.5v-78q0 -122 -65 -189t-186 -67q-107 0 -213 26q-19 4 -25 10t-6 19v607h-133
q-35 0 -43.5 -8t-8.5 -39v-33h82q8 0 14 -6t6 -14v-81q0 -8 -6 -14t-14 -6h-82v-432q0 -8 -6 -14t-14 -6h-123q-8 0 -14 6t-6 14v432h-184v-432q0 -8 -6 -14t-14 -6h-123q-8 0 -14 6t-6 14v432l-80 13q-21 4 -21 21v66q0 8 6.5 14.5t14.5 6.5h80v32q0 101 39.5 136t128.5 35
q31 0 79 -8q19 -3 19 -20v-78zM1156 247v78q0 58 -19.5 90t-69.5 32q-42 0 -82 -5v-312q38 -6 82 -6q50 0 69.5 32t19.5 91z" />
    <glyph glyph-name="f_f_h" unicode="ffh" horiz-adv-x="1374" 
d="M291 573h183v42q0 53 11 85.5t37.5 49t58.5 21.5t85 5q126 0 180 -9h119q8 0 13.5 -6t5.5 -14v-211q70 45 153 45q53 0 89 -17t54.5 -50t26 -71t7.5 -89v-333q0 -8 -6.5 -14.5t-14.5 -6.5h-121q-8 0 -14 6.5t-6 14.5v333q0 54 -14.5 73.5t-59.5 19.5q-34 0 -94 -32v-394
q0 -8 -6 -14.5t-14 -6.5h-121q-8 0 -14.5 6.5t-6.5 14.5v632h-133q-35 0 -43 -8t-8 -39v-33h82q8 0 14 -6t6 -14v-81q0 -8 -6 -14t-14 -6h-82v-432q0 -8 -6 -14t-14 -6h-123q-8 0 -14 6t-6 14v432h-184v-432q0 -8 -6 -14t-14 -6h-123q-8 0 -14 6t-6 14v432l-80 13
q-21 4 -21 21v66q0 8 6.5 14.5t14.5 6.5h80v32q0 101 39.5 136t128.5 35q31 0 79 -8q19 -3 19 -20v-78q0 -17 -21 -17h-49q-22 0 -27.5 -8t-5.5 -39v-33z" />
    <glyph glyph-name="f_f_j" unicode="ffj" horiz-adv-x="1061" 
d="M997 -32q0 -95 -40 -133t-118 -38q-39 0 -80 7q-20 3 -20 20v79q0 18 21 18h44q20 0 25.5 10t5.5 37v484h-197v-432q0 -8 -6 -14t-14 -6h-123q-8 0 -14 6t-6 14v432h-184v-432q0 -8 -6 -14t-14 -6h-123q-8 0 -14 6t-6 14v432l-80 13q-21 4 -21 21v66q0 8 6.5 14.5
t14.5 6.5h80v32q0 101 39.5 136t128.5 35q31 0 79 -8q19 -3 19 -20v-78q0 -17 -21 -17h-49q-22 0 -27.5 -8t-5.5 -39v-33h184v32q0 101 39.5 136t128.5 35q31 0 79 -8q19 -3 19 -20v-78q0 -17 -21 -17h-49q-22 0 -27.5 -8t-5.5 -39v-33h340q8 0 13.5 -6.5t5.5 -14.5v-584z
M1001 658q0 -8 -6.5 -14t-14.5 -6h-129q-8 0 -14 6t-6 14v93q0 8 6 14t14 6h129q8 0 14.5 -6t6.5 -14v-93z" />
    <glyph glyph-name="f_f_k" unicode="ffk" horiz-adv-x="1350" 
d="M475 573v42q0 53 11 85.5t37.5 49t58.5 21.5t85 5q126 0 180 -9h119q18 0 18 -20v-418l152 229q10 15 26 15h143q15 0 15 -11q0 -5 -4 -10l-186 -253l185 -278q2 -2 2 -8q0 -13 -13 -13h-151q-16 0 -25 14l-144 235v-228q0 -8 -6 -14.5t-14 -6.5h-121q-8 0 -14.5 6.5
t-6.5 14.5v632h-132q-35 0 -43 -8t-8 -39v-33h82q8 0 14 -6t6 -14v-81q0 -8 -6 -14t-14 -6h-82v-432q0 -8 -6 -14t-14 -6h-123q-8 0 -14.5 6t-6.5 14v432h-184v-432q0 -8 -6 -14t-14 -6h-123q-8 0 -14 6t-6 14v432l-80 13q-21 4 -21 21v66q0 8 6.5 14.5t14.5 6.5h80v32
q0 101 39.5 136t128.5 35q31 0 79 -8q19 -3 19 -20v-78q0 -17 -21 -17h-49q-22 0 -27.5 -8t-5.5 -39v-33h184z" />
    <glyph glyph-name="f_h" unicode="fh" horiz-adv-x="1027" 
d="M475 653h-133q-35 0 -43 -8t-8 -39v-33h82q8 0 14 -6t6 -14v-81q0 -8 -6 -14t-14 -6h-82v-432q0 -8 -6 -14t-14 -6h-123q-8 0 -14 6t-6 14v432l-80 13q-21 4 -21 21v66q0 8 6.5 14.5t14.5 6.5h79v42q0 53 11 85.5t37.5 49t58.5 21.5t85 5q126 0 180 -9h119q8 0 13.5 -6
t5.5 -14v-211q70 45 153 45q53 0 89 -17t54.5 -50t26 -71t7.5 -89v-333q0 -8 -6.5 -14.5t-14.5 -6.5h-121q-8 0 -14 6.5t-6 14.5v333q0 54 -14.5 73.5t-59.5 19.5q-34 0 -94 -32v-394q0 -8 -6 -14.5t-14 -6.5h-121q-8 0 -14.5 6.5t-6.5 14.5v632z" />
    <glyph glyph-name="f_j" unicode="fj" horiz-adv-x="714" 
d="M650 -32q0 -95 -40 -133t-118 -38q-39 0 -80 7q-20 3 -20 20v79q0 18 21 18h44q20 0 25.5 10t5.5 37v484h-197v-432q0 -8 -6 -14t-14 -6h-123q-8 0 -14 6t-6 14v432l-80 13q-21 4 -21 21v66q0 8 6.5 14.5t14.5 6.5h80v32q0 101 39.5 136t128.5 35q31 0 79 -8
q19 -3 19 -20v-78q0 -17 -21 -17h-49q-22 0 -27.5 -8t-5.5 -39v-33h340q8 0 13.5 -6.5t5.5 -14.5v-584zM654 658q0 -8 -6.5 -14t-14.5 -6h-129q-8 0 -14 6t-6 14v93q0 8 6 14t14 6h129q8 0 14.5 -6t6.5 -14v-93z" />
    <glyph glyph-name="f_k" unicode="fk" horiz-adv-x="1002" 
d="M636 747v-418l152 229q10 15 26 15h143q15 0 15 -11q0 -5 -4 -10l-186 -253l185 -278q2 -2 2 -8q0 -13 -13 -13h-151q-16 0 -25 14l-144 235v-228q0 -8 -6 -14.5t-14 -6.5h-121q-8 0 -14.5 6.5t-6.5 14.5v632h-132q-35 0 -43 -8t-8 -39v-33h82q8 0 14 -6t6 -14v-81
q0 -8 -6 -14t-14 -6h-82v-432q0 -8 -6 -14t-14 -6h-123q-8 0 -14 6t-6 14v432l-80 13q-21 4 -21 21v66q0 8 6.5 14.5t14.5 6.5h79v42q0 53 11 85.5t37.5 49t58.5 21.5t85 5q126 0 180 -9h119q18 0 18 -20z" />
    <glyph glyph-name="f_f" unicode="ff" horiz-adv-x="771" 
d="M741 670q0 -17 -21 -17h-49q-22 0 -27.5 -8t-5.5 -39v-33h82q8 0 14 -6t6 -14v-81q0 -8 -6 -14t-14 -6h-82v-432q0 -8 -6 -14t-14 -6h-123q-8 0 -14 6t-6 14v432h-184v-432q0 -8 -6 -14t-14 -6h-123q-8 0 -14 6t-6 14v432l-80 13q-21 4 -21 21v66q0 8 6.5 14.5t14.5 6.5
h80v32q0 101 39.5 136t128.5 35q31 0 79 -8q19 -3 19 -20v-78q0 -17 -21 -17h-49q-22 0 -27.5 -8t-5.5 -39v-33h184v32q0 101 39.5 136t128.5 35q31 0 79 -8q19 -3 19 -20v-78z" />
    <glyph glyph-name="fi" unicode="fi" horiz-adv-x="702" 
d="M394 670q0 -17 -21 -17h-49q-22 0 -27.5 -8t-5.5 -39v-33h327q8 0 14 -6.5t6 -14.5v-531q0 -8 -6 -14.5t-14 -6.5h-121q-8 0 -14.5 6.5t-6.5 14.5v431h-185v-432q0 -8 -6 -14t-14 -6h-123q-8 0 -14 6t-6 14v432l-80 13q-21 4 -21 21v66q0 8 6.5 14.5t14.5 6.5h80v32
q0 101 39.5 136t128.5 35q31 0 79 -8q19 -3 19 -20v-78zM642 658q0 -8 -6.5 -14t-14.5 -6h-127q-8 0 -15 6t-7 14v93q0 8 7 14t15 6h127q8 0 14.5 -6t6.5 -14v-93z" />
    <glyph glyph-name="fl" unicode="fl" horiz-adv-x="698" 
d="M638 21q0 -8 -5.5 -14.5t-13.5 -6.5h-122q-8 0 -14.5 6.5t-6.5 14.5v632h-133q-35 0 -43.5 -8t-8.5 -39v-33h82q8 0 14 -6t6 -14v-81q0 -8 -6 -14t-14 -6h-82v-432q0 -8 -6 -14t-14 -6h-123q-8 0 -14 6t-6 14v432l-80 13q-21 4 -21 21v66q0 8 6.5 14.5t14.5 6.5h80v42
q0 53 11 85.5t37.5 49t58.5 21.5t85 5q126 0 180 -9h119q8 0 13.5 -6t5.5 -14v-726z" />
    <glyph glyph-name="f_f_i" unicode="ffi" horiz-adv-x="1049" 
d="M989 658q0 -8 -6.5 -14t-14.5 -6h-127q-8 0 -15 6t-7 14v93q0 8 7 14t15 6h127q8 0 14.5 -6t6.5 -14v-93zM475 573v32q0 101 39.5 136t128.5 35q31 0 79 -8q19 -3 19 -20v-78q0 -17 -21 -17h-49q-22 0 -27.5 -8t-5.5 -39v-33h327q8 0 14 -6.5t6 -14.5v-531q0 -8 -6 -14.5
t-14 -6.5h-121q-8 0 -14.5 6.5t-6.5 14.5v431h-185v-432q0 -8 -6 -14t-14 -6h-123q-8 0 -14 6t-6 14v432h-184v-432q0 -8 -6 -14t-14 -6h-123q-8 0 -14 6t-6 14v432l-80 13q-21 4 -21 21v66q0 8 6.5 14.5t14.5 6.5h80v32q0 101 39.5 136t128.5 35q31 0 79 -8q19 -3 19 -20
v-78q0 -17 -21 -17h-49q-22 0 -27.5 -8t-5.5 -39v-33h184z" />
    <glyph glyph-name="f_f_l" unicode="ffl" horiz-adv-x="1045" 
d="M394 670q0 -17 -21 -17h-49q-22 0 -27.5 -8t-5.5 -39v-33h184v42q0 53 11 85.5t37.5 49t58.5 21.5t85 5q126 0 180 -9h119q8 0 13.5 -6t5.5 -14v-726q0 -8 -5.5 -14.5t-13.5 -6.5h-122q-8 0 -14.5 6.5t-6.5 14.5v632h-133q-35 0 -43.5 -8t-8.5 -39v-33h82q8 0 14 -6
t6 -14v-81q0 -8 -6 -14t-14 -6h-82v-432q0 -8 -6 -14t-14 -6h-123q-8 0 -14 6t-6 14v432h-184v-432q0 -8 -6 -14t-14 -6h-123q-8 0 -14 6t-6 14v432l-80 13q-21 4 -21 21v66q0 8 6.5 14.5t14.5 6.5h80v32q0 101 39.5 136t128.5 35q31 0 79 -8q19 -3 19 -20v-78z" />
    <glyph glyph-name=".notdef" horiz-adv-x="500" 
d="M12 0v665h475v-665h-475zM88 618l162 -243l161 243h-323zM60 575v-484l40 61l80 120l41 61zM440 575l-162 -242l162 -243v485zM411 48l-161 242l-162 -242h323z" />
    <glyph glyph-name=".null" horiz-adv-x="0" 
 />
    <glyph glyph-name="nonmarkingreturn" horiz-adv-x="333" 
 />
    <glyph glyph-name="space" unicode=" " horiz-adv-x="260" 
 />
    <glyph glyph-name="exclam" unicode="!" horiz-adv-x="273" 
d="M220 748v-1l-20 -499q0 -8 -6 -14.5t-14 -6.5h-85q-8 0 -15 6.5t-7 14.5l-20 499v1q0 7 7 13t15 6h125q8 0 14 -5.5t6 -13.5zM215 20q0 -8 -5.5 -14t-13.5 -6h-118q-8 0 -14 6t-6 14v126q0 8 6 13.5t14 5.5h118q19 0 19 -19v-126z" />
    <glyph glyph-name="quotedbl" unicode="&#x22;" horiz-adv-x="472" 
d="M449 756q0 -2 -2 -8l-75 -219q-7 -19 -19 -19h-101q-9 0 -9 10q0 6 1 9l54 219q4 19 20 19h119q12 0 12 -11zM230 756q0 -2 -2 -8l-75 -219q-7 -19 -19 -19h-101q-9 0 -9 10q0 6 1 9l54 219q4 19 20 19h119q12 0 12 -11z" />
    <glyph glyph-name="numbersign" unicode="#" horiz-adv-x="699" 
d="M651 539v-2l-12 -76q-2 -11 -15 -11h-85l-15 -161h84q6 0 12 -4t6 -10v-2l-11 -71q-1 -5 -6 -10t-10 -5h-84l-14 -168q-2 -19 -18 -19h-102q-16 0 -16 17v2l14 168h-113l-15 -168q-2 -19 -18 -19h-103q-7 0 -11.5 5t-4.5 12v2l14 168h-85q-14 0 -14 13v2l12 75
q2 12 14 12h83l14 161h-85q-14 0 -14 12v2l12 77q2 11 16 11h80l15 172q1 8 6.5 13.5t12.5 5.5h103q15 0 15 -17v-2l-15 -172h113l16 172q2 19 19 19h102q15 0 15 -17v-2l-16 -172h87q17 0 17 -13zM403 450h-113l-15 -161h113z" />
    <glyph glyph-name="dollar" unicode="$" 
d="M575 210q0 -74 -45 -132.5t-141 -78.5v-94q0 -8 -6 -14t-14 -6h-110q-8 0 -14 6t-6 14v89q-67 4 -127 19q-19 6 -19 20v98q0 8 5.5 13.5t13.5 5.5h2q98 -12 189 -12q50 0 70 17t20 53q0 22 -13.5 37.5t-52.5 38.5l-138 82q-66 39 -92.5 85.5t-26.5 105.5q0 158 169 188
v86q0 8 6 14t14 6h110q8 0 14 -6t6 -14v-82q98 -7 146 -19q19 -6 19 -19v-99q0 -8 -5 -13t-13 -5h-2q-114 11 -212 11q-41 0 -59 -12.5t-18 -40.5q0 -19 13.5 -34t53.5 -36l127 -69q74 -40 105 -89.5t31 -113.5z" />
    <glyph glyph-name="percent" unicode="%" horiz-adv-x="839" 
d="M801 166q0 -172 -147 -172q-72 0 -110 43t-38 129v75q0 86 38 129t110 43q147 0 147 -172v-75zM698 735q0 -7 -4 -12l-416 -702q-12 -21 -23 -21h-103q-11 0 -11 11q0 4 3 10l416 702q12 20 25 20h103q10 0 10 -8zM334 502q0 -86 -38 -129t-110 -43t-110 43t-38 129v75
q0 171 148 171t148 -171v-75zM701 166v75q0 48 -11.5 66.5t-35.5 18.5t-36 -18.5t-12 -66.5v-75q0 -48 12 -66.5t36 -18.5t35.5 18.5t11.5 66.5zM233 502v75q0 48 -11.5 66.5t-35.5 18.5t-36 -18.5t-12 -66.5v-75q0 -48 12 -67t36 -19q23 0 35 19t12 67z" />
    <glyph glyph-name="ampersand" unicode="&#x26;" horiz-adv-x="732" 
d="M714 12q0 -12 -12 -12h-142q-9 0 -17 8l-30 32q-79 -49 -186 -49q-126 0 -201.5 47.5t-75.5 148.5v9q0 61 33.5 107t99.5 87l-8 9q-52 58 -70.5 96t-18.5 75v9q0 78 59.5 125.5t177.5 47.5q109 0 168.5 -47.5t59.5 -125.5v-9q0 -63 -34 -104t-98 -83l-31 -20l130 -137
q17 40 17 124v8q0 20 18 20h93q8 0 13.5 -6t5.5 -14v-8q0 -129 -58 -218l102 -108q5 -5 5 -12zM402 570v9q0 28 -20 44.5t-59 16.5q-43 0 -66 -16.5t-23 -44.5v-9q0 -25 10 -46t46 -57l8 -8l26 16q46 29 62 48t16 47zM427 130l-153 163q-34 -20 -46 -43t-12 -54v-9
q0 -39 30 -59.5t81 -20.5q59 0 100 23z" />
    <glyph glyph-name="quotesingle" unicode="'" horiz-adv-x="253" 
d="M230 756q0 -2 -2 -8l-75 -219q-7 -19 -19 -19h-101q-9 0 -9 10q0 6 1 9l54 219q4 19 20 19h119q12 0 12 -11z" />
    <glyph glyph-name="parenleft" unicode="(" horiz-adv-x="361" 
d="M328 -184q0 -10 -12 -10h-100q-24 0 -34 14q-66 93 -98.5 198.5t-32.5 246.5v18q0 141 32.5 247t98.5 199q10 14 34 14h100q12 0 12 -10q0 -6 -5 -16q-108 -200 -108 -434v-18q0 -233 108 -433q5 -10 5 -16z" />
    <glyph glyph-name="parenright" unicode=")" horiz-adv-x="361" 
d="M310 265q0 -141 -32.5 -246.5t-98.5 -198.5q-10 -14 -34 -14h-100q-12 0 -12 10q0 6 5 16q108 200 108 433v18q0 234 -108 434q-5 10 -5 16q0 10 12 10h100q24 0 34 -14q66 -93 98.5 -199t32.5 -247v-18z" />
    <glyph glyph-name="asterisk" unicode="*" horiz-adv-x="479" 
d="M445 570q0 -10 -15 -15l-115 -34l72 -98q5 -8 5 -14q0 -8 -6 -12l-52 -38q-4 -3 -9 -3q-9 0 -16 10l-69 100l-69 -100q-7 -10 -16 -10q-5 0 -9 3l-53 38q-7 4 -7 12q0 4 6 14l72 98l-114 34q-16 5 -16 16q0 3 1 5l20 63q3 10 13 10q3 0 11 -2l115 -38l-3 119q0 21 16 21
h66q15 0 15 -21l-1 -119l113 38q8 2 11 2q10 0 13 -10l20 -63q1 -2 1 -6z" />
    <glyph glyph-name="plus" unicode="+" 
d="M573 346q0 -16 -20 -16h-170v-169q0 -20 -16 -20h-90q-16 0 -16 20v169h-169q-20 0 -20 16v90q0 16 20 16h169v170q0 20 16 20h90q16 0 16 -20v-170h170q20 0 20 -16v-90z" />
    <glyph glyph-name="comma" unicode="," horiz-adv-x="274" 
d="M231 153q0 -3 -2 -7l-96 -224q-9 -20 -19 -20h-88q-7 0 -12 4.5t-5 10.5q0 1 0.5 2.5t0.5 2.5l64 224q5 19 20 19h122q15 0 15 -12z" />
    <glyph glyph-name="hyphen" unicode="-" horiz-adv-x="302" 
d="M268 264q0 -18 -20 -18h-194q-20 0 -20 18v80q0 8 6 13.5t14 5.5h194q8 0 14 -5.5t6 -13.5v-80z" />
    <glyph glyph-name="period" unicode="." horiz-adv-x="274" 
d="M216 20q0 -8 -6 -14t-14 -6h-117q-8 0 -14.5 6t-6.5 14v126q0 8 6.5 13.5t14.5 5.5h117q8 0 14 -5.5t6 -13.5v-126z" />
    <glyph glyph-name="slash" unicode="/" horiz-adv-x="405" 
d="M391 727l-1 -1v-3l-211 -702q-6 -21 -20 -21h-127q-8 0 -13.5 5t-5.5 12q0 1 0.5 2t0.5 2l212 702q5 20 20 20h127q7 0 12.5 -4.5t5.5 -11.5z" />
    <glyph glyph-name="zero" unicode="0" 
d="M592 328q0 -337 -270 -337q-269 0 -269 337v86q0 338 269 338q270 0 270 -338v-86zM421 328v86q0 110 -26 153t-73 43t-72.5 -43t-25.5 -153v-86q0 -110 25.5 -152.5t72.5 -42.5t73 42.5t26 152.5z" />
    <glyph glyph-name="one" unicode="1" 
d="M121 142h133v430l-130 -56q-8 -3 -12 -3q-11 0 -11 13v114q0 10 10 14l181 85q9 4 23 4h90q19 0 19 -19v-582h133q8 0 14 -5.5t6 -13.5v-103q0 -8 -6 -14t-14 -6h-436q-8 0 -14 6t-6 14v103q0 8 6 13.5t14 5.5z" />
    <glyph glyph-name="two" unicode="2" 
d="M570 561q0 -110 -115 -188l-85 -57q-39 -26 -60 -41.5t-43.5 -37.5t-32 -44t-9.5 -47v-4h316q8 0 14 -5.5t6 -13.5v-103q0 -8 -6 -14t-14 -6h-445q-8 0 -14 6t-6 14v102q0 79 37.5 145t98.5 109l92 65q76 53 88 68q14 18 14 48q0 33 -23 46.5t-83 13.5q-65 0 -197 -13h-2
q-18 0 -18 20v78q0 13 19 19q102 31 213 31q136 0 195.5 -46.5t59.5 -144.5z" />
    <glyph glyph-name="three" unicode="3" 
d="M566 212q0 -111 -70 -166t-191 -55q-116 0 -207 28q-19 6 -19 19v80q0 18 18 18h2q105 -9 199 -9q99 0 99 85v18q0 86 -81 86h-176q-8 0 -13.5 6t-5.5 14v85q0 19 19 19h172q45 0 65 24.5t20 62.5v14q0 37 -22 56t-77 19q-67 0 -197 -12h-2q-18 0 -18 18v80q0 13 20 19
q101 31 204 31q128 0 194.5 -48t66.5 -157v-14q0 -44 -25 -87.5t-64 -65.5q41 -22 65 -61.5t24 -88.5v-18z" />
    <glyph glyph-name="four" unicode="4" 
d="M606 187q0 -8 -6 -14t-14 -6h-66v-147q0 -8 -5.5 -14t-13.5 -6h-133q-8 0 -13.5 6t-5.5 14v147h-289q-8 0 -14 6t-6 14v97q0 15 11 31l316 414q11 14 26 14h107q8 0 14 -6t6 -14v-424h66q8 0 14 -6t6 -14v-92zM354 299v220q0 6 -4 6q-1 0 -3 -2l-157 -214q-2 -2 -2 -6
t6 -4h160z" />
    <glyph glyph-name="five" unicode="5" 
d="M566 236q0 -119 -69.5 -182t-200.5 -63q-104 0 -197 29q-20 6 -20 22v79q0 18 18 18h2q108 -12 180 -12q67 0 91 26.5t24 82.5v8q0 51 -30 71.5t-112 20.5h-155q-6 0 -10 4.5t-4 9.5v1l31 373q1 8 7 13.5t13 5.5h389q8 0 14 -5.5t6 -13.5v-100q0 -8 -6 -13.5t-14 -5.5
h-272l-12 -138h29q68 0 120 -10.5t93.5 -35.5t63 -69.5t21.5 -107.5v-8z" />
    <glyph glyph-name="six" unicode="6" 
d="M589 245q0 -117 -68.5 -185.5t-195.5 -68.5q-125 0 -196.5 74.5t-71.5 219.5v153q0 314 278 314q115 0 197 -20q22 -6 22 -22v-87q0 -21 -18 -21h-5q-84 14 -182 14q-67 0 -96 -32t-29 -114v-7q62 12 118 12q111 0 179 -53t68 -170v-7zM422 245v7q0 104 -107 104
q-33 0 -91 -10v-61q0 -95 26 -129.5t75 -34.5q46 0 71.5 27.5t25.5 96.5z" />
    <glyph glyph-name="seven" unicode="7" 
d="M566 637q0 -12 -16 -46l-263 -572q-9 -19 -25 -19h-137q-18 0 -18 12q0 5 3 11l272 571q1 2 1 5q0 6 -7 6h-277q-8 0 -14.5 5.5t-6.5 13.5v100q0 8 6.5 13.5t14.5 5.5h433q14 0 24 -10t10 -23v-73z" />
    <glyph glyph-name="eight" unicode="8" 
d="M593 213q0 -106 -72 -164t-193 -58h-11q-121 0 -193 58t-72 164v13q0 98 85 160q-81 56 -81 150v11q0 102 69.5 153.5t191.5 51.5h11q122 0 192 -51.5t70 -153.5v-11q0 -94 -82 -150q85 -62 85 -160v-13zM429 531v5q0 91 -101 91h-11q-101 0 -101 -91v-5q0 -40 23 -63.5
t68 -23.5h31q45 0 68 23.5t23 63.5zM428 218v10q0 39 -22 67.5t-68 28.5h-31q-46 0 -68 -28.5t-22 -67.5v-10q0 -45 26 -73t74 -28h11q48 0 74 28t26 73z" />
    <glyph glyph-name="nine" unicode="9" 
d="M589 305q0 -314 -278 -314q-115 0 -197 20q-22 5 -22 22v87q0 21 18 21h5q84 -14 182 -14q67 0 96 32t29 114v7q-62 -12 -118 -12q-111 0 -179 53t-68 170v7q0 116 68.5 185t195.5 69q125 0 196.5 -74.5t71.5 -219.5v-153zM422 397v61q0 95 -26 129.5t-75 34.5
q-46 0 -71.5 -27.5t-25.5 -96.5v-7q0 -104 107 -104q33 0 91 10z" />
    <glyph glyph-name="colon" unicode=":" horiz-adv-x="275" 
d="M216 402q0 -8 -6 -13.5t-14 -5.5h-117q-8 0 -14.5 5.5t-6.5 13.5v126q0 8 6.5 14t14.5 6h117q8 0 14 -6t6 -14v-126zM216 20q0 -8 -6 -14t-14 -6h-117q-8 0 -14.5 6t-6.5 14v126q0 8 6.5 13.5t14.5 5.5h117q8 0 14 -5.5t6 -13.5v-126z" />
    <glyph glyph-name="semicolon" unicode=";" horiz-adv-x="275" 
d="M216 402q0 -8 -6.5 -13.5t-14.5 -5.5h-117q-8 0 -14 5.5t-6 13.5v126q0 8 6 14t14 6h117q8 0 14.5 -6t6.5 -14v-126zM216 151q0 -3 -2 -7l-95 -224q-9 -20 -20 -20h-88q-7 0 -12 4.5t-5 10.5q0 1 0.5 2.5t0.5 2.5l64 224q5 19 20 19h122q15 0 15 -12z" />
    <glyph glyph-name="less" unicode="&#x3c;" 
d="M536 150q0 -13 -12 -13h-139q-11 0 -24 11l-233 207q-20 17 -20 36t20 36l233 207q13 11 24 11h139q12 0 12 -13q0 -6 -6 -12l-259 -229l259 -229q6 -6 6 -12z" />
    <glyph glyph-name="equal" unicode="=" 
d="M552 474q0 -16 -20 -16h-419q-20 0 -20 16v90q0 16 20 16h419q20 0 20 -16v-90zM552 218q0 -16 -20 -16h-419q-20 0 -20 16v90q0 16 20 16h419q20 0 20 -16v-90z" />
    <glyph glyph-name="greater" unicode="&#x3e;" 
d="M536 391q0 -18 -21 -36l-232 -207q-13 -11 -24 -11h-139q-12 0 -12 13q0 6 6 12l259 229l-259 229q-6 6 -6 12q0 13 12 13h139q11 0 24 -11l232 -207q21 -18 21 -36z" />
    <glyph glyph-name="question" unicode="?" horiz-adv-x="479" 
d="M431 580q0 -33 -17 -67.5t-60 -89.5l-45 -58l-12 -15q-40 -52 -43 -66l-1 -10v-28q0 -8 -7.5 -13.5t-16.5 -5.5h-100q-8 0 -13.5 6t-5.5 14v27q0 43 7.5 70t34.5 62l48 63q46 61 46 101v10q0 37 -49 37q-55 0 -143 -11h-3q-17 0 -17 21v89q0 21 18 26q69 21 160 21
q109 0 164 -38t55 -128v-17zM262 19q0 -8 -6 -13.5t-14 -5.5h-118q-8 0 -14 5.5t-6 13.5v126q0 8 6 14t14 6h118q8 0 14 -6t6 -14v-126z" />
    <glyph glyph-name="at" unicode="@" horiz-adv-x="774" 
d="M741 361q0 -170 -97.5 -242.5t-273.5 -72.5q-79 0 -126.5 37.5t-47.5 107.5q0 3 0.5 9t0.5 9l9 116q7 85 59 126t139 41q63 0 133 -15q24 -5 24 -27v-4l-28 -299q127 21 127 214q0 97 -60.5 163t-178.5 66q-130 0 -204 -63.5t-85 -182.5l-15 -160q-2 -24 -2 -34
q0 -90 63 -144t186 -54q33 0 83 4t64 4h1h4q8 0 8 -10v-39q0 -11 -12 -13q-85 -10 -148 -10q-148 0 -239 69.5t-91 194.5v3q0 19 1 29l16 165q14 145 111 228.5t260 83.5q103 0 177 -43.5t108 -110t34 -146.5zM442 392q-28 5 -51 5q-36 0 -51 -16.5t-20 -59.5l-11 -111
q-1 -6 -1 -17q0 -29 15.5 -40.5t53.5 -11.5q29 0 42 1z" />
    <glyph glyph-name="A" unicode="A" horiz-adv-x="669" 
d="M650 16q0 -16 -17 -16h-140q-16 0 -20 18l-36 164h-205l-36 -164q-4 -18 -20 -18h-140q-17 0 -17 16l1 2v3l149 620q16 65 59.5 88t106.5 23t106 -23t59 -88l149 -620q0 -1 1 -3v-2zM409 319l-61 276q-3 15 -13 15q-11 0 -14 -15l-61 -276h149z" />
    <glyph glyph-name="B" unicode="B" horiz-adv-x="669" 
d="M623 215q0 -224 -315 -224q-116 0 -183 12q-31 5 -43 18.5t-12 46.5v608q0 33 11.5 46.5t41.5 18.5q75 11 179 11q152 0 234 -48t82 -161v-18q0 -49 -22.5 -88.5t-61.5 -58.5q41 -20 65 -58.5t24 -89.5v-15zM453 517v15q0 42 -31 61t-107 19q-62 0 -76 -1v-173h112
q102 0 102 79zM457 219v11q0 89 -106 89h-112v-187q8 0 41.5 -0.5t40.5 -0.5q74 0 105 22t31 66z" />
    <glyph glyph-name="C" unicode="C" horiz-adv-x="561" 
d="M520 31q0 -17 -22 -23q-51 -17 -149 -17q-60 0 -111 17t-93.5 52.5t-67 99t-24.5 149.5v126q0 86 24.5 149.5t67 99t93.5 52t111 16.5q98 0 149 -17q22 -6 22 -22v-97q0 -20 -19 -20h-3q-101 8 -148 8q-124 0 -124 -169v-126q0 -169 124 -169q47 0 148 8h3q19 0 19 -20
v-97z" />
    <glyph glyph-name="D" unicode="D" horiz-adv-x="682" 
d="M631 307q0 -156 -83.5 -236t-235.5 -80q-125 0 -213 15q-29 5 -29 35v661q0 30 29 35q88 15 213 15q152 0 235.5 -80t83.5 -236v-129zM460 307v129q0 96 -37.5 133.5t-110.5 37.5q-43 0 -71 -2v-467q28 -2 71 -2q73 0 110.5 37.5t37.5 133.5z" />
    <glyph glyph-name="E" unicode="E" horiz-adv-x="580" 
d="M524 25q0 -18 -20 -21q-91 -13 -194 -13q-54 0 -93.5 8.5t-75.5 30.5t-55 66t-19 110v332q0 66 19 110t55.5 65.5t76 30t93.5 8.5q102 0 193 -13q20 -3 20 -20v-93q0 -8 -6 -14t-14 -6h-203q-36 0 -50 -14.5t-14 -53.5v-91h259q8 0 14 -6t6 -14v-95q0 -8 -6 -14t-14 -6
h-259v-106q0 -39 14 -53.5t50 -14.5h203q8 0 14 -6t6 -14v-93z" />
    <glyph glyph-name="F" unicode="F" horiz-adv-x="581" 
d="M524 625q0 -8 -6 -14t-14 -6h-203q-36 0 -50 -14.5t-14 -53.5v-90h259q8 0 14 -6t6 -14v-95q0 -8 -6 -14t-14 -6h-259v-292q0 -8 -6 -14t-14 -6h-130q-8 0 -14 6t-6 14v517q0 66 19 110t55.5 65.5t76 30t93.5 8.5q102 0 193 -13q20 -3 20 -20v-93z" />
    <glyph glyph-name="G" unicode="G" 
d="M580 608q0 -13 -15 -13h-3q-192 8 -208 8q-65 0 -98 -38t-33 -132v-125q0 -93 33 -131.5t79 -38.5q41 0 77 3v230q0 8 5.5 14t13.5 6h128q8 0 14 -6t6 -14v-336q0 -19 -20 -23q-103 -21 -224 -21q-37 0 -73.5 8.5t-75.5 31t-68.5 57t-48.5 91.5t-19 130v124
q0 91 26.5 156.5t72 99.5t96 48.5t109.5 14.5q103 0 209 -23q17 -3 17 -15v-106z" />
    <glyph glyph-name="H" unicode="H" horiz-adv-x="729" 
d="M659 20q0 -8 -6 -14t-14 -6h-131q-8 0 -14 6t-6 14v289h-247v-289q0 -8 -6 -14t-14 -6h-131q-8 0 -14 6t-6 14v704q0 8 6 13.5t14 5.5h131q8 0 14 -5.5t6 -13.5v-266h247v266q0 8 6 13.5t14 5.5h131q8 0 14 -5.5t6 -13.5v-704z" />
    <glyph glyph-name="I" unicode="I" horiz-adv-x="311" 
d="M241 20q0 -8 -5.5 -14t-13.5 -6h-134q-18 0 -18 20v704q0 19 18 19h134q19 0 19 -19v-704z" />
    <glyph glyph-name="J" unicode="J" horiz-adv-x="311" 
d="M241 -6q0 -95 -47.5 -134t-131.5 -39q-28 0 -64 4q-15 2 -15 17v102q0 14 11 14h50q16 0 21 8t5 28v730q0 8 6 13.5t14 5.5h131q8 0 14 -5.5t6 -13.5v-730z" />
    <glyph glyph-name="K" unicode="K" horiz-adv-x="678" 
d="M652 732q0 -6 -5 -14l-238 -338l239 -359q4 -5 4 -11q0 -10 -14 -10h-172q-13 0 -22 14l-203 330v-324q0 -8 -6 -14t-14 -6h-131q-8 0 -14 6t-6 14v704q0 8 6 13.5t14 5.5h131q8 0 14 -5.5t6 -13.5v-318l220 325q7 12 22 12h153q16 0 16 -11z" />
    <glyph glyph-name="L" unicode="L" horiz-adv-x="519" 
d="M497 25q0 -17 -20 -21q-61 -13 -163 -13q-54 0 -93.5 8.5t-76 30.5t-55.5 66t-19 110v517q0 8 6 14t14 6h131q8 0 14 -6t6 -14v-517q0 -39 14 -53.5t50 -14.5h172q8 0 14 -6t6 -14v-93z" />
    <glyph glyph-name="M" unicode="M" horiz-adv-x="816" 
d="M746 14q0 -14 -17 -14h-132q-7 0 -11.5 6t-4.5 14v417q0 8 -5 8q-4 0 -8 -7l-90 -165q-10 -17 -30 -17h-80q-20 0 -30 17l-90 165q-4 7 -8 7q-5 0 -5 -8v-417q0 -8 -4.5 -14t-11.5 -6h-132q-17 0 -17 14v695q0 16 10 25t26 9h94q30 0 44 -27l153 -285q7 -13 11 -13t11 13
l153 285q14 27 44 27h94q16 0 26 -9.5t10 -25.5v-694z" />
    <glyph glyph-name="N" unicode="N" horiz-adv-x="729" 
d="M659 38q0 -16 -11.5 -27t-27.5 -11h-98q-34 0 -52 31l-228 394q-5 8 -9 8q-5 0 -5 -8v-405q0 -8 -6 -14t-14 -6h-118q-8 0 -14 6t-6 14v685q0 16 11 27t27 11h101q24 0 42 -31l237 -412q5 -8 8 -8q5 0 5 9v423q0 8 6 13.5t14 5.5h118q8 0 14 -5.5t6 -13.5v-686z" />
    <glyph glyph-name="O" unicode="O" horiz-adv-x="698" 
d="M645 312q0 -165 -81.5 -243t-214.5 -78t-214.5 78t-81.5 243v119q0 165 81.5 243t214.5 78t214.5 -78t81.5 -243v-119zM473 312v119q0 89 -30 130t-94 41q-63 0 -93 -41t-30 -130v-119q0 -89 30 -130t93 -41q64 0 94 41t30 130z" />
    <glyph glyph-name="P" unicode="P" horiz-adv-x="651" 
d="M618 502q0 -67 -25 -116t-69 -75.5t-94 -38.5t-110 -12q-6 0 -81 3v-243q0 -8 -6 -14t-14 -6h-129q-8 0 -14 5.5t-6 13.5v672q0 24 10 34t35 14q83 13 203 13q61 0 111.5 -11.5t94.5 -38t69 -75t25 -116.5v-9zM448 502v9q0 52 -31.5 75.5t-96.5 23.5q-45 0 -81 -3v-204
q22 -2 81 -2q66 0 97 25t31 76z" />
    <glyph glyph-name="Q" unicode="Q" horiz-adv-x="698" 
d="M645 312q0 -138 -58 -215t-157 -98v-20q0 -25 25 -25h90q24 0 24 -16v-82q0 -16 -23 -22q-52 -13 -111 -13q-166 0 -166 157v21q-100 21 -158 98t-58 215v119q0 165 81.5 243t214.5 78t214.5 -78t81.5 -243v-119zM473 312v119q0 89 -30 130t-94 41q-63 0 -93 -41
t-30 -130v-119q0 -89 30 -130t93 -41q64 0 94 41t30 130z" />
    <glyph glyph-name="R" unicode="R" horiz-adv-x="680" 
d="M644 12q0 -12 -15 -12h-153q-10 0 -20 20l-134 253l-11 -1q-11 0 -36.5 1t-34.5 1v-254q0 -8 -6 -14t-14 -6h-130q-8 0 -14 6t-6 14v671q0 24 10 34t35 14q85 13 203 13q301 0 301 -234v-13q0 -76 -35.5 -126.5t-93.5 -73.5l151 -282q3 -6 3 -11zM449 505v13
q0 89 -131 89q-42 0 -78 -3v-192q22 -2 71 -2q78 0 108 21.5t30 73.5z" />
    <glyph glyph-name="S" unicode="S" horiz-adv-x="588" 
d="M546 210q0 -42 -14.5 -79.5t-45 -69.5t-85.5 -51t-128 -19q-103 0 -189 22q-20 6 -20 20v98q0 19 18 19h3q123 -12 190 -12q50 0 69.5 16.5t19.5 53.5q0 22 -13.5 37.5t-52.5 38.5l-138 82q-66 39 -92 85.5t-26 105.5q0 195 256 195q52 0 117 -7t95 -15q15 -4 15 -18
v-101q0 -17 -17 -17h-2q-154 11 -212 11q-42 0 -60 -12.5t-18 -40.5q0 -21 13 -34.5t54 -35.5l128 -69q74 -40 104.5 -89t30.5 -114z" />
    <glyph glyph-name="T" unicode="T" horiz-adv-x="587" 
d="M562 621q0 -8 -6.5 -13.5t-14.5 -5.5h-162v-582q0 -8 -6 -14t-14 -6h-131q-8 0 -14 6t-6 14v582h-163q-8 0 -14 5.5t-6 13.5v103q0 8 6 13.5t14 5.5h496q8 0 14.5 -5.5t6.5 -13.5v-103z" />
    <glyph glyph-name="U" unicode="U" horiz-adv-x="711" 
d="M644 279q0 -83 -22 -141t-63.5 -89t-90.5 -44.5t-113 -13.5t-113 13.5t-90 44.5t-63 89t-22 141v445q0 8 6 13.5t14 5.5h131q8 0 14 -5.5t6 -13.5v-445q0 -78 25.5 -111.5t91.5 -33.5t92 33.5t26 111.5v445q0 8 6 13.5t14 5.5h130q8 0 14.5 -5.5t6.5 -13.5v-445z" />
    <glyph glyph-name="V" unicode="V" horiz-adv-x="686" 
d="M658 727v-2q-1 -2 -1 -3l-149 -620q-16 -65 -59 -88t-106 -23t-106.5 23t-59.5 88l-149 620q0 1 -0.5 2.5t-0.5 2.5q0 16 18 16h139q16 0 20 -18l125 -577q3 -15 14 -15t14 15l125 577q4 18 19 18h140q17 0 17 -16z" />
    <glyph glyph-name="W" unicode="W" horiz-adv-x="889" 
d="M872 730v-2l-93 -655q-6 -42 -28 -59t-64 -17h-57q-75 0 -92 68l-79 299q-2 8 -9 8q-4 0 -5.5 -1t-2.5 -7l-79 -299q-17 -68 -92 -68h-57q-42 0 -64 17t-28 59l-93 655v2q0 13 16 13h136q14 0 16 -19l57 -536q1 -13 6 -13q4 0 7 13l72 275q13 48 62 48h99q49 0 62 -48
l72 -275q3 -13 7 -13q5 0 6 13l57 536q2 19 16 19h136q16 0 16 -13z" />
    <glyph glyph-name="X" unicode="X" horiz-adv-x="703" 
d="M671 10q0 -10 -13 -10h-159q-16 0 -26 15l-130 211l-117 -206q-12 -20 -25 -20h-148q-15 0 -15 13q0 3 2 7l209 361l-211 343q-2 4 -2 6q0 13 15 13h161q12 0 25 -19l124 -202l112 202q11 19 25 19h148q15 0 15 -13q0 -2 -2 -6l-206 -353l215 -351q3 -6 3 -10z" />
    <glyph glyph-name="Y" unicode="Y" horiz-adv-x="647" 
d="M626 728q0 -5 -1 -7l-151 -346q-27 -61 -65 -77v-278q0 -8 -6 -14t-14 -6h-131q-8 0 -14 6t-6 14v278q-40 17 -66 77l-151 346q-1 2 -1 7q0 15 16 15h144q14 0 20 -17l108 -282q6 -15 15 -15t15 15l108 282q6 17 20 17h144q16 0 16 -15z" />
    <glyph glyph-name="Z" unicode="Z" horiz-adv-x="615" 
d="M565 20q0 -8 -6 -14t-14 -6h-454q-41 0 -41 31v80q0 21 15 44l279 422q4 5 4 10q0 8 -11 8h-249q-8 0 -14 5.5t-6 13.5v110q0 8 6 13.5t14 5.5h431q40 0 40 -28q1 -10 1 -24l-1 -67q0 -13 -8 -26l-282 -432q-5 -7 -5 -11q0 -7 11 -7h270q20 0 20 -18v-110z" />
    <glyph glyph-name="bracketleft" unicode="[" horiz-adv-x="374" 
d="M344 -174q0 -8 -6 -14t-14 -6h-244q-7 0 -12 5.5t-5 13.5v899q0 8 5 13.5t12 5.5h243q8 0 14 -6t6 -14v-87q0 -8 -6 -14t-14 -6h-96v-683h97q8 0 14 -6t6 -14v-87z" />
    <glyph glyph-name="backslash" unicode="\" horiz-adv-x="405" 
d="M392 12q0 -7 -5.5 -12t-13.5 -5h-127q-13 0 -19 21l-213 707q0 1 -0.5 2t-0.5 2q0 7 5.5 11.5t13.5 4.5h126q16 0 21 -20l212 -707q0 -1 1 -4z" />
    <glyph glyph-name="bracketright" unicode="]" horiz-adv-x="374" 
d="M311 -175q0 -8 -5 -13.5t-12 -5.5h-244q-8 0 -14 6t-6 14v87q0 8 6 14t14 6h97v683h-96q-8 0 -14 6t-6 14v87q0 8 6 14t14 6h243q7 0 12 -5.5t5 -13.5v-899z" />
    <glyph glyph-name="asciicircum" unicode="^" 
d="M576 574q0 -9 -12 -9h-130q-17 0 -31 15l-80 89l-80 -89q-14 -15 -31 -15h-130q-12 0 -12 9q0 5 5 12l111 148q14 18 34 18h206q20 0 34 -18l111 -148q5 -7 5 -12z" />
    <glyph glyph-name="underscore" unicode="_" horiz-adv-x="541" 
d="M573 -103q0 -16 -20 -16h-564q-20 0 -20 16v48q0 16 20 16h564q20 0 20 -16v-48z" />
    <glyph glyph-name="grave" unicode="`" horiz-adv-x="443" 
d="M293 637q0 -7 -9 -7h-107q-12 0 -24 12l-122 122q-4 4 -4 8q0 7 11 7h132q15 0 27 -15l92 -117q4 -5 4 -10z" />
    <glyph glyph-name="a" unicode="a" horiz-adv-x="562" 
d="M502 20q0 -8 -6 -14t-14 -6h-112q-8 0 -14 6t-6 14v16q-63 -45 -139 -45q-74 0 -122.5 41t-48.5 131v9q0 88 59 128.5t187 40.5h54v36q0 40 -18.5 54.5t-56.5 14.5q-94 0 -166 -7h-5q-18 0 -18 18v81q0 17 19 22q86 21 173 21q234 0 234 -204v-357zM343 135v110h-57
q-50 0 -69 -17t-19 -56v-9q0 -30 14.5 -40t48.5 -10q38 0 82 22z" />
    <glyph glyph-name="b" unicode="b" horiz-adv-x="597" 
d="M555 247q0 -122 -65 -189t-186 -67q-107 0 -213 26q-19 4 -25 10t-6 19v701q0 8 6.5 14t14.5 6h121q8 0 14 -6t6 -14v-173q51 7 82 7q124 0 187.5 -67.5t63.5 -188.5v-78zM393 247v78q0 58 -19.5 90t-69.5 32q-42 0 -82 -5v-312q38 -6 82 -6q50 0 69.5 32t19.5 91z" />
    <glyph glyph-name="c" unicode="c" horiz-adv-x="474" 
d="M432 29q0 -11 -4.5 -15.5t-16.5 -7.5q-60 -15 -133 -15q-107 0 -170 66.5t-63 186.5v84q0 120 63 186.5t170 66.5q73 0 133 -15q12 -3 16.5 -7.5t4.5 -15.5v-89q0 -7 -5.5 -12t-13.5 -5h-2q-65 7 -122 7q-82 0 -82 -116v-84q0 -116 82 -116q57 0 122 7h2q8 0 13.5 -5
t5.5 -12v-89z" />
    <glyph glyph-name="d" unicode="d" horiz-adv-x="597" 
d="M537 46q0 -13 -6 -19t-25 -10q-106 -26 -213 -26q-121 0 -186 67t-65 189v78q0 121 63.5 188.5t187.5 67.5q31 0 82 -7v173q0 8 6 14t14 6h121q8 0 14.5 -6t6.5 -14v-701zM375 130v312q-40 5 -82 5q-50 0 -69.5 -32t-19.5 -90v-78q0 -59 19.5 -91t69.5 -32q44 0 82 6z
" />
    <glyph glyph-name="e" unicode="e" horiz-adv-x="590" 
d="M545 260q0 -24 -21 -24h-319v-2q0 -109 103 -109q102 0 192 9h3q19 0 19 -16v-76q0 -22 -21 -27q-96 -24 -205 -24q-48 0 -90.5 13.5t-80 42t-59 80.5t-21.5 121v70q0 122 67 192.5t186 70.5t183 -72.5t64 -190.5v-58zM387 336v4q0 55 -23.5 83t-66.5 28q-42 0 -67 -28.5
t-25 -82.5v-4h182z" />
    <glyph glyph-name="f" unicode="f" horiz-adv-x="424" 
d="M394 670q0 -17 -21 -17h-49q-22 0 -27.5 -8t-5.5 -39v-33h82q8 0 14 -6t6 -14v-81q0 -8 -6 -14t-14 -6h-82v-432q0 -8 -6 -14t-14 -6h-123q-8 0 -14 6t-6 14v432l-80 13q-21 4 -21 21v66q0 8 6.5 14.5t14.5 6.5h80v32q0 101 39.5 136t128.5 35q31 0 79 -8q19 -3 19 -20
v-78z" />
    <glyph glyph-name="g" unicode="g" horiz-adv-x="599" 
d="M577 490q0 -16 -18 -22l-31 -10q22 -33 22 -74v-8q0 -187 -247 -187q-67 0 -104 15q-14 -9 -14 -23q0 -12 6 -18t24 -10l113 -25q137 -30 185.5 -61t48.5 -100v-8q0 -163 -262 -163q-124 0 -189 42t-65 121v8q0 66 60 112q-25 14 -38 40t-13 53q0 50 44 85
q-46 40 -46 119v8q0 88 61.5 138.5t188.5 50.5h249q10 0 17.5 -7.5t7.5 -18.5v-57zM392 376v8q0 34 -19.5 53t-69.5 19q-91 0 -91 -72v-8q0 -70 91 -70q50 0 69.5 17.5t19.5 52.5zM397 -41v8q0 16 -20 27t-83 25l-74 16q-20 -28 -20 -68v-8q0 -27 22 -39t78 -12q57 0 77 13
t20 38z" />
    <glyph glyph-name="h" unicode="h" horiz-adv-x="612" 
d="M552 21q0 -8 -6.5 -14.5t-14.5 -6.5h-121q-8 0 -14 6.5t-6 14.5v333q0 54 -14.5 73.5t-59.5 19.5q-34 0 -94 -32v-394q0 -8 -6 -14.5t-14 -6.5h-121q-8 0 -14.5 6.5t-6.5 14.5v726q0 8 6 14t14 6h122q8 0 14 -6t6 -14v-211q70 45 153 45q53 0 89 -17t54.5 -50t26 -71
t7.5 -89v-333z" />
    <glyph glyph-name="i" unicode="i" horiz-adv-x="290" 
d="M230 658q0 -8 -6 -14t-14 -6h-130q-8 0 -14 6t-6 14v93q0 8 6 14t14 6h130q8 0 14 -6t6 -14v-93zM226 20q0 -8 -6 -14t-14 -6h-122q-8 0 -14 6t-6 14v533q0 8 6 14t14 6h122q8 0 14 -6t6 -14v-533z" />
    <glyph glyph-name="j" unicode="j" horiz-adv-x="290" 
d="M230 658q0 -8 -6.5 -14t-14.5 -6h-129q-8 0 -14 6t-6 14v93q0 8 6 14t14 6h129q8 0 14.5 -6t6.5 -14v-93zM226 -32q0 -95 -40 -133t-118 -38q-39 0 -80 7q-20 3 -20 20v79q0 18 21 18h44q20 0 25.5 10t5.5 37v584q0 8 5.5 14.5t13.5 6.5h124q8 0 13.5 -6.5t5.5 -14.5
v-584z" />
    <glyph glyph-name="k" unicode="k" horiz-adv-x="588" 
d="M558 562q0 -5 -4 -10l-186 -253l185 -278q2 -2 2 -8q0 -13 -13 -13h-151q-16 0 -25 14l-144 235v-228q0 -8 -6 -14.5t-14 -6.5h-121q-8 0 -14.5 6.5t-6.5 14.5v726q0 8 6.5 14t14.5 6h121q8 0 14 -6t6 -14v-418l152 229q10 15 26 15h143q15 0 15 -11z" />
    <glyph glyph-name="l" unicode="l" horiz-adv-x="282" 
d="M222 21q0 -8 -5.5 -14.5t-13.5 -6.5h-122q-8 0 -14.5 6.5t-6.5 14.5v726q0 8 6.5 14t14.5 6h122q8 0 13.5 -6t5.5 -14v-726z" />
    <glyph glyph-name="m" unicode="m" horiz-adv-x="875" 
d="M815 21q0 -8 -6.5 -14.5t-14.5 -6.5h-121q-8 0 -14 6.5t-6 14.5v341q0 48 -13 65.5t-48 17.5q-38 0 -77 -18q3 -30 3 -65v-341q0 -8 -6 -14.5t-14 -6.5h-121q-8 0 -14.5 6.5t-6.5 14.5v341q0 48 -12 65.5t-46 17.5q-26 0 -76 -26v-398q0 -8 -6 -14.5t-14 -6.5h-121
q-8 0 -14.5 6.5t-6.5 14.5v532q0 8 6 14t14 6h114q8 0 14 -6t6 -14v-22q75 50 148 50q78 0 118 -49q47 27 82 38t81 11q94 0 133 -56.5t39 -162.5v-341z" />
    <glyph glyph-name="n" unicode="n" horiz-adv-x="612" 
d="M552 21q0 -8 -6.5 -14.5t-14.5 -6.5h-121q-8 0 -14 6.5t-6 14.5v333q0 54 -14.5 73.5t-59.5 19.5q-34 0 -94 -32v-394q0 -8 -6 -14.5t-14 -6.5h-121q-8 0 -14.5 6.5t-6.5 14.5v532q0 8 6 14t14 6h112q8 0 14 -6t6 -14v-24q73 52 163 52q53 0 89 -17t54.5 -50t26 -71
t7.5 -89v-333z" />
    <glyph glyph-name="o" unicode="o" horiz-adv-x="589" 
d="M545 251q0 -121 -65 -190.5t-185 -69.5t-185.5 69.5t-65.5 190.5v70q0 121 65.5 190.5t185.5 69.5t185 -69.5t65 -190.5v-70zM384 251v70q0 122 -89 122q-90 0 -90 -122v-70q0 -123 90 -123q89 0 89 123z" />
    <glyph glyph-name="p" unicode="p" horiz-adv-x="597" 
d="M555 247q0 -121 -63.5 -188.5t-187.5 -67.5q-31 0 -82 7v-173q0 -8 -6 -14t-14 -6h-121q-8 0 -14.5 6t-6.5 14v701q0 13 6 19t25 10q106 26 213 26q121 0 186 -67t65 -189v-78zM393 247v78q0 59 -19.5 90.5t-69.5 31.5t-82 -5v-312q48 -6 82 -6q50 0 69.5 32.5t19.5 90.5
z" />
    <glyph glyph-name="q" unicode="q" horiz-adv-x="597" 
d="M537 -175q0 -8 -6.5 -14t-14.5 -6h-121q-8 0 -14 6t-6 14v173q-51 -7 -82 -7q-124 0 -187.5 67.5t-63.5 188.5v78q0 122 65 189t186 67q107 0 213 -26q19 -4 25 -10t6 -19v-701zM375 130v312q-32 5 -82 5t-69.5 -31.5t-19.5 -90.5v-78q0 -58 19.5 -90.5t69.5 -32.5
q34 0 82 6z" />
    <glyph glyph-name="r" unicode="r" horiz-adv-x="396" 
d="M374 466q0 -7 -4.5 -13t-10.5 -6h-8q-64 0 -129 -35v-391q0 -8 -6 -14.5t-14 -6.5h-121q-8 0 -14.5 6.5t-6.5 14.5v532q0 8 6 14t14 6h119q8 0 14 -6t6 -14v-20q57 48 135 48q8 0 14 -6t6 -14v-95z" />
    <glyph glyph-name="s" unicode="s" horiz-adv-x="503" 
d="M461 159q0 -74 -54.5 -121t-159.5 -47q-102 0 -182 22q-19 5 -19 23v81q0 19 19 19h4q108 -14 170 -14q34 0 46.5 9t12.5 30t-37 42l-130 75q-89 51 -89 148q0 155 205 155q88 0 178 -23q19 -5 19 -23v-81q0 -19 -17 -19h-3q-94 13 -166 13q-30 0 -41.5 -6t-11.5 -23
q0 -16 31 -35l124 -71q101 -58 101 -154z" />
    <glyph glyph-name="t" unicode="t" horiz-adv-x="421" 
d="M390 19q0 -17 -19 -20q-48 -8 -79 -8q-89 0 -128.5 35t-39.5 136v290l-80 13q-21 4 -21 21v66q0 8 6.5 14.5t14.5 6.5h80v82q0 16 20 20l122 21h3q18 0 18 -17v-106h82q8 0 14 -6t6 -14v-81q0 -8 -6 -14t-14 -6h-82v-291q0 -31 5.5 -39t27.5 -8h49q21 0 21 -17v-78z" />
    <glyph glyph-name="u" unicode="u" horiz-adv-x="612" 
d="M552 20q0 -8 -6 -14t-14 -6h-112q-8 0 -14 6t-6 14v24q-73 -52 -163 -52q-53 0 -89 17t-54.5 50t-26 71t-7.5 89v333q0 8 6.5 14.5t14.5 6.5h121q8 0 14 -6.5t6 -14.5v-333q0 -54 14.5 -73.5t59.5 -19.5q34 0 94 32v394q0 8 6 14.5t14 6.5h121q8 0 14.5 -6.5t6.5 -14.5
v-532z" />
    <glyph glyph-name="v" unicode="v" horiz-adv-x="585" 
d="M564 556q0 -4 -1 -6l-126 -454q-29 -105 -145 -105q-115 0 -144 105l-125 454q-1 2 -1 6q0 17 16 17h132q16 0 21 -21l86 -392q4 -21 15 -21q12 0 16 21l86 392q5 21 21 21h132q7 0 12 -5t5 -12z" />
    <glyph glyph-name="w" unicode="w" horiz-adv-x="845" 
d="M816 556v-4l-89 -482q-8 -40 -30.5 -55t-57.5 -15h-61q-67 0 -84 64l-67 261q-1 5 -5 5t-5 -5l-67 -261q-17 -64 -84 -64h-61q-35 0 -57.5 15t-30.5 55l-89 482v4q0 17 15 17h121q19 0 21 -17l59 -380q2 -13 6 -13q5 0 8 13l67 264q7 26 19 35.5t37 9.5h82q25 0 37 -9.5
t19 -35.5l67 -264q3 -13 8 -13q4 0 6 13l59 380q2 17 21 17h121q15 0 15 -17z" />
    <glyph glyph-name="x" unicode="x" horiz-adv-x="617" 
d="M585 14q0 -5 -4 -9.5t-10 -4.5h-151q-13 0 -26 21l-99 155l-93 -156q-12 -20 -26 -20h-134q-11 0 -11 12q0 5 2 8l175 278l-170 254q-2 4 -2 6q0 6 4.5 10.5t10.5 4.5h149q11 0 26 -21l89 -138l82 138q13 21 26 21h134q12 0 12 -13q0 -5 -2 -8l-165 -262l181 -269
q2 -4 2 -7z" />
    <glyph glyph-name="y" unicode="y" horiz-adv-x="592" 
d="M570 555q0 -1 -0.5 -2.5t-0.5 -2.5l-168 -589q-25 -88 -70 -125.5t-149 -37.5q-71 0 -121 16q-21 8 -21 18v81q0 8 6 13.5t14 5.5h2l52 -4q53 -4 73 -4q28 0 42.5 11.5t23.5 40.5l9 31h-15q-16 0 -27 2.5t-23.5 11t-23 28.5t-19.5 51l-132 450q-1 3 -1 7q0 16 20 16h133
q15 0 19 -19l90 -376q4 -19 12 -19h1h4h4l93 395q4 19 21 19h133q8 0 13.5 -5.5t5.5 -12.5z" />
    <glyph glyph-name="z" unicode="z" horiz-adv-x="515" 
d="M472 20q0 -8 -6 -14t-14 -6h-375q-14 0 -24 10t-10 23v64q0 18 14 38l217 296q3 5 3 7q0 5 -7 5h-201q-17 0 -17 16v94q0 8 6 14t14 6h365q13 0 23 -10t10 -24v-74q0 -19 -11 -35l-207 -283q-3 -5 -3 -7q0 -4 7 -4h198q18 0 18 -16v-100z" />
    <glyph glyph-name="braceleft" unicode="{" horiz-adv-x="407" 
d="M377 -174q0 -8 -6 -14t-14 -6h-58q-113 0 -157.5 39.5t-44.5 145.5v131q0 66 -57 103v95q56 36 56 103v135q0 106 44.5 145.5t157.5 39.5h58q8 0 14 -6t6 -14v-87q0 -8 -6 -14t-14 -6h-58q-24 0 -31 -10.5t-7 -47.5v-135q0 -107 -83 -150q83 -43 83 -151v-131
q0 -36 7.5 -47t31.5 -11h58q8 0 14 -6t6 -14v-87z" />
    <glyph glyph-name="bar" unicode="|" horiz-adv-x="290" 
d="M227 -173q0 -8 -6 -14.5t-14 -6.5h-123q-8 0 -14.5 6.5t-6.5 14.5v896q0 8 6.5 14t14.5 6h123q8 0 14 -6t6 -14v-896z" />
    <glyph glyph-name="braceright" unicode="}" horiz-adv-x="407" 
d="M367 225q-57 -37 -57 -103v-131q0 -106 -44.5 -145.5t-157.5 -39.5h-58q-8 0 -14 6t-6 14v87q0 8 6 14t14 6h58q24 0 31.5 11t7.5 47v131q0 108 83 151q-83 43 -83 150v135q0 37 -7 47.5t-31 10.5h-58q-8 0 -14 6t-6 14v87q0 8 6 14t14 6h58q113 0 157.5 -39.5
t44.5 -145.5v-135q0 -67 56 -103v-95z" />
    <glyph glyph-name="asciitilde" unicode="~" 
d="M576 480q0 -78 -35 -114.5t-108 -36.5q-43 0 -91 29l-71 43q-21 13 -43 13q-31 0 -31 -40v-18q0 -20 -18 -20h-89q-20 0 -20 20v18q0 86 37 122t106 36q46 0 73 -17l90 -54q23 -14 43 -14q16 0 22.5 7t6.5 26v25q0 20 19 20h89q20 0 20 -20v-25z" />
    <glyph glyph-name="uni00A0" unicode="&#xa0;" horiz-adv-x="260" 
 />
    <glyph glyph-name="exclamdown" unicode="&#xa1;" horiz-adv-x="273" 
d="M215 427q0 -8 -6 -13.5t-14 -5.5h-118q-19 0 -19 19v126q0 8 5.5 14t13.5 6h118q8 0 14 -6t6 -14v-126zM220 -175q0 -7 -7 -13t-15 -6h-125q-8 0 -14 5.5t-6 13.5v1l20 499q2 21 20 21h85q8 0 15 -6.5t7 -14.5l20 -499v-1z" />
    <glyph glyph-name="cent" unicode="&#xa2;" 
d="M516 29q0 -11 -4.5 -15.5t-16.5 -7.5q-34 -9 -79 -13v-73q0 -8 -6 -14t-14 -6h-101q-8 0 -14 6t-6 14v84q-69 24 -107.5 85.5t-38.5 154.5v84q0 93 38.5 154.5t107.5 85.5v82q0 8 6 14t14 6h101q8 0 14 -6t6 -14v-71q45 -4 79 -13q12 -3 16.5 -7.5t4.5 -15.5v-89
q0 -7 -5.5 -12t-13.5 -5h-2q-65 7 -122 7q-82 0 -82 -116v-84q0 -116 82 -116q57 0 122 7h2q8 0 13.5 -5t5.5 -12v-89z" />
    <glyph glyph-name="sterling" unicode="&#xa3;" 
d="M577 614q0 -18 -16 -18h-3q-101 12 -165 12q-51 0 -71 -16t-20 -63v-84h169q8 0 14 -5.5t6 -13.5v-97q0 -19 -19 -19h-170v-100q0 -41 -20 -76h274q20 0 20 -18v-97q0 -8 -6 -13.5t-14 -5.5h-442q-19 0 -19 24v70q0 10 9 24q33 42 33 92v100h-50q-19 0 -19 19v97
q0 8 6 13.5t14 5.5h49v83q0 118 59 171t197 53q81 0 165 -19q13 -3 16 -7t3 -13v-99z" />
    <glyph glyph-name="currency" unicode="&#xa4;" 
d="M583 557q0 -8 -7 -15l-86 -85q23 -41 23 -86q0 -48 -24 -90l84 -84q7 -7 7 -15q0 -6 -5 -11l-57 -57q-5 -5 -11 -5q-8 0 -15 7l-86 87q-38 -21 -82 -21q-46 0 -86 22l-85 -85q-8 -8 -16 -8q-5 0 -10 5l-57 57q-5 5 -5 12q0 8 7 15l85 84q-23 41 -23 87t20 82l-85 86
q-7 7 -7 15q0 6 5 11l57 57q5 5 11 5q8 0 15 -7l83 -83q40 23 91 23q46 0 86 -22l85 85q7 7 15 7q6 0 11 -5l57 -57q5 -5 5 -11zM410 374q0 34 -24.5 58.5t-59.5 24.5t-60 -24.5t-25 -58.5t25 -59t60 -25q34 0 59 25t25 59z" />
    <glyph glyph-name="yen" unicode="&#xa5;" 
d="M623 730q0 -6 -2 -9l-111 -224h87q8 0 14 -5.5t6 -13.5v-74q0 -19 -19 -19h-142l-46 -92l-2 -11h189q20 0 20 -18v-75q0 -18 -19 -18h-190v-151q0 -8 -6 -14t-14 -6h-133q-8 0 -13.5 6t-5.5 14v151h-189q-20 0 -20 18v75q0 18 20 18h189l-1 11l-45 92h-143q-8 0 -14 5.5
t-6 13.5v74q0 8 6 13.5t14 5.5h88l-111 224q-2 3 -2 9q0 13 15 13h147q11 0 19 -17l119 -270l120 270q8 17 19 17h147q15 0 15 -13z" />
    <glyph glyph-name="brokenbar" unicode="&#xa6;" horiz-adv-x="290" 
d="M227 363q0 -8 -6 -14.5t-14 -6.5h-123q-8 0 -14.5 6.5t-6.5 14.5v345q0 8 6.5 14t14.5 6h123q8 0 14 -6t6 -14v-345zM227 -190q0 -8 -6 -14.5t-14 -6.5h-123q-8 0 -14.5 6.5t-6.5 14.5v345q0 8 6.5 14t14.5 6h123q8 0 14 -6t6 -14v-345z" />
    <glyph glyph-name="section" unicode="&#xa7;" horiz-adv-x="589" 
d="M549 1q0 -41 -14.5 -78t-44.5 -69t-85 -51t-128 -19q-109 0 -195 22q-20 6 -20 20v101q0 7 6 13t14 6h2q147 -14 187 -14h6q52 1 73 16.5t21 52.5q0 21 -15 37t-56 38l-133 73q-74 40 -100.5 87t-26.5 118q0 20 9 52t21 51q-29 34 -29 95q0 200 255 200q52 0 117 -7
t95 -15q20 -6 20 -19v-102q0 -14 -13 -14h-1q-142 8 -218 8q-47 0 -65 -10t-18 -41q0 -18 15.5 -33t56.5 -37l128 -69q75 -40 105.5 -88t30.5 -112q0 -56 -26 -106q26 -42 26 -106zM407 220q0 32 -19 52.5t-77 52.5l-72 39q-38 21 -49 31q-17 -17 -17 -51q0 -29 15.5 -46.5
t70.5 -46.5l70 -37q31 -16 66 -44q12 21 12 50z" />
    <glyph glyph-name="dieresis" unicode="&#xa8;" horiz-adv-x="443" 
d="M399 658q0 -8 -7 -14t-15 -6h-94q-8 0 -14.5 6t-6.5 14v93q0 8 6.5 14t14.5 6h94q8 0 15 -6t7 -14v-93zM182 658q0 -8 -6.5 -14t-14.5 -6h-94q-8 0 -15 6t-7 14v93q0 8 7 14t15 6h94q8 0 14.5 -6t6.5 -14v-93z" />
    <glyph glyph-name="copyright" unicode="&#xa9;" horiz-adv-x="750" 
d="M708 374q0 -138 -98 -235t-236 -97t-235 97t-97 235t97 236.5t235 98.5t236 -98.5t98 -236.5zM656 374q0 116 -83 199.5t-199 83.5t-198.5 -83.5t-82.5 -199.5t82.5 -198t198.5 -82t199 82t83 198zM477 183q0 -11 -13 -14q-31 -9 -82 -9q-82 0 -126 47t-44 142v56
q0 189 170 189q42 0 82 -10q13 -3 13 -12v-63q0 -12 -12 -12h-2q-38 5 -81 5q-67 0 -67 -97v-56q0 -98 67 -98q43 0 81 5h3q11 0 11 -11v-62z" />
    <glyph glyph-name="ordfeminine" unicode="&#xaa;" horiz-adv-x="357" 
d="M320 418q0 -14 -8 -16q-60 -16 -128 -16q-77 0 -114 27t-37 84v7q0 99 159 99h22v13q0 27 -8.5 36t-33.5 9q-50 0 -100 -5h-1q-13 0 -13 14v50q0 12 14 15q50 15 100 15q71 0 109.5 -30.5t38.5 -103.5v-198zM214 464v80h-22q-58 0 -58 -40v-7q0 -20 12 -28t38 -8
q6 0 30 3z" />
    <glyph glyph-name="guillemotleft" unicode="&#xab;" horiz-adv-x="718" 
d="M685 74q0 -11 -14 -11h-122q-18 0 -29 12l-160 185q-10 11 -10 26t10 26l160 185q11 12 29 12h122q14 0 14 -11q0 -3 -4 -9l-176 -203l176 -203q4 -6 4 -9zM380 74q0 -11 -14 -11h-121q-19 0 -30 12l-160 185q-10 11 -10 26t10 26l160 185q11 12 30 12h121q14 0 14 -11
q0 -3 -4 -9l-176 -203l176 -203q4 -6 4 -9z" />
    <glyph glyph-name="logicalnot" unicode="&#xac;" 
d="M552 198q0 -8 -5.5 -14t-13.5 -6h-85q-18 0 -18 20v261h-317q-20 0 -20 16v89q0 16 20 16h420q19 0 19 -16v-366z" />
    <glyph glyph-name="uni00AD" unicode="&#xad;" horiz-adv-x="302" 
d="M268 264q0 -18 -20 -18h-194q-20 0 -20 18v80q0 8 6 13.5t14 5.5h194q8 0 14 -5.5t6 -13.5v-80z" />
    <glyph glyph-name="registered" unicode="&#xae;" horiz-adv-x="598" 
d="M579 484q0 -115 -82 -197t-198 -82q-115 0 -197 81.5t-82 197.5t82 197.5t197 81.5q116 0 198 -82t82 -197zM528 484q0 94 -67 161.5t-162 67.5q-94 0 -161 -67t-67 -162t67 -162t161 -67q95 0 162 67.5t67 161.5zM437 330q0 -10 -10 -10h-67q-6 0 -10 8l-63 111
q-1 0 -4 3t-4 3h-26v-114q0 -11 -11 -11h-60q-11 0 -11 11v294q0 16 5.5 22t19.5 8q37 5 89 5q69 0 104.5 -25t35.5 -83v-7q0 -63 -59 -87l69 -121q2 -4 2 -7zM346 545v7q0 39 -54 39h-41v-85q3 0 21 -0.5t20 -0.5q54 0 54 40z" />
    <glyph glyph-name="macron" unicode="&#xaf;" horiz-adv-x="443" 
d="M404 672q0 -8 -6 -13.5t-14 -5.5h-324q-8 0 -14 5.5t-6 13.5v72q0 8 6 13.5t14 5.5h324q8 0 14 -5.5t6 -13.5v-72z" />
    <glyph glyph-name="degree" unicode="&#xb0;" horiz-adv-x="361" 
d="M334 598q0 -64 -44.5 -109t-108.5 -45q-63 0 -108.5 45t-45.5 109t45.5 109t108.5 45q64 0 108.5 -45t44.5 -109zM253 598q0 30 -21.5 51.5t-50.5 21.5t-50.5 -21.5t-21.5 -51.5q0 -29 21 -50.5t51 -21.5t51 21.5t21 50.5z" />
    <glyph glyph-name="plusminus" unicode="&#xb1;" 
d="M558 346q0 -16 -20 -16h-155v-154q0 -20 -16 -20h-90q-16 0 -16 20v154h-154q-20 0 -20 16v90q0 16 20 16h154v155q0 20 16 20h90q16 0 16 -20v-155h155q20 0 20 -16v-90zM558 -4q0 -16 -20 -16h-431q-20 0 -20 16v71q0 16 20 16h431q20 0 20 -16v-71z" />
    <glyph glyph-name="two.superior" unicode="&#xb2;" horiz-adv-x="355" 
d="M114 549l50 36q5 4 13 9.5t11 8t8.5 6t7 5.5t4.5 5t4 5t2 5t1.5 6t0.5 7q0 15 -11 20.5t-40 5.5q-47 0 -106 -7q-7 0 -12 5t-5 12v42q0 11 14 17q59 17 117 17q76 0 110.5 -27t34.5 -82q0 -61 -66 -107l-45 -31q-42 -28 -58.5 -44.5t-17.5 -39.5h165q17 0 17 -15v-56
q0 -7 -5 -12t-12 -5h-241q-7 0 -12 5t-5 12v55q0 87 76 142z" />
    <glyph glyph-name="three.superior" unicode="&#xb3;" horiz-adv-x="355" 
d="M315 456q0 -64 -39 -95t-108 -31q-60 0 -114 15q-15 6 -15 17v43q0 16 17 16q63 -5 108 -5q26 0 36.5 9.5t10.5 30.5v10q0 40 -37 40h-95q-16 0 -16 17v46q0 16 16 16h93q39 0 39 41v8q0 34 -47 34q-55 0 -97 -6q-26 -4 -26 15v43q0 11 15 17q60 17 112 17
q147 0 147 -117v-8q0 -23 -12 -46t-31 -37q43 -26 43 -80v-10z" />
    <glyph glyph-name="acute" unicode="&#xb4;" horiz-adv-x="443" 
d="M416 772q0 -4 -4 -8l-122 -122q-12 -12 -24 -12h-107q-9 0 -9 7q0 5 4 10l93 117q12 15 27 15h131q11 0 11 -7z" />
    <glyph glyph-name="mu" unicode="&#xb5;" horiz-adv-x="612" 
d="M552 49q0 -21 -31 -31q-81 -27 -211 -27q-50 0 -89 9v-171q0 -8 -6 -14t-14 -6h-122q-8 0 -14 6t-6 14v722q0 8 6.5 15t14.5 7h121q8 0 14.5 -7t6.5 -15v-332q0 -51 20.5 -73t67.5 -22q52 0 80 7v420q0 8 6 15t14 7h121q8 0 14.5 -7t6.5 -15v-502z" />
    <glyph glyph-name="paragraph" unicode="&#xb6;" horiz-adv-x="659" 
d="M602 -176q0 -8 -5 -13.5t-12 -5.5h-43q-7 0 -12 5.5t-5 13.5v843h-63v-843q0 -8 -5 -13.5t-12 -5.5h-43q-7 0 -12 5.5t-5 13.5v418h-96q-107 0 -175.5 59t-68.5 164v55q0 105 68.5 164t175.5 59h297q16 0 16 -19v-900z" />
    <glyph glyph-name="periodcentered" unicode="&#xb7;" horiz-adv-x="274" 
d="M216 319q0 -8 -6 -14t-14 -6h-117q-8 0 -14.5 6t-6.5 14v126q0 8 6.5 13.5t14.5 5.5h117q8 0 14 -5.5t6 -13.5v-126z" />
    <glyph glyph-name="cedilla" unicode="&#xb8;" horiz-adv-x="426" 
d="M324 -45q0 -4 -4 -8l-127 -130q-12 -12 -24 -12h-107q-9 0 -9 7q0 5 4 10l97 125q12 15 27 15h132q11 0 11 -7z" />
    <glyph glyph-name="one.superior" unicode="&#xb9;" horiz-adv-x="241" 
d="M26 706l88 40q6 3 14 3h49q15 0 15 -17v-380q0 -17 -15 -17h-71q-17 0 -17 17v290l-53 -23q-20 -7 -20 12v62q0 9 10 13z" />
    <glyph glyph-name="ordmasculine" unicode="&#xba;" horiz-adv-x="380" 
d="M347 551q0 -82 -40.5 -123.5t-115.5 -41.5t-116 41.5t-41 123.5v33q0 82 41 124t116 42t115.5 -42t40.5 -124v-33zM240 551v33q0 41 -11.5 58.5t-37.5 17.5q-51 0 -51 -76v-33q0 -76 51 -76q26 0 37.5 17.5t11.5 58.5z" />
    <glyph glyph-name="guillemotright" unicode="&#xbb;" horiz-adv-x="718" 
d="M683 286q0 -13 -11 -26l-160 -185q-11 -12 -29 -12h-121q-14 0 -14 11q0 3 4 9l176 203l-176 203q-4 6 -4 9q0 11 14 11h121q18 0 29 -12l160 -185q11 -13 11 -26zM378 286q0 -15 -10 -26l-160 -185q-11 -12 -30 -12h-121q-14 0 -14 11q0 3 4 9l176 203l-176 203
q-4 6 -4 9q0 11 14 11h121q19 0 30 -12l160 -185q10 -11 10 -26z" />
    <glyph glyph-name="onequarter" unicode="&#xbc;" horiz-adv-x="772" 
d="M40 706l88 40q6 3 14 3h49q15 0 15 -17v-380q0 -17 -15 -17h-71q-17 0 -17 17v290l-53 -23q-20 -7 -20 12v62q0 9 10 13zM636 735q0 -7 -4 -12l-416 -702q-12 -21 -23 -21h-103q-11 0 -11 11q0 4 3 10l416 702q12 20 25 20h103q10 0 10 -8zM742 107q0 -7 -5 -12t-11 -5
h-30v-73q0 -17 -16 -17h-72q-16 0 -16 17v73h-151q-6 0 -11 5t-5 12v52q0 11 7 21l171 224q8 10 18 10h58q7 0 12 -5t5 -12v-224h30q16 0 16 -17v-49zM595 173v103l-76 -103h76z" />
    <glyph glyph-name="onehalf" unicode="&#xbd;" horiz-adv-x="804" 
d="M40 706l88 40q6 3 14 3h49q15 0 15 -17v-380q0 -17 -15 -17h-71q-17 0 -17 17v290l-53 -23q-20 -7 -20 12v62q0 9 10 13zM636 735q0 -7 -4 -12l-416 -702q-12 -21 -23 -21h-103q-11 0 -11 11q0 4 3 10l416 702q12 20 25 20h103q10 0 10 -8zM570 214l50 36q5 4 13 9.5
t11 8t8.5 6t7 5.5t4.5 5t4 5t2 5t1.5 6t0.5 7q0 15 -11 20.5t-40 5.5q-47 0 -106 -7q-7 0 -12 5t-5 12v42q0 11 14 17q59 17 117 17q76 0 110.5 -27t34.5 -82q0 -61 -66 -107l-45 -31q-42 -28 -58.5 -44.5t-17.5 -39.5h165q17 0 17 -15v-56q0 -7 -5 -12t-12 -5h-241
q-7 0 -12 5t-5 12v55q0 87 76 142z" />
    <glyph glyph-name="threequarters" unicode="&#xbe;" horiz-adv-x="835" 
d="M699 735q0 -7 -4 -12l-416 -702q-12 -21 -23 -21h-103q-11 0 -11 11q0 4 3 10l416 702q12 20 25 20h103q10 0 10 -8zM805 107q0 -7 -5 -12t-11 -5h-30v-73q0 -17 -16 -17h-72q-16 0 -16 17v73h-151q-6 0 -11 5t-5 12v52q0 11 7 21l171 224q8 10 18 10h58q7 0 12 -5t5 -12
v-224h30q16 0 16 -17v-49zM658 173v103l-76 -103h76zM306 456q0 -64 -39 -95t-108 -31q-60 0 -114 15q-15 6 -15 17v43q0 16 17 16q63 -5 108 -5q26 0 36.5 9.5t10.5 30.5v10q0 40 -37 40h-95q-16 0 -16 17v46q0 16 16 16h93q39 0 39 41v8q0 34 -47 34q-55 0 -97 -6
q-26 -4 -26 15v43q0 11 15 17q60 17 112 17q147 0 147 -117v-8q0 -23 -12 -46t-31 -37q43 -26 43 -80v-10z" />
    <glyph glyph-name="questiondown" unicode="&#xbf;" horiz-adv-x="479" 
d="M375 428q0 -8 -6 -14t-14 -6h-118q-8 0 -14 6t-6 14v126q0 8 6 13.5t14 5.5h118q8 0 14 -5.5t6 -13.5v-126zM445 -143q0 -21 -18 -26q-69 -21 -160 -21q-109 0 -164 38t-55 128v17q0 33 17 67.5t60 89.5l45 58l12 15q40 52 43 66l1 10v28q0 8 7.5 13.5t16.5 5.5h100
q8 0 13.5 -6t5.5 -14v-27q0 -43 -7.5 -70t-34.5 -62l-48 -63q-46 -61 -46 -101v-10q0 -37 49 -37q55 0 143 11h3q17 0 17 -21v-89z" />
    <glyph glyph-name="Agrave" unicode="&#xc0;" horiz-adv-x="669" 
d="M650 16q0 -16 -17 -16h-140q-16 0 -20 18l-36 164h-205l-36 -164q-4 -18 -20 -18h-140q-17 0 -17 16l1 2v3l149 620q16 65 59.5 88t106.5 23t106 -23t59 -88l149 -620q0 -1 1 -3v-2zM409 319l-61 276q-3 15 -13 15q-11 0 -14 -15l-61 -276h149zM453 801q0 -7 -9 -7h-107
q-12 0 -24 12l-122 122q-4 4 -4 8q0 7 11 7h132q15 0 27 -15l92 -117q4 -5 4 -10z" />
    <glyph glyph-name="Aacute" unicode="&#xc1;" horiz-adv-x="669" 
d="M650 16q0 -16 -17 -16h-140q-16 0 -20 18l-36 164h-205l-36 -164q-4 -18 -20 -18h-140q-17 0 -17 16l1 2v3l149 620q16 65 59.5 88t106.5 23t106 -23t59 -88l149 -620q0 -1 1 -3v-2zM409 319l-61 276q-3 15 -13 15q-11 0 -14 -15l-61 -276h149zM497 936q0 -4 -4 -8
l-122 -122q-12 -12 -24 -12h-107q-9 0 -9 7q0 5 4 10l93 117q12 15 27 15h131q11 0 11 -7z" />
    <glyph glyph-name="Acircumflex" unicode="&#xc2;" horiz-adv-x="669" 
d="M650 16q0 -16 -17 -16h-140q-16 0 -20 18l-36 164h-205l-36 -164q-4 -18 -20 -18h-140q-17 0 -17 16l1 2v3l149 620q16 65 59.5 88t106.5 23t106 -23t59 -88l149 -620q0 -1 1 -3v-2zM409 319l-61 276q-3 15 -13 15q-11 0 -14 -15l-61 -276h149zM534 802q0 -7 -9 -7h-103
q-13 0 -24 12l-63 70l-64 -70q-11 -12 -24 -12h-103q-9 0 -9 7q0 5 4 10l89 117q12 15 27 15h160q16 0 27 -15l88 -117q4 -5 4 -10z" />
    <glyph glyph-name="Atilde" unicode="&#xc3;" horiz-adv-x="669" 
d="M650 16q0 -16 -17 -16h-140q-16 0 -20 18l-36 164h-205l-36 -164q-4 -18 -20 -18h-140q-17 0 -17 16l1 2v3l149 620q16 65 59.5 88t106.5 23t106 -23t59 -88l149 -620q0 -1 1 -3v-2zM409 319l-61 276q-3 15 -13 15q-11 0 -14 -15l-61 -276h149zM535 907q0 -120 -122 -120
q-38 0 -71 22l-42 29q-26 18 -41 18q-23 0 -23 -27v-19q0 -17 -15 -17h-71q-15 0 -15 17v19q0 119 123 119q38 0 70 -21l43 -28q28 -18 40 -18q23 0 23 27v19q0 16 16 16h70q15 0 15 -16v-20z" />
    <glyph glyph-name="Adieresis" unicode="&#xc4;" horiz-adv-x="669" 
d="M650 16q0 -16 -17 -16h-140q-16 0 -20 18l-36 164h-205l-36 -164q-4 -18 -20 -18h-140q-17 0 -17 16l1 2v3l149 620q16 65 59.5 88t106.5 23t106 -23t59 -88l149 -620q0 -1 1 -3v-2zM409 319l-61 276q-3 15 -13 15q-11 0 -14 -15l-61 -276h149zM511 821q0 -8 -7 -14
t-15 -6h-94q-8 0 -14.5 6t-6.5 14v93q0 8 6.5 14t14.5 6h94q8 0 15 -6t7 -14v-93zM294 821q0 -8 -6.5 -14t-14.5 -6h-94q-8 0 -15 6t-7 14v93q0 8 7 14t15 6h94q8 0 14.5 -6t6.5 -14v-93z" />
    <glyph glyph-name="Aring" unicode="&#xc5;" horiz-adv-x="669" 
d="M650 16q0 -16 -17 -16h-140q-16 0 -20 18l-36 164h-205l-36 -164q-4 -18 -20 -18h-140q-17 0 -17 16l1 2v3l149 620q16 65 59.5 88t106.5 23t106 -23t59 -88l149 -620q0 -1 1 -3v-2zM409 319l-61 276q-3 15 -13 15q-11 0 -14 -15l-61 -276h149zM451 895q0 -49 -34 -83
t-83 -34t-83 34t-34 83t34 83t83 34t83 -34t34 -83zM378 895q0 18 -13 31t-31 13t-31 -13t-13 -31t13 -31t31 -13t31 13t13 31z" />
    <glyph glyph-name="AE" unicode="&#xc6;" horiz-adv-x="923" 
d="M867 25q0 -18 -20 -21q-91 -13 -169 -13q-51 0 -89 7.5t-73.5 27t-55.5 59t-24 97.5h-204l-36 -164q-4 -18 -20 -18h-140q-17 0 -17 16l1 2v3l149 620q8 34 25 56t42 31.5t46 12t53 2.5h512q20 0 20 -20v-97q0 -8 -6 -14t-14 -6h-242v-159h234q8 0 14 -6t6 -14v-95
q0 -8 -6 -14t-14 -6h-234v-106q0 -39 14 -53.5t50 -14.5h178q8 0 14 -6t6 -14v-93zM435 319v291h-100q-11 0 -14 -15l-61 -276h175z" />
    <glyph glyph-name="Ccedilla" unicode="&#xc7;" horiz-adv-x="561" 
d="M520 31q0 -17 -22 -23q-51 -17 -149 -17q-60 0 -111 17t-93.5 52.5t-67 99t-24.5 149.5v126q0 86 24.5 149.5t67 99t93.5 52t111 16.5q98 0 149 -17q22 -6 22 -22v-97q0 -20 -19 -20h-3q-101 8 -148 8q-124 0 -124 -169v-126q0 -169 124 -169q47 0 148 8h3q19 0 19 -20
v-97zM430 -42q0 -4 -4 -8l-123 -122q-12 -12 -24 -12h-107q-9 0 -9 7q0 5 4 10l93 117q12 15 27 15h132q11 0 11 -7z" />
    <glyph glyph-name="Egrave" unicode="&#xc8;" horiz-adv-x="580" 
d="M524 25q0 -18 -20 -21q-91 -13 -194 -13q-54 0 -93.5 8.5t-75.5 30.5t-55 66t-19 110v332q0 66 19 110t55.5 65.5t76 30t93.5 8.5q102 0 193 -13q20 -3 20 -20v-93q0 -8 -6 -14t-14 -6h-203q-36 0 -50 -14.5t-14 -53.5v-91h259q8 0 14 -6t6 -14v-95q0 -8 -6 -14t-14 -6
h-259v-106q0 -39 14 -53.5t50 -14.5h203q8 0 14 -6t6 -14v-93zM394 802q0 -7 -9 -7h-107q-12 0 -24 12l-122 122q-4 4 -4 8q0 7 11 7h132q15 0 27 -15l92 -117q4 -5 4 -10z" />
    <glyph glyph-name="Eacute" unicode="&#xc9;" horiz-adv-x="580" 
d="M524 25q0 -18 -20 -21q-91 -13 -194 -13q-54 0 -93.5 8.5t-75.5 30.5t-55 66t-19 110v332q0 66 19 110t55.5 65.5t76 30t93.5 8.5q102 0 193 -13q20 -3 20 -20v-93q0 -8 -6 -14t-14 -6h-203q-36 0 -50 -14.5t-14 -53.5v-91h259q8 0 14 -6t6 -14v-95q0 -8 -6 -14t-14 -6
h-259v-106q0 -39 14 -53.5t50 -14.5h203q8 0 14 -6t6 -14v-93zM477 937q0 -4 -4 -8l-122 -122q-12 -12 -24 -12h-107q-9 0 -9 7q0 5 4 10l93 117q12 15 27 15h131q11 0 11 -7z" />
    <glyph glyph-name="Ecircumflex" unicode="&#xca;" horiz-adv-x="580" 
d="M524 25q0 -18 -20 -21q-91 -13 -194 -13q-54 0 -93.5 8.5t-75.5 30.5t-55 66t-19 110v332q0 66 19 110t55.5 65.5t76 30t93.5 8.5q102 0 193 -13q20 -3 20 -20v-93q0 -8 -6 -14t-14 -6h-203q-36 0 -50 -14.5t-14 -53.5v-91h259q8 0 14 -6t6 -14v-95q0 -8 -6 -14t-14 -6
h-259v-106q0 -39 14 -53.5t50 -14.5h203q8 0 14 -6t6 -14v-93zM509 802q0 -7 -9 -7h-103q-13 0 -24 12l-63 70l-64 -70q-11 -12 -24 -12h-103q-9 0 -9 7q0 5 4 10l89 117q12 15 27 15h160q16 0 27 -15l88 -117q4 -5 4 -10z" />
    <glyph glyph-name="Edieresis" unicode="&#xcb;" horiz-adv-x="580" 
d="M524 25q0 -18 -20 -21q-91 -13 -194 -13q-54 0 -93.5 8.5t-75.5 30.5t-55 66t-19 110v332q0 66 19 110t55.5 65.5t76 30t93.5 8.5q102 0 193 -13q20 -3 20 -20v-93q0 -8 -6 -14t-14 -6h-203q-36 0 -50 -14.5t-14 -53.5v-91h259q8 0 14 -6t6 -14v-95q0 -8 -6 -14t-14 -6
h-259v-106q0 -39 14 -53.5t50 -14.5h203q8 0 14 -6t6 -14v-93zM470 821q0 -8 -7 -14t-15 -6h-94q-8 0 -14.5 6t-6.5 14v93q0 8 6.5 14t14.5 6h94q8 0 15 -6t7 -14v-93zM253 821q0 -8 -6.5 -14t-14.5 -6h-94q-8 0 -15 6t-7 14v93q0 8 7 14t15 6h94q8 0 14.5 -6t6.5 -14v-93z
" />
    <glyph glyph-name="Igrave" unicode="&#xcc;" horiz-adv-x="311" 
d="M241 20q0 -8 -5.5 -14t-13.5 -6h-134q-18 0 -18 20v704q0 19 18 19h134q19 0 19 -19v-704zM254 802q0 -7 -9 -7h-107q-12 0 -24 12l-122 122q-4 4 -4 8q0 7 11 7h132q15 0 27 -15l92 -117q4 -5 4 -10z" />
    <glyph glyph-name="Iacute" unicode="&#xcd;" horiz-adv-x="311" 
d="M241 20q0 -8 -5.5 -14t-13.5 -6h-134q-18 0 -18 20v704q0 19 18 19h134q19 0 19 -19v-704zM326 937q0 -4 -4 -8l-122 -122q-12 -12 -24 -12h-107q-9 0 -9 7q0 5 4 10l93 117q12 15 27 15h131q11 0 11 -7z" />
    <glyph glyph-name="Icircumflex" unicode="&#xce;" horiz-adv-x="311" 
d="M241 20q0 -8 -5.5 -14t-13.5 -6h-134q-18 0 -18 20v704q0 19 18 19h134q19 0 19 -19v-704zM356 801q0 -7 -9 -7h-103q-13 0 -24 12l-63 70l-64 -70q-11 -12 -24 -12h-103q-9 0 -9 7q0 5 4 10l89 117q12 15 27 15h160q16 0 27 -15l88 -117q4 -5 4 -10z" />
    <glyph glyph-name="Idieresis" unicode="&#xcf;" horiz-adv-x="311" 
d="M241 20q0 -8 -5.5 -14t-13.5 -6h-134q-18 0 -18 20v704q0 19 18 19h134q19 0 19 -19v-704zM332 821q0 -8 -7 -14t-15 -6h-94q-8 0 -14.5 6t-6.5 14v93q0 8 6.5 14t14.5 6h94q8 0 15 -6t7 -14v-93zM115 821q0 -8 -6.5 -14t-14.5 -6h-94q-8 0 -15 6t-7 14v93q0 8 7 14t15 6
h94q8 0 14.5 -6t6.5 -14v-93z" />
    <glyph glyph-name="Eth" unicode="&#xd0;" horiz-adv-x="682" 
d="M631 321q0 -170 -85 -250t-234 -80q-126 0 -217 16q-29 5 -29 35v270h-55q-19 0 -19 19v97q0 19 19 19h55v254q0 30 29 35q92 16 217 16q150 0 234.5 -80t84.5 -250v-101zM457 321v101q0 102 -35.5 142t-109.5 40q-44 0 -74 -2v-155h61q19 0 19 -19v-97q0 -19 -19 -19
h-61v-172q15 -1 74 -1q74 0 109.5 40.5t35.5 141.5z" />
    <glyph glyph-name="Ntilde" unicode="&#xd1;" horiz-adv-x="729" 
d="M659 38q0 -16 -11.5 -27t-27.5 -11h-98q-34 0 -52 31l-228 394q-5 8 -9 8q-5 0 -5 -8v-405q0 -8 -6 -14t-14 -6h-118q-8 0 -14 6t-6 14v685q0 16 11 27t27 11h101q24 0 42 -31l237 -412q5 -8 8 -8q5 0 5 9v423q0 8 6 13.5t14 5.5h118q8 0 14 -5.5t6 -13.5v-686zM558 907
q0 -120 -122 -120q-38 0 -71 22l-42 29q-25 18 -41 18q-23 0 -23 -27v-19q0 -17 -15 -17h-71q-15 0 -15 17v19q0 119 123 119q39 0 70 -21l43 -28q28 -18 40 -18q23 0 23 27v19q0 16 16 16h70q15 0 15 -16v-20z" />
    <glyph glyph-name="Ograve" unicode="&#xd2;" horiz-adv-x="698" 
d="M645 312q0 -165 -81.5 -243t-214.5 -78t-214.5 78t-81.5 243v119q0 165 81.5 243t214.5 78t214.5 -78t81.5 -243v-119zM473 312v119q0 89 -30 130t-94 41q-63 0 -93 -41t-30 -130v-119q0 -89 30 -130t93 -41q64 0 94 41t30 130zM438 801q0 -7 -9 -7h-107q-12 0 -24 12
l-122 122q-4 4 -4 8q0 7 11 7h132q15 0 27 -15l92 -117q4 -5 4 -10z" />
    <glyph glyph-name="Oacute" unicode="&#xd3;" horiz-adv-x="698" 
d="M645 312q0 -165 -81.5 -243t-214.5 -78t-214.5 78t-81.5 243v119q0 165 81.5 243t214.5 78t214.5 -78t81.5 -243v-119zM473 312v119q0 89 -30 130t-94 41q-63 0 -93 -41t-30 -130v-119q0 -89 30 -130t93 -41q64 0 94 41t30 130zM514 937q0 -4 -4 -8l-122 -122
q-12 -12 -24 -12h-107q-9 0 -9 7q0 5 4 10l93 117q12 15 27 15h131q11 0 11 -7z" />
    <glyph glyph-name="Ocircumflex" unicode="&#xd4;" horiz-adv-x="698" 
d="M645 312q0 -165 -81.5 -243t-214.5 -78t-214.5 78t-81.5 243v119q0 165 81.5 243t214.5 78t214.5 -78t81.5 -243v-119zM473 312v119q0 89 -30 130t-94 41q-63 0 -93 -41t-30 -130v-119q0 -89 30 -130t93 -41q64 0 94 41t30 130zM544 802q0 -7 -9 -7h-103q-13 0 -24 12
l-63 70l-64 -70q-11 -12 -24 -12h-103q-9 0 -9 7q0 5 4 10l89 117q12 15 27 15h160q16 0 27 -15l88 -117q4 -5 4 -10z" />
    <glyph glyph-name="Otilde" unicode="&#xd5;" horiz-adv-x="698" 
d="M645 312q0 -165 -81.5 -243t-214.5 -78t-214.5 78t-81.5 243v119q0 165 81.5 243t214.5 78t214.5 -78t81.5 -243v-119zM473 312v119q0 89 -30 130t-94 41q-63 0 -93 -41t-30 -130v-119q0 -89 30 -130t93 -41q64 0 94 41t30 130zM553 908q0 -120 -122 -120q-38 0 -71 22
l-42 29q-26 18 -41 18q-23 0 -23 -27v-19q0 -17 -15 -17h-71q-15 0 -15 17v19q0 119 123 119q38 0 70 -21l43 -28q28 -18 40 -18q23 0 23 27v19q0 16 16 16h70q15 0 15 -16v-20z" />
    <glyph glyph-name="Odieresis" unicode="&#xd6;" horiz-adv-x="698" 
d="M645 312q0 -165 -81.5 -243t-214.5 -78t-214.5 78t-81.5 243v119q0 165 81.5 243t214.5 78t214.5 -78t81.5 -243v-119zM473 312v119q0 89 -30 130t-94 41q-63 0 -93 -41t-30 -130v-119q0 -89 30 -130t93 -41q64 0 94 41t30 130zM526 821q0 -8 -7 -14t-15 -6h-94
q-8 0 -14.5 6t-6.5 14v93q0 8 6.5 14t14.5 6h94q8 0 15 -6t7 -14v-93zM309 821q0 -8 -6.5 -14t-14.5 -6h-94q-8 0 -15 6t-7 14v93q0 8 7 14t15 6h94q8 0 14.5 -6t6.5 -14v-93z" />
    <glyph glyph-name="multiply" unicode="&#xd7;" 
d="M537 255q0 -5 -5 -10l-63 -63q-5 -5 -10 -5q-8 0 -16 8l-120 120l-120 -120q-8 -8 -15 -8q-5 0 -10 5l-64 64q-5 5 -5 10q0 7 8 15l120 120l-120 120q-8 8 -8 15q0 5 5 10l64 64q5 5 10 5q7 0 15 -8l120 -120l120 120q8 8 16 8q5 0 10 -5l63 -63q5 -5 5 -10q0 -8 -8 -16
l-120 -120l120 -120q8 -8 8 -16z" />
    <glyph glyph-name="Oslash" unicode="&#xd8;" horiz-adv-x="698" 
d="M677 739q0 -3 -3 -8l-75 -103q46 -78 46 -197v-119q0 -165 -81.5 -243t-214.5 -78q-101 0 -174 46l-19 -27q-14 -19 -26 -19h-97q-11 0 -11 11q0 3 3 8l75 104q-47 79 -47 198v119q0 165 81.5 243t214.5 78q106 0 176 -46l18 25q14 19 26 19h97q11 0 11 -11zM431 575
q-30 27 -82 27q-63 0 -93 -41t-30 -130v-119q0 -4 0.5 -11t0.5 -10zM473 444v7l-204 -284q29 -26 80 -26q64 0 94 41t30 130v119v13z" />
    <glyph glyph-name="Ugrave" unicode="&#xd9;" horiz-adv-x="711" 
d="M644 279q0 -83 -22 -141t-63.5 -89t-90.5 -44.5t-113 -13.5t-113 13.5t-90 44.5t-63 89t-22 141v445q0 8 6 13.5t14 5.5h131q8 0 14 -5.5t6 -13.5v-445q0 -78 25.5 -111.5t91.5 -33.5t92 33.5t26 111.5v445q0 8 6 13.5t14 5.5h130q8 0 14.5 -5.5t6.5 -13.5v-445zM460 801
q0 -7 -9 -7h-107q-12 0 -24 12l-122 122q-4 4 -4 8q0 7 11 7h132q15 0 27 -15l92 -117q4 -5 4 -10z" />
    <glyph glyph-name="Uacute" unicode="&#xda;" horiz-adv-x="711" 
d="M644 279q0 -83 -22 -141t-63.5 -89t-90.5 -44.5t-113 -13.5t-113 13.5t-90 44.5t-63 89t-22 141v445q0 8 6 13.5t14 5.5h131q8 0 14 -5.5t6 -13.5v-445q0 -78 25.5 -111.5t91.5 -33.5t92 33.5t26 111.5v445q0 8 6 13.5t14 5.5h130q8 0 14.5 -5.5t6.5 -13.5v-445zM534 936
q0 -4 -4 -8l-122 -122q-12 -12 -24 -12h-107q-9 0 -9 7q0 5 4 10l93 117q12 15 27 15h131q11 0 11 -7z" />
    <glyph glyph-name="Ucircumflex" unicode="&#xdb;" horiz-adv-x="711" 
d="M644 279q0 -83 -22 -141t-63.5 -89t-90.5 -44.5t-113 -13.5t-113 13.5t-90 44.5t-63 89t-22 141v445q0 8 6 13.5t14 5.5h131q8 0 14 -5.5t6 -13.5v-445q0 -78 25.5 -111.5t91.5 -33.5t92 33.5t26 111.5v445q0 8 6 13.5t14 5.5h130q8 0 14.5 -5.5t6.5 -13.5v-445zM554 802
q0 -7 -9 -7h-103q-13 0 -24 12l-63 70l-64 -70q-11 -12 -24 -12h-103q-9 0 -9 7q0 5 4 10l89 117q12 15 27 15h160q16 0 27 -15l88 -117q4 -5 4 -10z" />
    <glyph glyph-name="Udieresis" unicode="&#xdc;" horiz-adv-x="711" 
d="M644 279q0 -83 -22 -141t-63.5 -89t-90.5 -44.5t-113 -13.5t-113 13.5t-90 44.5t-63 89t-22 141v445q0 8 6 13.5t14 5.5h131q8 0 14 -5.5t6 -13.5v-445q0 -78 25.5 -111.5t91.5 -33.5t92 33.5t26 111.5v445q0 8 6 13.5t14 5.5h130q8 0 14.5 -5.5t6.5 -13.5v-445zM532 821
q0 -8 -7 -14t-15 -6h-94q-8 0 -14.5 6t-6.5 14v93q0 8 6.5 14t14.5 6h94q8 0 15 -6t7 -14v-93zM315 821q0 -8 -6.5 -14t-14.5 -6h-94q-8 0 -15 6t-7 14v93q0 8 7 14t15 6h94q8 0 14.5 -6t6.5 -14v-93z" />
    <glyph glyph-name="Yacute" unicode="&#xdd;" horiz-adv-x="647" 
d="M626 728q0 -5 -1 -7l-151 -346q-27 -61 -65 -77v-278q0 -8 -6 -14t-14 -6h-131q-8 0 -14 6t-6 14v278q-40 17 -66 77l-151 346q-1 2 -1 7q0 15 16 15h144q14 0 20 -17l108 -282q6 -15 15 -15t15 15l108 282q6 17 20 17h144q16 0 16 -15zM509 936q0 -4 -4 -8l-122 -122
q-12 -12 -24 -12h-107q-9 0 -9 7q0 5 4 10l93 117q12 15 27 15h131q11 0 11 -7z" />
    <glyph glyph-name="Thorn" unicode="&#xde;" horiz-adv-x="651" 
d="M618 414q0 -69 -25.5 -118.5t-69.5 -76t-95 -38.5t-111 -12q-22 0 -78 2v-151q0 -8 -5.5 -14t-13.5 -6h-131q-8 0 -13.5 6t-5.5 14v704q0 19 19 19h131q19 0 19 -19v-59q11 1 74 1q62 0 113.5 -11.5t96 -38t70 -75t25.5 -116.5v-11zM447 414v11q0 52 -32.5 74.5
t-97.5 22.5q-68 0 -78 -1v-207q10 -1 78 -1q130 0 130 101z" />
    <glyph glyph-name="germandbls" unicode="&#xdf;" horiz-adv-x="652" 
d="M598 225q0 -113 -70 -173.5t-173 -60.5q-29 0 -61 6q-20 4 -20 19v96q0 16 11 16h1q12 -1 37 -1q112 0 112 98v21q0 40 -26 64t-81 24h-31q-8 0 -14 5.5t-6 13.5v79q0 8 6 13.5t14 5.5h31q52 0 75 23.5t23 59.5v19q0 37 -23.5 59.5t-73.5 22.5q-61 0 -85 -31.5t-24 -88.5
v-494q0 -8 -5.5 -14.5t-13.5 -6.5h-124q-8 0 -14 6.5t-6 14.5v494q0 259 272 259q124 0 191.5 -57.5t67.5 -163.5v-19q0 -44 -27 -82t-64 -55q48 -20 74.5 -60t26.5 -91v-21z" />
    <glyph glyph-name="agrave" unicode="&#xe0;" horiz-adv-x="562" 
d="M502 20q0 -8 -6 -14t-14 -6h-112q-8 0 -14 6t-6 14v16q-63 -45 -139 -45q-74 0 -122.5 41t-48.5 131v9q0 88 59 128.5t187 40.5h54v36q0 40 -18.5 54.5t-56.5 14.5q-94 0 -166 -7h-5q-18 0 -18 18v81q0 17 19 22q86 21 173 21q234 0 234 -204v-357zM343 135v110h-57
q-50 0 -69 -17t-19 -56v-9q0 -30 14.5 -40t48.5 -10q38 0 82 22zM366 637q0 -7 -9 -7h-107q-12 0 -24 12l-122 122q-4 4 -4 8q0 7 11 7h132q15 0 27 -15l92 -117q4 -5 4 -10z" />
    <glyph glyph-name="aacute" unicode="&#xe1;" horiz-adv-x="562" 
d="M502 20q0 -8 -6 -14t-14 -6h-112q-8 0 -14 6t-6 14v16q-63 -45 -139 -45q-74 0 -122.5 41t-48.5 131v9q0 88 59 128.5t187 40.5h54v36q0 40 -18.5 54.5t-56.5 14.5q-94 0 -166 -7h-5q-18 0 -18 18v81q0 17 19 22q86 21 173 21q234 0 234 -204v-357zM343 135v110h-57
q-50 0 -69 -17t-19 -56v-9q0 -30 14.5 -40t48.5 -10q38 0 82 22zM465 772q0 -4 -4 -8l-122 -122q-12 -12 -24 -12h-107q-9 0 -9 7q0 5 4 10l93 117q12 15 27 15h131q11 0 11 -7z" />
    <glyph glyph-name="acircumflex" unicode="&#xe2;" horiz-adv-x="562" 
d="M502 20q0 -8 -6 -14t-14 -6h-112q-8 0 -14 6t-6 14v16q-63 -45 -139 -45q-74 0 -122.5 41t-48.5 131v9q0 88 59 128.5t187 40.5h54v36q0 40 -18.5 54.5t-56.5 14.5q-94 0 -166 -7h-5q-18 0 -18 18v81q0 17 19 22q86 21 173 21q234 0 234 -204v-357zM343 135v110h-57
q-50 0 -69 -17t-19 -56v-9q0 -30 14.5 -40t48.5 -10q38 0 82 22zM485 637q0 -7 -9 -7h-103q-13 0 -24 12l-63 70l-64 -70q-11 -12 -24 -12h-103q-9 0 -9 7q0 5 4 10l89 117q12 15 27 15h160q16 0 27 -15l88 -117q4 -5 4 -10z" />
    <glyph glyph-name="atilde" unicode="&#xe3;" horiz-adv-x="562" 
d="M502 20q0 -8 -6 -14t-14 -6h-112q-8 0 -14 6t-6 14v16q-63 -45 -139 -45q-74 0 -122.5 41t-48.5 131v9q0 88 59 128.5t187 40.5h54v36q0 40 -18.5 54.5t-56.5 14.5q-94 0 -166 -7h-5q-18 0 -18 18v81q0 17 19 22q86 21 173 21q234 0 234 -204v-357zM343 135v110h-57
q-50 0 -69 -17t-19 -56v-9q0 -30 14.5 -40t48.5 -10q38 0 82 22zM489 746q0 -120 -122 -120q-38 0 -71 22l-42 29q-26 18 -41 18q-23 0 -23 -27v-19q0 -17 -15 -17h-71q-15 0 -15 17v19q0 119 123 119q38 0 70 -21l43 -28q28 -18 40 -18q23 0 23 27v19q0 16 16 16h70
q15 0 15 -16v-20z" />
    <glyph glyph-name="adieresis" unicode="&#xe4;" horiz-adv-x="562" 
d="M502 20q0 -8 -6 -14t-14 -6h-112q-8 0 -14 6t-6 14v16q-63 -45 -139 -45q-74 0 -122.5 41t-48.5 131v9q0 88 59 128.5t187 40.5h54v36q0 40 -18.5 54.5t-56.5 14.5q-94 0 -166 -7h-5q-18 0 -18 18v81q0 17 19 22q86 21 173 21q234 0 234 -204v-357zM343 135v110h-57
q-50 0 -69 -17t-19 -56v-9q0 -30 14.5 -40t48.5 -10q38 0 82 22zM464 660q0 -8 -7 -14t-15 -6h-94q-8 0 -14.5 6t-6.5 14v93q0 8 6.5 14t14.5 6h94q8 0 15 -6t7 -14v-93zM247 660q0 -8 -6.5 -14t-14.5 -6h-94q-8 0 -15 6t-7 14v93q0 8 7 14t15 6h94q8 0 14.5 -6t6.5 -14v-93
z" />
    <glyph glyph-name="aring" unicode="&#xe5;" horiz-adv-x="562" 
d="M502 20q0 -8 -6 -14t-14 -6h-112q-8 0 -14 6t-6 14v16q-63 -45 -139 -45q-74 0 -122.5 41t-48.5 131v9q0 88 59 128.5t187 40.5h54v36q0 40 -18.5 54.5t-56.5 14.5q-94 0 -166 -7h-5q-18 0 -18 18v81q0 17 19 22q86 21 173 21q234 0 234 -204v-357zM343 135v110h-57
q-50 0 -69 -17t-19 -56v-9q0 -30 14.5 -40t48.5 -10q38 0 82 22zM400 741q0 -49 -34 -83t-83 -34t-83 34t-34 83t34 83t83 34t83 -34t34 -83zM327 741q0 18 -13 31t-31 13t-31 -13t-13 -31t13 -31t31 -13t31 13t13 31z" />
    <glyph glyph-name="ae" unicode="&#xe6;" horiz-adv-x="881" 
d="M835 265q0 -8 -6.5 -14.5t-14.5 -6.5h-310v-41q0 -77 116 -77q97 0 173 8h5q16 0 16 -16v-72q0 -20 -19 -26q-85 -29 -198 -29q-87 0 -141 46q-84 -46 -195 -46q-94 0 -156.5 44.5t-62.5 136.5v11q0 84 66 121t193 37h42v9q0 55 -17.5 75.5t-60.5 20.5q-100 0 -163 -7h-3
q-17 0 -17 18v79q0 19 20 24q79 21 163 21q110 0 170 -60q63 60 158 60q122 0 182 -68t60 -184v-64zM680 332v18q0 106 -88 106t-88 -106v-18h176zM348 119v134h-47q-54 0 -79.5 -16t-25.5 -54v-11q0 -34 22.5 -50t56.5 -16q44 0 73 13z" />
    <glyph glyph-name="ccedilla" unicode="&#xe7;" horiz-adv-x="474" 
d="M432 29q0 -11 -4.5 -15.5t-16.5 -7.5q-60 -15 -133 -15q-107 0 -170 66.5t-63 186.5v84q0 120 63 186.5t170 66.5q73 0 133 -15q12 -3 16.5 -7.5t4.5 -15.5v-89q0 -7 -5.5 -12t-13.5 -5h-2q-65 7 -122 7q-82 0 -82 -116v-84q0 -116 82 -116q57 0 122 7h2q8 0 13.5 -5
t5.5 -12v-89zM345 -42q0 -4 -4 -8l-123 -122q-14 -12 -24 -12h-107q-10 0 -10 7q0 3 5 10l93 117q11 15 27 15h132q11 0 11 -7z" />
    <glyph glyph-name="egrave" unicode="&#xe8;" horiz-adv-x="590" 
d="M545 260q0 -24 -21 -24h-319v-2q0 -109 103 -109q102 0 192 9h3q19 0 19 -16v-76q0 -22 -21 -27q-96 -24 -205 -24q-48 0 -90.5 13.5t-80 42t-59 80.5t-21.5 121v70q0 122 67 192.5t186 70.5t183 -72.5t64 -190.5v-58zM387 336v4q0 55 -23.5 83t-66.5 28q-42 0 -67 -28.5
t-25 -82.5v-4h182zM407 637q0 -7 -9 -7h-107q-12 0 -24 12l-122 122q-4 4 -4 8q0 7 11 7h132q15 0 27 -15l92 -117q4 -5 4 -10z" />
    <glyph glyph-name="eacute" unicode="&#xe9;" horiz-adv-x="590" 
d="M545 260q0 -24 -21 -24h-319v-2q0 -109 103 -109q102 0 192 9h3q19 0 19 -16v-76q0 -22 -21 -27q-96 -24 -205 -24q-48 0 -90.5 13.5t-80 42t-59 80.5t-21.5 121v70q0 122 67 192.5t186 70.5t183 -72.5t64 -190.5v-58zM387 336v4q0 55 -23.5 83t-66.5 28q-42 0 -67 -28.5
t-25 -82.5v-4h182zM469 772q0 -4 -4 -8l-122 -122q-12 -12 -24 -12h-107q-9 0 -9 7q0 5 4 10l93 117q12 15 27 15h131q11 0 11 -7z" />
    <glyph glyph-name="ecircumflex" unicode="&#xea;" horiz-adv-x="590" 
d="M545 260q0 -24 -21 -24h-319v-2q0 -109 103 -109q102 0 192 9h3q19 0 19 -16v-76q0 -22 -21 -27q-96 -24 -205 -24q-48 0 -90.5 13.5t-80 42t-59 80.5t-21.5 121v70q0 122 67 192.5t186 70.5t183 -72.5t64 -190.5v-58zM387 336v4q0 55 -23.5 83t-66.5 28q-42 0 -67 -28.5
t-25 -82.5v-4h182zM494 637q0 -7 -9 -7h-103q-13 0 -24 12l-63 70l-64 -70q-11 -12 -24 -12h-103q-9 0 -9 7q0 5 4 10l89 117q12 15 27 15h160q16 0 27 -15l88 -117q4 -5 4 -10z" />
    <glyph glyph-name="edieresis" unicode="&#xeb;" horiz-adv-x="590" 
d="M545 260q0 -24 -21 -24h-319v-2q0 -109 103 -109q102 0 192 9h3q19 0 19 -16v-76q0 -22 -21 -27q-96 -24 -205 -24q-48 0 -90.5 13.5t-80 42t-59 80.5t-21.5 121v70q0 122 67 192.5t186 70.5t183 -72.5t64 -190.5v-58zM387 336v4q0 55 -23.5 83t-66.5 28q-42 0 -67 -28.5
t-25 -82.5v-4h182zM470 658q0 -8 -7 -14t-15 -6h-94q-8 0 -14.5 6t-6.5 14v93q0 8 6.5 14t14.5 6h94q8 0 15 -6t7 -14v-93zM253 658q0 -8 -6.5 -14t-14.5 -6h-94q-8 0 -15 6t-7 14v93q0 8 7 14t15 6h94q8 0 14.5 -6t6.5 -14v-93z" />
    <glyph glyph-name="igrave" unicode="&#xec;" horiz-adv-x="290" 
d="M233 637q0 -7 -10 -7h-107q-12 0 -24 12l-122 122q-4 4 -4 8q0 7 11 7h132q16 0 27 -15l92 -117q5 -7 5 -10zM226 21q0 -8 -6.5 -14.5t-14.5 -6.5h-120q-8 0 -14.5 6.5t-6.5 14.5v531q0 8 6.5 14.5t14.5 6.5h120q8 0 14.5 -6.5t6.5 -14.5v-531z" />
    <glyph glyph-name="iacute" unicode="&#xed;" horiz-adv-x="290" 
d="M329 772q0 -4 -4 -8l-122 -122q-12 -12 -24 -12h-107q-10 0 -10 7q0 3 5 10l93 117q11 15 27 15h131q11 0 11 -7zM226 21q0 -8 -6.5 -14.5t-14.5 -6.5h-120q-8 0 -14.5 6.5t-6.5 14.5v531q0 8 6.5 14.5t14.5 6.5h120q8 0 14.5 -6.5t6.5 -14.5v-531z" />
    <glyph glyph-name="icircumflex" unicode="&#xee;" horiz-adv-x="290" 
d="M226 21q0 -8 -6.5 -14.5t-14.5 -6.5h-120q-8 0 -14.5 6.5t-6.5 14.5v531q0 8 6.5 14.5t14.5 6.5h120q8 0 14.5 -6.5t6.5 -14.5v-531zM345 637q0 -7 -9 -7h-103q-13 0 -24 12l-63 70l-64 -70q-11 -12 -24 -12h-103q-9 0 -9 7q0 5 4 10l89 117q12 15 27 15h160q16 0 27 -15
l88 -117q4 -5 4 -10z" />
    <glyph glyph-name="idieresis" unicode="&#xef;" horiz-adv-x="290" 
d="M226 21q0 -8 -6.5 -14.5t-14.5 -6.5h-120q-8 0 -14.5 6.5t-6.5 14.5v531q0 8 6.5 14.5t14.5 6.5h120q8 0 14.5 -6.5t6.5 -14.5v-531zM323 658q0 -8 -7 -14t-15 -6h-94q-8 0 -14.5 6t-6.5 14v93q0 8 6.5 14t14.5 6h94q8 0 15 -6t7 -14v-93zM106 658q0 -8 -6.5 -14
t-14.5 -6h-94q-8 0 -15 6t-7 14v93q0 8 7 14t15 6h94q8 0 14.5 -6t6.5 -14v-93z" />
    <glyph glyph-name="eth" unicode="&#xf0;" horiz-adv-x="589" 
d="M545 259q0 -133 -64 -200.5t-185 -67.5q-125 0 -188.5 69t-63.5 199v31q0 133 64.5 200t186.5 67q33 0 50 -9q-33 42 -112 81l-71 -54q-7 -6 -13 -6t-11 6l-27 30q-3 3 -3 8q0 9 10 16l41 31q-44 14 -49 15q-16 4 -16 14q0 4 1 6l25 68q4 11 14 11q5 0 8 -1
q54 -13 116 -37l79 60q5 4 13 4t12 -5l27 -29q4 -4 4 -8q0 -6 -10 -14l-53 -41q110 -60 162.5 -158t52.5 -255v-31zM384 259v31q0 70 -21 101t-68 31t-68.5 -31.5t-21.5 -100.5v-31q0 -69 22 -100.5t69 -31.5q46 0 67 31t21 101z" />
    <glyph glyph-name="ntilde" unicode="&#xf1;" horiz-adv-x="612" 
d="M552 21q0 -8 -6.5 -14.5t-14.5 -6.5h-121q-8 0 -14 6.5t-6 14.5v333q0 54 -14.5 73.5t-59.5 19.5q-34 0 -94 -32v-394q0 -8 -6 -14.5t-14 -6.5h-121q-8 0 -14.5 6.5t-6.5 14.5v532q0 8 6 14t14 6h112q8 0 14 -6t6 -14v-24q73 52 163 52q53 0 89 -17t54.5 -50t26 -71
t7.5 -89v-333zM503 746q0 -120 -122 -120q-38 0 -71 22l-42 29q-25 18 -41 18q-23 0 -23 -27v-19q0 -17 -15 -17h-71q-15 0 -15 17v19q0 119 123 119q38 0 70 -21l43 -28q28 -18 40 -18q23 0 23 27v19q0 16 16 16h70q15 0 15 -16v-20z" />
    <glyph glyph-name="ograve" unicode="&#xf2;" horiz-adv-x="589" 
d="M545 251q0 -121 -65 -190.5t-185 -69.5t-185.5 69.5t-65.5 190.5v70q0 121 65.5 190.5t185.5 69.5t185 -69.5t65 -190.5v-70zM384 251v70q0 122 -89 122q-90 0 -90 -122v-70q0 -123 90 -123q89 0 89 123zM386 637q0 -7 -9 -7h-107q-12 0 -24 12l-122 122q-4 4 -4 8
q0 7 11 7h132q15 0 27 -15l92 -117q4 -5 4 -10z" />
    <glyph glyph-name="oacute" unicode="&#xf3;" horiz-adv-x="589" 
d="M545 251q0 -121 -65 -190.5t-185 -69.5t-185.5 69.5t-65.5 190.5v70q0 121 65.5 190.5t185.5 69.5t185 -69.5t65 -190.5v-70zM384 251v70q0 122 -89 122q-90 0 -90 -122v-70q0 -123 90 -123q89 0 89 123zM465 772q0 -4 -4 -8l-122 -122q-12 -12 -24 -12h-107q-9 0 -9 7
q0 5 4 10l93 117q12 15 27 15h131q11 0 11 -7z" />
    <glyph glyph-name="ocircumflex" unicode="&#xf4;" horiz-adv-x="589" 
d="M545 251q0 -121 -65 -190.5t-185 -69.5t-185.5 69.5t-65.5 190.5v70q0 121 65.5 190.5t185.5 69.5t185 -69.5t65 -190.5v-70zM384 251v70q0 122 -89 122q-90 0 -90 -122v-70q0 -123 90 -123q89 0 89 123zM493 637q0 -7 -9 -7h-103q-13 0 -24 12l-63 70l-64 -70
q-11 -12 -24 -12h-103q-9 0 -9 7q0 5 4 10l89 117q12 15 27 15h160q16 0 27 -15l88 -117q4 -5 4 -10z" />
    <glyph glyph-name="otilde" unicode="&#xf5;" horiz-adv-x="589" 
d="M545 251q0 -121 -65 -190.5t-185 -69.5t-185.5 69.5t-65.5 190.5v70q0 121 65.5 190.5t185.5 69.5t185 -69.5t65 -190.5v-70zM384 251v70q0 122 -89 122q-90 0 -90 -122v-70q0 -123 90 -123q89 0 89 123zM493 746q0 -120 -122 -120q-38 0 -71 22l-42 29q-26 18 -41 18
q-23 0 -23 -27v-19q0 -17 -15 -17h-71q-15 0 -15 17v19q0 119 123 119q38 0 70 -21l43 -28q28 -18 40 -18q23 0 23 27v19q0 16 16 16h70q15 0 15 -16v-20z" />
    <glyph glyph-name="odieresis" unicode="&#xf6;" horiz-adv-x="589" 
d="M545 251q0 -121 -65 -190.5t-185 -69.5t-185.5 69.5t-65.5 190.5v70q0 121 65.5 190.5t185.5 69.5t185 -69.5t65 -190.5v-70zM384 251v70q0 122 -89 122q-90 0 -90 -122v-70q0 -123 90 -123q89 0 89 123zM470 658q0 -8 -7 -14t-15 -6h-94q-8 0 -14.5 6t-6.5 14v93
q0 8 6.5 14t14.5 6h94q8 0 15 -6t7 -14v-93zM253 658q0 -8 -6.5 -14t-14.5 -6h-94q-8 0 -15 6t-7 14v93q0 8 7 14t15 6h94q8 0 14.5 -6t6.5 -14v-93z" />
    <glyph glyph-name="divide" unicode="&#xf7;" 
d="M401 552q0 -8 -6 -14t-14 -6h-118q-8 0 -14 6t-6 14v112q0 8 6 14t14 6h118q8 0 14 -6t6 -14v-112zM552 346q0 -16 -20 -16h-419q-20 0 -20 16v90q0 16 20 16h419q20 0 20 -16v-90zM401 104q0 -8 -6 -13.5t-14 -5.5h-118q-8 0 -14 5.5t-6 13.5v112q0 8 6 14t14 6h118
q8 0 14 -6t6 -14v-112z" />
    <glyph glyph-name="oslash" unicode="&#xf8;" horiz-adv-x="589" 
d="M559 598q0 -7 -4 -11l-65 -87q55 -67 55 -179v-70q0 -121 -65 -190.5t-185 -69.5q-90 0 -150 40l-42 -56q-8 -10 -16 -10h-50q-8 0 -8 8q0 6 4 11l66 89q-55 67 -55 178v70q0 121 65.5 190.5t185.5 69.5q90 0 150 -40l40 55q8 10 16 10h50q8 0 8 -8zM355 420
q-23 23 -60 23q-90 0 -90 -122v-70q0 -12 2 -32zM384 251v70q0 12 -2 32l-148 -201q22 -24 61 -24q89 0 89 123z" />
    <glyph glyph-name="ugrave" unicode="&#xf9;" horiz-adv-x="612" 
d="M552 20q0 -8 -6 -14t-14 -6h-112q-8 0 -14 6t-6 14v24q-73 -52 -163 -52q-53 0 -89 17t-54.5 50t-26 71t-7.5 89v333q0 8 6.5 14.5t14.5 6.5h121q8 0 14 -6.5t6 -14.5v-333q0 -54 14.5 -73.5t59.5 -19.5q34 0 94 32v394q0 8 6 14.5t14 6.5h121q8 0 14.5 -6.5t6.5 -14.5
v-532zM397 637q0 -7 -9 -7h-107q-12 0 -24 12l-122 122q-4 4 -4 8q0 7 11 7h132q15 0 27 -15l92 -117q4 -5 4 -10z" />
    <glyph glyph-name="uacute" unicode="&#xfa;" horiz-adv-x="612" 
d="M552 20q0 -8 -6 -14t-14 -6h-112q-8 0 -14 6t-6 14v24q-73 -52 -163 -52q-53 0 -89 17t-54.5 50t-26 71t-7.5 89v333q0 8 6.5 14.5t14.5 6.5h121q8 0 14 -6.5t6 -14.5v-333q0 -54 14.5 -73.5t59.5 -19.5q34 0 94 32v394q0 8 6 14.5t14 6.5h121q8 0 14.5 -6.5t6.5 -14.5
v-532zM489 772q0 -4 -4 -8l-122 -122q-12 -12 -24 -12h-107q-9 0 -9 7q0 5 4 10l93 117q12 15 27 15h131q11 0 11 -7z" />
    <glyph glyph-name="ucircumflex" unicode="&#xfb;" horiz-adv-x="612" 
d="M552 20q0 -8 -6 -14t-14 -6h-112q-8 0 -14 6t-6 14v24q-73 -52 -163 -52q-53 0 -89 17t-54.5 50t-26 71t-7.5 89v333q0 8 6.5 14.5t14.5 6.5h121q8 0 14 -6.5t6 -14.5v-333q0 -54 14.5 -73.5t59.5 -19.5q34 0 94 32v394q0 8 6 14.5t14 6.5h121q8 0 14.5 -6.5t6.5 -14.5
v-532zM504 637q0 -7 -9 -7h-103q-13 0 -24 12l-63 70l-64 -70q-11 -12 -24 -12h-103q-9 0 -9 7q0 5 4 10l89 117q12 15 27 15h160q16 0 27 -15l88 -117q4 -5 4 -10z" />
    <glyph glyph-name="udieresis" unicode="&#xfc;" horiz-adv-x="612" 
d="M552 20q0 -8 -6 -14t-14 -6h-112q-8 0 -14 6t-6 14v24q-73 -52 -163 -52q-53 0 -89 17t-54.5 50t-26 71t-7.5 89v333q0 8 6.5 14.5t14.5 6.5h121q8 0 14 -6.5t6 -14.5v-333q0 -54 14.5 -73.5t59.5 -19.5q34 0 94 32v394q0 8 6 14.5t14 6.5h121q8 0 14.5 -6.5t6.5 -14.5
v-532zM483 658q0 -8 -7 -14t-15 -6h-94q-8 0 -14.5 6t-6.5 14v93q0 8 6.5 14t14.5 6h94q8 0 15 -6t7 -14v-93zM266 658q0 -8 -6.5 -14t-14.5 -6h-94q-8 0 -15 6t-7 14v93q0 8 7 14t15 6h94q8 0 14.5 -6t6.5 -14v-93z" />
    <glyph glyph-name="yacute" unicode="&#xfd;" horiz-adv-x="592" 
d="M570 555q0 -1 -0.5 -2.5t-0.5 -2.5l-168 -589q-25 -88 -70 -125.5t-149 -37.5q-71 0 -121 16q-21 8 -21 18v81q0 8 6 13.5t14 5.5h2l52 -4q53 -4 73 -4q28 0 42.5 11.5t23.5 40.5l9 31h-15q-16 0 -27 2.5t-23.5 11t-23 28.5t-19.5 51l-132 450q-1 3 -1 7q0 16 20 16h133
q15 0 19 -19l90 -376q4 -19 12 -19h1h4h4l93 395q4 19 21 19h133q8 0 13.5 -5.5t5.5 -12.5zM489 772q0 -4 -4 -8l-122 -122q-12 -12 -24 -12h-107q-9 0 -9 7q0 5 4 10l93 117q12 15 27 15h131q11 0 11 -7z" />
    <glyph glyph-name="thorn" unicode="&#xfe;" horiz-adv-x="597" 
d="M555 249q0 -122 -63.5 -190t-186.5 -68q-39 0 -83 10v-176q0 -8 -5.5 -14t-13.5 -6h-122q-8 0 -14.5 6t-6.5 14v922q0 8 5.5 14t13.5 6h124q8 0 13.5 -6t5.5 -14v-171q42 5 83 5q118 0 184 -67.5t66 -190.5v-74zM393 249v74q0 124 -88 124q-33 0 -83 -6v-311q46 -6 83 -6
q88 0 88 125z" />
    <glyph glyph-name="ydieresis" unicode="&#xff;" horiz-adv-x="592" 
d="M570 555q0 -1 -0.5 -2.5t-0.5 -2.5l-168 -589q-25 -88 -70 -125.5t-149 -37.5q-71 0 -121 16q-21 8 -21 18v81q0 8 6 13.5t14 5.5h2l52 -4q53 -4 73 -4q28 0 42.5 11.5t23.5 40.5l9 31h-15q-16 0 -27 2.5t-23.5 11t-23 28.5t-19.5 51l-132 450q-1 3 -1 7q0 16 20 16h133
q15 0 19 -19l90 -376q4 -19 12 -19h1h4h4l93 395q4 19 21 19h133q8 0 13.5 -5.5t5.5 -12.5zM476 658q0 -8 -7 -14t-15 -6h-94q-8 0 -14.5 6t-6.5 14v93q0 8 6.5 14t14.5 6h94q8 0 15 -6t7 -14v-93zM259 658q0 -8 -6.5 -14t-14.5 -6h-94q-8 0 -15 6t-7 14v93q0 8 7 14t15 6
h94q8 0 14.5 -6t6.5 -14v-93z" />
    <glyph glyph-name="dotlessi" unicode="&#x131;" horiz-adv-x="290" 
d="M226 21q0 -8 -6.5 -14.5t-14.5 -6.5h-120q-8 0 -14.5 6.5t-6.5 14.5v531q0 8 6.5 14.5t14.5 6.5h120q8 0 14.5 -6.5t6.5 -14.5v-531z" />
    <glyph glyph-name="Lslash" unicode="&#x141;" horiz-adv-x="519" 
d="M497 25q0 -17 -20 -21q-61 -13 -163 -13q-54 0 -93.5 8.5t-76 30.5t-55.5 66t-19 110v11l-38 -38q-4 -4 -7 -4q-5 0 -5 6v139v3q0 10 9 19l41 41v340q0 8 6 14t14 6h130q8 0 14 -6t6 -14v-173l70 68q3 3 8 3q8 0 8 -8v-135q0 -12 -7 -18l-79 -77v-177q0 -39 14 -53.5
t50 -14.5h173q8 0 14 -6t6 -14v-93z" />
    <glyph glyph-name="lslash" unicode="&#x142;" horiz-adv-x="282" 
d="M294 478q0 -12 -7 -18l-64 -63v-376q0 -8 -6 -14.5t-14 -6.5h-122q-8 0 -14.5 6.5t-6.5 14.5v216l-59 -58q-4 -4 -7 -4q-5 0 -5 6v139v3q0 10 9 19l62 62v343q0 8 6.5 14t14.5 6h122q8 0 14 -6t6 -14v-183l55 54q3 3 7 3q9 0 9 -8v-135z" />
    <glyph glyph-name="OE" unicode="&#x152;" horiz-adv-x="987" 
d="M931 25q0 -18 -20 -21q-91 -13 -194 -13q-129 0 -185 51q-71 -51 -183 -51q-133 0 -214.5 78t-81.5 243v119q0 165 81.5 243t214.5 78q111 0 183 -52q57 51 186 51q102 0 193 -13q20 -3 20 -20v-93q0 -8 -6 -14t-14 -6h-203q-36 0 -50 -14.5t-14 -53.5v-72q0 -3 0.5 -9
t0.5 -9h258q8 0 14 -6t6 -14v-95q0 -8 -6 -14t-14 -6h-258q0 -6 -0.5 -17.5t-0.5 -16.5v-72q0 -39 14 -53.5t50 -14.5h203q8 0 14 -6t6 -14v-93zM473 312v119q0 89 -30 130t-94 41q-63 0 -93 -41t-30 -130v-119q0 -89 30 -130t93 -41q64 0 94 41t30 130z" />
    <glyph glyph-name="oe" unicode="&#x153;" horiz-adv-x="932" 
d="M887 260q0 -24 -21 -24h-319v-5v-3q4 -103 103 -103q102 0 192 9h3q19 0 19 -16v-76q0 -22 -21 -27q-96 -24 -205 -24t-171 65q-65 -65 -171 -65q-120 0 -185.5 69.5t-65.5 190.5v70q0 121 65.5 190.5t185.5 69.5q103 0 172 -67q65 67 172 67q119 0 183 -72.5t64 -190.5
v-58zM729 336v4q0 55 -23.5 83t-66.5 28q-42 0 -67 -28t-25 -80v-7h182zM385 251v70q0 122 -89 122t-89 -122v-70q0 -123 89 -123t89 123z" />
    <glyph glyph-name="Scaron" unicode="&#x160;" horiz-adv-x="588" 
d="M546 210q0 -42 -14.5 -79.5t-45 -69.5t-85.5 -51t-128 -19q-103 0 -189 22q-20 6 -20 20v98q0 19 18 19h3q123 -12 190 -12q50 0 69.5 16.5t19.5 53.5q0 22 -13.5 37.5t-52.5 38.5l-138 82q-66 39 -92 85.5t-26 105.5q0 195 256 195q52 0 117 -7t95 -15q15 -4 15 -18
v-101q0 -17 -17 -17h-2q-154 11 -212 11q-42 0 -60 -12.5t-18 -40.5q0 -21 13 -34.5t54 -35.5l128 -69q74 -40 104.5 -89t30.5 -114zM483 937q0 -5 -4 -10l-89 -117q-12 -15 -27 -15h-160q-16 0 -27 15l-88 117q-4 5 -4 10q0 7 9 7h103q13 0 24 -12l63 -70l64 70
q11 12 24 12h103q9 0 9 -7z" />
    <glyph glyph-name="scaron" unicode="&#x161;" horiz-adv-x="503" 
d="M461 159q0 -74 -54.5 -121t-159.5 -47q-102 0 -182 22q-19 5 -19 23v81q0 19 19 19h4q108 -14 170 -14q34 0 46.5 9t12.5 30t-37 42l-130 75q-89 51 -89 148q0 155 205 155q88 0 178 -23q19 -5 19 -23v-81q0 -19 -17 -19h-3q-94 13 -166 13q-30 0 -41.5 -6t-11.5 -23
q0 -16 31 -35l124 -71q101 -58 101 -154zM451 772q0 -5 -4 -10l-89 -117q-12 -15 -27 -15h-160q-16 0 -27 15l-88 117q-4 5 -4 10q0 7 9 7h103q13 0 24 -12l63 -70l64 70q11 12 24 12h103q9 0 9 -7z" />
    <glyph glyph-name="Ydieresis" unicode="&#x178;" horiz-adv-x="647" 
d="M626 728q0 -5 -1 -7l-151 -346q-27 -61 -65 -77v-278q0 -8 -6 -14t-14 -6h-131q-8 0 -14 6t-6 14v278q-40 17 -66 77l-151 346q-1 2 -1 7q0 15 16 15h144q14 0 20 -17l108 -282q6 -15 15 -15t15 15l108 282q6 17 20 17h144q16 0 16 -15zM500 818q0 -8 -7 -14t-15 -6h-94
q-8 0 -14.5 6t-6.5 14v93q0 8 6.5 14t14.5 6h94q8 0 15 -6t7 -14v-93zM283 818q0 -8 -6.5 -14t-14.5 -6h-94q-8 0 -15 6t-7 14v93q0 8 7 14t15 6h94q8 0 14.5 -6t6.5 -14v-93z" />
    <glyph glyph-name="Zcaron" unicode="&#x17d;" horiz-adv-x="615" 
d="M565 20q0 -8 -6 -14t-14 -6h-454q-41 0 -41 31v80q0 21 15 44l279 422q4 5 4 10q0 8 -11 8h-249q-8 0 -14 5.5t-6 13.5v110q0 8 6 13.5t14 5.5h431q40 0 40 -28q1 -10 1 -24l-1 -67q0 -13 -8 -26l-282 -432q-5 -7 -5 -11q0 -7 11 -7h270q20 0 20 -18v-110zM515 936
q0 -5 -4 -10l-89 -117q-12 -15 -27 -15h-160q-16 0 -27 15l-88 117q-4 5 -4 10q0 7 9 7h103q13 0 24 -12l63 -70l64 70q11 12 24 12h103q9 0 9 -7z" />
    <glyph glyph-name="zcaron" unicode="&#x17e;" horiz-adv-x="515" 
d="M472 20q0 -8 -6 -14t-14 -6h-375q-14 0 -24 10t-10 23v64q0 18 14 38l217 296q3 5 3 7q0 5 -7 5h-201q-17 0 -17 16v94q0 8 6 14t14 6h365q13 0 23 -10t10 -24v-74q0 -19 -11 -35l-207 -283q-3 -5 -3 -7q0 -4 7 -4h198q18 0 18 -16v-100zM468 772q0 -5 -4 -10l-89 -117
q-12 -15 -27 -15h-160q-16 0 -27 15l-88 117q-4 5 -4 10q0 7 9 7h103q13 0 24 -12l63 -70l64 70q11 12 24 12h103q9 0 9 -7z" />
    <glyph glyph-name="florin" unicode="&#x192;" 
d="M612 759v-4l-10 -75q-2 -18 -24 -18h-65q-36 0 -49 -10t-17 -39l-22 -159h134q18 0 18 -16v-3l-12 -84q-4 -21 -23 -21h-134l-46 -325q-24 -170 -211 -170q-56 0 -99 9q-18 4 -18 15v4l10 75q2 18 24 18h65q36 0 49 10t17 39l45 325h-126q-18 0 -18 18v3l12 84
q3 19 23 19h127l22 159q23 170 211 170q56 0 99 -9q18 -4 18 -15z" />
    <glyph glyph-name="circumflex" unicode="&#x2c6;" horiz-adv-x="443" 
d="M421 637q0 -7 -9 -7h-103q-13 0 -24 12l-63 70l-64 -70q-11 -12 -24 -12h-103q-9 0 -9 7q0 5 4 10l89 117q12 15 27 15h160q16 0 27 -15l88 -117q4 -5 4 -10z" />
    <glyph glyph-name="caron" unicode="&#x2c7;" horiz-adv-x="443" 
d="M421 772q0 -5 -4 -10l-89 -117q-12 -15 -27 -15h-160q-16 0 -27 15l-88 117q-4 5 -4 10q0 7 9 7h103q13 0 24 -12l63 -70l64 70q11 12 24 12h103q9 0 9 -7z" />
    <glyph glyph-name="uni02C9" unicode="&#x2c9;" horiz-adv-x="443" 
d="M404 672q0 -8 -6 -13.5t-14 -5.5h-324q-8 0 -14 5.5t-6 13.5v72q0 8 6 13.5t14 5.5h324q8 0 14 -5.5t6 -13.5v-72z" />
    <glyph glyph-name="breve" unicode="&#x2d8;" horiz-adv-x="443" 
d="M408 772v-2q-1 -1 -1 -2q-15 -65 -61.5 -105t-123.5 -40t-123.5 40t-61.5 105q0 1 -1 2v2q0 7 10 7h87q10 0 13 -12q15 -57 76 -57t76 57q3 12 13 12h87q10 0 10 -7z" />
    <glyph glyph-name="dotaccent" unicode="&#x2d9;" horiz-adv-x="443" 
d="M306 658q0 -8 -6 -14t-14 -6h-130q-8 0 -14 6t-6 14v93q0 8 6 14t14 6h130q8 0 14 -6t6 -14v-93z" />
    <glyph glyph-name="ring" unicode="&#x2da;" horiz-adv-x="443" 
d="M339 711q0 -49 -34 -83t-83 -34t-83 34t-34 83t34 83t83 34t83 -34t34 -83zM266 711q0 18 -13 31t-31 13t-31 -13t-13 -31t13 -31t31 -13t31 13t13 31z" />
    <glyph glyph-name="ogonek" unicode="&#x2db;" horiz-adv-x="426" 
d="M333 -165v-1q0 -10 -11 -15q-47 -20 -118 -20q-58 0 -96.5 23t-38.5 74q0 35 16 59.5t55 46.5l48 28q10 7 29 7h98q8 0 9 -5.5t-5 -9.5l-78 -52q-26 -17 -26 -30q0 -27 41 -27q14 0 38.5 4.5t28.5 4.5q7 0 8.5 -2t1.5 -10v-75z" />
    <glyph glyph-name="tilde" unicode="&#x2dc;" horiz-adv-x="497" 
d="M444 746q0 -120 -122 -120q-38 0 -71 22l-42 29q-26 18 -41 18q-23 0 -23 -27v-19q0 -17 -15 -17h-71q-15 0 -15 17v19q0 119 123 119q39 0 70 -21l43 -28q28 -18 40 -18q23 0 23 27v19q0 16 16 16h70q15 0 15 -16v-20z" />
    <glyph glyph-name="hungarumlaut" unicode="&#x2dd;" horiz-adv-x="443" 
d="M487 772q0 -4 -4 -8l-122 -122q-12 -12 -25 -12h-107q-9 0 -9 7q0 5 4 10l93 117q12 15 27 15h132q11 0 11 -7zM254 772q0 -4 -4 -8l-122 -122q-12 -12 -25 -12h-107q-9 0 -9 7q0 5 4 10l93 117q12 15 27 15h132q11 0 11 -7z" />
    <glyph glyph-name="uni03A9" unicode="&#x3a9;" horiz-adv-x="716" 
d="M358 755q146 0 227 -71t81 -223v-12q0 -38 -3 -67t-13 -62t-27 -57t-47 -45.5t-72 -35.5v-27h111q23 0 23 -20v-114q0 -21 -23 -21h-191q-21 0 -21 21v213q0 13 2.5 17.5t11.5 7.5q45 16 60 57t15 133v12q0 141 -134 141t-134 -141v-12q0 -92 15 -133t60 -57
q9 -3 11.5 -7.5t2.5 -17.5v-213q0 -21 -21 -21h-191q-23 0 -23 21v114q0 20 23 20h111v27q-42 14 -72 35.5t-47 45.5t-27 57t-13 62t-3 67v12q0 152 81 223t227 71z" />
    <glyph glyph-name="uni03BC" unicode="&#x3bc;" horiz-adv-x="612" 
d="M552 49q0 -21 -31 -31q-81 -27 -211 -27q-50 0 -89 9v-171q0 -8 -6 -14t-14 -6h-122q-8 0 -14 6t-6 14v722q0 8 6.5 15t14.5 7h121q8 0 14.5 -7t6.5 -15v-332q0 -51 20.5 -73t67.5 -22q52 0 80 7v420q0 8 6 15t14 7h121q8 0 14.5 -7t6.5 -15v-502z" />
    <glyph glyph-name="pi" unicode="&#x3c0;" horiz-adv-x="672" 
d="M636 454h-69v-320q0 -18 8.5 -21.5t41.5 -3.5h24q10 0 10 -11v-93q0 -5 -1.5 -8t-3 -3.5t-6.5 -1.5q-20 -4 -85 -4q-67 0 -93.5 32.5t-26.5 113.5v320h-198v-434q0 -20 -14 -20h-103q-15 0 -15 20v434h-69q-9 0 -12 3t-3 12v79q0 10 3.5 13t11.5 3h600q8 0 11.5 -3
t3.5 -13v-79q0 -9 -3 -12t-12 -3z" />
    <glyph glyph-name="endash" unicode="&#x2013;" horiz-adv-x="309" 
d="M324 251q0 -8 -6 -13.5t-14 -5.5h-300q-19 0 -19 19v79q0 8 5.5 14t13.5 6h300q8 0 14 -6t6 -14v-79z" />
    <glyph glyph-name="emdash" unicode="&#x2014;" horiz-adv-x="599" 
d="M614 251q0 -8 -6 -13.5t-14 -5.5h-590q-19 0 -19 19v79q0 8 5.5 14t13.5 6h590q8 0 14 -6t6 -14v-79z" />
    <glyph glyph-name="quoteleft" unicode="&#x2018;" horiz-adv-x="253" 
d="M229 757q0 -6 -1 -9l-54 -219q-4 -19 -20 -19h-119q-12 0 -12 11q0 2 2 8l75 219q7 19 19 19h101q9 0 9 -10z" />
    <glyph glyph-name="quoteright" unicode="&#x2019;" horiz-adv-x="253" 
d="M230 756q0 -2 -2 -8l-75 -219q-7 -19 -19 -19h-101q-9 0 -9 10q0 6 1 9l54 219q4 19 20 19h119q12 0 12 -11z" />
    <glyph glyph-name="quotesinglbase" unicode="&#x201a;" horiz-adv-x="253" 
d="M231 153q0 -3 -2 -7l-96 -224q-9 -20 -19 -20h-88q-7 0 -12 4.5t-5 10.5q0 1 0.5 2.5t0.5 2.5l64 224q5 19 20 19h122q15 0 15 -12z" />
    <glyph glyph-name="quotedblleft" unicode="&#x201c;" horiz-adv-x="473" 
d="M449 757q0 -6 -1 -9l-54 -219q-4 -19 -20 -19h-119q-12 0 -12 11q0 2 2 8l74 219q6 19 19 19h102q9 0 9 -10zM229 757q0 -6 -1 -9l-54 -219q-4 -19 -20 -19h-119q-12 0 -12 11q0 2 2 8l75 219q7 19 19 19h101q9 0 9 -10z" />
    <glyph glyph-name="quotedblright" unicode="&#x201d;" horiz-adv-x="473" 
d="M450 756q0 -2 -2 -8l-75 -219q-7 -19 -19 -19h-101q-9 0 -9 10q0 6 1 9l54 219q4 19 20 19h119q12 0 12 -11zM230 756q0 -2 -2 -8l-74 -219q-6 -19 -19 -19h-102q-9 0 -9 10q0 6 1 9l55 219q4 19 20 19h118q12 0 12 -11z" />
    <glyph glyph-name="quotedblbase" unicode="&#x201e;" horiz-adv-x="473" 
d="M460 153q0 -3 -2 -7l-96 -224q-9 -20 -19 -20h-88q-7 0 -12 4.5t-5 10.5q0 1 0.5 2.5t0.5 2.5l64 224q5 19 20 19h122q15 0 15 -12zM231 153q0 -3 -2 -7l-96 -224q-9 -20 -19 -20h-88q-7 0 -12 4.5t-5 10.5q0 1 0.5 2.5t0.5 2.5l64 224q5 19 20 19h122q15 0 15 -12z" />
    <glyph glyph-name="dagger" unicode="&#x2020;" horiz-adv-x="440" 
d="M410 465q0 -16 -19 -16h-92v-435q0 -20 -16 -20h-132q-16 0 -16 20v435h-86q-19 0 -19 16v104q0 15 19 15h86v164q0 19 17 19h131q16 0 16 -19v-164h92q19 0 19 -15v-104z" />
    <glyph glyph-name="daggerdbl" unicode="&#x2021;" horiz-adv-x="440" 
d="M410 243q0 -16 -19 -16h-92v-213q0 -20 -16 -20h-132q-16 0 -16 20v213h-86q-19 0 -19 16v103q0 15 19 15h86v88h-86q-19 0 -19 16v104q0 15 19 15h86v164q0 19 17 19h131q16 0 16 -19v-164h92q19 0 19 -15v-104q0 -16 -19 -16h-92v-88h92q19 0 19 -15v-103z" />
    <glyph glyph-name="bullet" unicode="&#x2022;" horiz-adv-x="418" 
d="M376 367q0 -69 -49 -118t-118 -49t-118 49t-49 118t49 118t118 49t118 -49t49 -118z" />
    <glyph glyph-name="ellipsis" unicode="&#x2026;" horiz-adv-x="767" 
d="M717 20q0 -8 -6 -14t-14 -6h-118q-8 0 -14 6t-6 14v126q0 8 6 13.5t14 5.5h118q8 0 14 -5.5t6 -13.5v-126zM463 20q0 -8 -6 -14t-14 -6h-118q-8 0 -14 6t-6 14v126q0 8 6 13.5t14 5.5h118q8 0 14 -5.5t6 -13.5v-126zM209 20q0 -8 -6 -14t-14 -6h-118q-8 0 -14 6t-6 14
v126q0 8 6 13.5t14 5.5h118q8 0 14 -5.5t6 -13.5v-126z" />
    <glyph glyph-name="perthousand" unicode="&#x2030;" horiz-adv-x="1193" 
d="M1155 166q0 -86 -38 -129t-110 -43t-110 43t-38 129v75q0 86 38 129t110 43t110 -43t38 -129v-75zM801 166q0 -172 -147 -172q-72 0 -110 43t-38 129v75q0 86 38 129t110 43q147 0 147 -172v-75zM698 735q0 -7 -4 -12l-416 -702q-12 -21 -23 -21h-103q-11 0 -11 11
q0 4 3 10l416 702q12 20 25 20h103q10 0 10 -8zM334 502q0 -86 -38 -129t-110 -43t-110 43t-38 129v75q0 171 148 171t148 -171v-75zM1054 166v75q0 48 -11.5 66.5t-35.5 18.5t-36 -18.5t-12 -66.5v-75q0 -48 12 -66.5t36 -18.5t35.5 18.5t11.5 66.5zM701 166v75
q0 48 -11.5 66.5t-35.5 18.5t-36 -18.5t-12 -66.5v-75q0 -48 12 -66.5t36 -18.5t35.5 18.5t11.5 66.5zM233 502v75q0 48 -11.5 66.5t-35.5 18.5t-36 -18.5t-12 -66.5v-75q0 -48 12 -67t36 -19q23 0 35 19t12 67z" />
    <glyph glyph-name="guilsinglleft" unicode="&#x2039;" horiz-adv-x="413" 
d="M370 74q0 -11 -14 -11h-121q-19 0 -30 12l-160 185q-10 11 -10 26t10 26l160 185q11 12 30 12h121q14 0 14 -11q0 -3 -4 -9l-176 -203l176 -203q4 -6 4 -9z" />
    <glyph glyph-name="guilsinglright" unicode="&#x203a;" horiz-adv-x="413" 
d="M378 286q0 -15 -10 -26l-160 -185q-11 -12 -30 -12h-121q-14 0 -14 11q0 3 4 9l176 203l-176 203q-4 6 -4 9q0 11 14 11h121q19 0 30 -12l160 -185q10 -11 10 -26z" />
    <glyph glyph-name="fraction" unicode="&#x2044;" horiz-adv-x="370" 
d="M464 735q0 -7 -4 -12l-416 -702q-12 -21 -23 -21h-103q-11 0 -11 11q0 4 3 10l416 702q12 20 25 20h103q10 0 10 -8z" />
    <glyph glyph-name="n.superior" unicode="&#x207f;" horiz-adv-x="349" 
d="M312 356q0 -6 -4.5 -11t-10.5 -5h-66q-14 0 -14 16v181q0 26 -7.5 36t-29.5 10q-16 0 -48 -17v-210q0 -6 -4 -11t-10 -5h-66q-6 0 -10.5 5t-4.5 11v289q0 5 4 9.5t10 4.5h62q6 0 10.5 -4.5t4.5 -9.5v-6q37 25 84 25q57 0 78.5 -33.5t21.5 -93.5v-181z" />
    <glyph glyph-name="franc" unicode="&#x20a3;" horiz-adv-x="581" 
d="M356 113h-119v-93q0 -8 -6 -14t-14 -6h-130q-8 0 -14 6t-6 14v93h-47q-8 0 -14 6t-6 14v95q0 8 6 14t14 6h47v289q0 66 19 110t55.5 65.5t76 30t93.5 8.5q102 0 193 -13q20 -3 20 -20v-93q0 -8 -6 -14t-14 -6h-203q-36 0 -50 -14.5t-14 -53.5v-90h259q8 0 14 -6t6 -14
v-95q0 -8 -6 -14t-14 -6h-259v-64h119q8 0 14 -6t6 -14v-95q0 -8 -6 -14t-14 -6z" />
    <glyph glyph-name="lira" unicode="&#x20a4;" 
d="M472 230h-170v-20q0 -41 -20 -76h274q20 0 20 -18v-97q0 -8 -6 -13.5t-14 -5.5h-442q-19 0 -19 24v70q0 13 9 24q33 39 33 92v20h-50q-19 0 -19 19v57q0 8 6 13.5t14 5.5h49v65h-50q-19 0 -19 19v57q0 8 6 13.5t14 5.5h49v43q0 118 59 171t197 53q81 0 165 -19
q13 -3 16 -7t3 -13v-99q0 -20 -19 -18q-101 12 -165 12q-51 0 -71 -16t-20 -63v-44h169q8 0 14 -5.5t6 -13.5v-57q0 -19 -19 -19h-170v-65h169q8 0 14 -5.5t6 -13.5v-57q0 -19 -19 -19z" />
    <glyph glyph-name="peseta" unicode="&#x20a7;" horiz-adv-x="1575" 
d="M618 502q0 -67 -25 -116t-69 -75.5t-94 -38.5t-110 -12q-6 0 -81 3v-243q0 -8 -6 -14t-14 -6h-129q-8 0 -14 5.5t-6 13.5v672q0 24 10 34t35 14q83 13 203 13q61 0 111.5 -11.5t94.5 -38t69 -75t25 -116.5v-9zM448 502v9q0 52 -31.5 75.5t-96.5 23.5q-45 0 -81 -3v-204
q22 -2 81 -2q66 0 97 25t31 76zM1041 19q0 -17 -19 -20q-48 -8 -79 -8q-89 0 -128.5 35t-39.5 136v290l-80 13q-21 4 -21 21v66q0 8 6.5 14.5t14.5 6.5h80v82q0 16 20 20l122 21q21 4 21 -17v-106h82q8 0 14 -6t6 -14v-81q0 -8 -6 -14t-14 -6h-82v-291q0 -31 5.5 -39
t27.5 -8h49q21 0 21 -17v-78zM1533 159q0 -74 -54.5 -121t-159.5 -47q-102 0 -182 22q-19 5 -19 23v81q0 23 23 19q95 -14 170 -14q34 0 46.5 9t12.5 30t-37 42l-130 75q-89 51 -89 148q0 155 205 155q88 0 178 -23q19 -5 19 -23v-81q0 -20 -20 -19q-126 13 -166 13
q-30 0 -41.5 -6t-11.5 -23q0 -16 31 -35l124 -71q101 -58 101 -154z" />
    <glyph glyph-name="Euro" unicode="&#x20ac;" 
d="M578 31q0 -17 -22 -23q-51 -17 -139 -17q-118 0 -203 64t-100 203h-27q-8 0 -14 6t-6 14v44q0 8 6 14t14 6h24v62h-24q-8 0 -14 6t-6 14v44q0 8 6 14t14 6h27q8 71 36.5 123.5t71.5 82t91.5 43.5t103.5 14q88 0 139 -17q22 -6 22 -22v-97q0 -20 -19 -20h-3q-101 8 -138 8
q-109 0 -130 -115h213q17 0 17 -15q0 -3 -1 -5l-12 -44q-6 -20 -20 -20h-201v-62h183q14 0 14 -12v-3l-15 -60q-2 -9 -14 -9h-164q19 -118 130 -118q37 0 138 8h3q19 0 19 -20v-97z" />
    <glyph glyph-name="afii61289" unicode="&#x2113;" horiz-adv-x="540" 
d="M499 63q7 -16 -7 -25q-27 -20 -77 -36.5t-103 -16.5q-92 0 -131.5 47t-39.5 154v60l-60 -42q-13 -9 -20 2l-23 36q-7 13 3 20l100 69v265q0 100 44 148.5t138 48.5q95 0 138 -41.5t43 -107.5q0 -164 -202 -310v-137q0 -86 65 -86q32 0 78 23q17 9 25 -5zM427 644
q0 76 -60 76q-40 0 -52.5 -29t-12.5 -95v-172q125 105 125 220z" />
    <glyph glyph-name="trademark" unicode="&#x2122;" horiz-adv-x="830" 
d="M791 349q0 -10 -11 -10h-78q-11 0 -11 10v242q0 42 -13.5 54t-56.5 12v-308q0 -10 -11 -10h-79q-10 0 -10 10v308q-28 0 -70 -4v-304q0 -10 -10 -10h-78q-11 0 -11 10v355q0 18 6 25t22 9q91 9 190 9q59 0 95 -5t67.5 -20.5t45 -47.5t13.5 -83v-242zM320 673
q0 -13 -13 -13h-82v-308q0 -13 -13 -13h-77q-13 0 -13 13v308h-84q-13 0 -13 13v57q0 13 13 13h269q13 0 13 -13v-57z" />
    <glyph glyph-name="Omega" unicode="&#x2126;" horiz-adv-x="716" 
d="M358 755q146 0 227 -71t81 -223v-12q0 -38 -3 -67t-13 -62t-27 -57t-47 -45.5t-72 -35.5v-27h111q23 0 23 -20v-114q0 -21 -23 -21h-191q-21 0 -21 21v213q0 13 2.5 17.5t11.5 7.5q45 16 60 57t15 133v12q0 141 -134 141t-134 -141v-12q0 -92 15 -133t60 -57
q9 -3 11.5 -7.5t2.5 -17.5v-213q0 -21 -21 -21h-191q-23 0 -23 21v114q0 20 23 20h111v27q-42 14 -72 35.5t-47 45.5t-27 57t-13 62t-3 67v12q0 152 81 223t227 71z" />
    <glyph glyph-name="estimated" unicode="&#x212e;" horiz-adv-x="606" 
d="M577 282h-429v-193q66 -63 152 -63q76 0 123 33t87 94l31 -19q-44 -68 -99 -104.5t-142 -36.5q-119 0 -195 84.5t-76 205.5q0 123 75 206.5t200 83.5q124 0 198.5 -84.5t74.5 -206.5zM457 315v163q-68 62 -153 62q-96 0 -156 -62v-163h309z" />
    <glyph glyph-name="onethird" unicode="&#x2153;" horiz-adv-x="803" 
d="M40 706l88 40q6 3 14 3h49q15 0 15 -17v-380q0 -17 -15 -17h-71q-17 0 -17 17v290l-53 -23q-20 -7 -20 12v62q0 9 10 13zM636 735q0 -7 -4 -12l-416 -702q-12 -21 -23 -21h-103q-11 0 -11 11q0 4 3 10l416 702q12 20 25 20h103q10 0 10 -8zM773 121q0 -64 -39 -95
t-108 -31q-60 0 -114 15q-15 6 -15 17v43q0 16 17 16q63 -5 108 -5q26 0 36.5 9.5t10.5 30.5v10q0 40 -37 40h-95q-16 0 -16 17v46q0 16 16 16h93q39 0 39 41v8q0 34 -47 34q-55 0 -97 -6q-26 -4 -26 15v43q0 11 15 17q60 17 112 17q147 0 147 -117v-8q0 -23 -12 -46
t-31 -37q43 -26 43 -80v-10z" />
    <glyph glyph-name="twothirds" unicode="&#x2154;" horiz-adv-x="889" 
d="M722 735q0 -7 -4 -12l-416 -702q-12 -21 -23 -21h-103q-11 0 -11 11q0 4 3 10l416 702q12 20 25 20h103q10 0 10 -8zM859 121q0 -64 -39 -95t-108 -31q-60 0 -114 15q-15 6 -15 17v43q0 16 17 16q63 -5 108 -5q26 0 36.5 9.5t10.5 30.5v10q0 40 -37 40h-95q-16 0 -16 17
v46q0 16 16 16h93q39 0 39 41v8q0 34 -47 34q-55 0 -97 -6q-26 -4 -26 15v43q0 11 15 17q60 17 112 17q147 0 147 -117v-8q0 -23 -12 -46t-31 -37q43 -26 43 -80v-10zM106 549l50 36q5 4 13 9.5t11 8t8.5 6t7 5.5t4.5 5t4 5t2 5t1.5 6t0.5 7q0 15 -11 20.5t-40 5.5
q-47 0 -106 -7q-7 0 -12 5t-5 12v42q0 11 14 17q59 17 117 17q76 0 110.5 -27t34.5 -82q0 -61 -66 -107l-45 -31q-42 -28 -58.5 -44.5t-17.5 -39.5h165q17 0 17 -15v-56q0 -7 -5 -12t-12 -5h-241q-7 0 -12 5t-5 12v55q0 87 76 142z" />
    <glyph glyph-name="oneeighth" unicode="&#x215b;" horiz-adv-x="814" 
d="M40 706l88 40q6 3 14 3h49q15 0 15 -17v-380q0 -17 -15 -17h-71q-17 0 -17 17v290l-53 -23q-20 -7 -20 12v62q0 9 10 13zM636 735q0 -7 -4 -12l-416 -702q-12 -21 -23 -21h-103q-11 0 -11 11q0 4 3 10l416 702q12 20 25 20h103q10 0 10 -8zM784 121q0 -61 -40.5 -93.5
t-108.5 -32.5h-6q-68 0 -108 32.5t-40 93.5v7q0 53 41 86q-39 32 -39 82v6q0 58 38.5 87.5t107.5 29.5h6q69 0 108.5 -29.5t39.5 -87.5v-6q0 -50 -41 -82q42 -34 42 -86v-7zM683 124v5q0 19 -10.5 32.5t-31.5 13.5h-17q-22 0 -32.5 -13.5t-10.5 -32.5v-5q0 -22 12.5 -35.5
t35.5 -13.5h6q23 0 35.5 13.5t12.5 35.5zM636 339h-7q-48 0 -48 -46q0 -41 43 -41h17q43 0 43 41q0 46 -48 46z" />
    <glyph glyph-name="threeeighths" unicode="&#x215c;" horiz-adv-x="887" 
d="M709 735q0 -7 -4 -12l-416 -702q-12 -21 -23 -21h-103q-11 0 -11 11q0 4 3 10l416 702q12 20 25 20h103q10 0 10 -8zM857 121q0 -61 -40.5 -93.5t-108.5 -32.5h-6q-68 0 -108 32.5t-40 93.5v7q0 53 41 86q-39 32 -39 82v6q0 58 38.5 87.5t107.5 29.5h6q69 0 108.5 -29.5
t39.5 -87.5v-6q0 -50 -41 -82q42 -34 42 -86v-7zM756 124v5q0 19 -10.5 32.5t-31.5 13.5h-17q-22 0 -32.5 -13.5t-10.5 -32.5v-5q0 -22 12.5 -35.5t35.5 -13.5h6q23 0 35.5 13.5t12.5 35.5zM709 339h-7q-48 0 -48 -46q0 -41 43 -41h17q43 0 43 41q0 46 -48 46zM306 456
q0 -64 -39 -95t-108 -31q-60 0 -114 15q-15 6 -15 17v43q0 16 17 16q63 -5 108 -5q26 0 36.5 9.5t10.5 30.5v10q0 40 -37 40h-95q-16 0 -16 17v46q0 16 16 16h93q39 0 39 41v8q0 34 -47 34q-55 0 -97 -6q-26 -4 -26 15v43q0 11 15 17q60 17 112 17q147 0 147 -117v-8
q0 -23 -12 -46t-31 -37q43 -26 43 -80v-10z" />
    <glyph glyph-name="fiveeighths" unicode="&#x215d;" horiz-adv-x="887" 
d="M709 735q0 -7 -4 -12l-416 -702q-12 -21 -23 -21h-103q-11 0 -11 11q0 4 3 10l416 702q12 20 25 20h103q10 0 10 -8zM857 121q0 -61 -40.5 -93.5t-108.5 -32.5h-6q-68 0 -108 32.5t-40 93.5v7q0 53 41 86q-39 32 -39 82v6q0 58 38.5 87.5t107.5 29.5h6q69 0 108.5 -29.5
t39.5 -87.5v-6q0 -50 -41 -82q42 -34 42 -86v-7zM756 124v5q0 19 -10.5 32.5t-31.5 13.5h-17q-22 0 -32.5 -13.5t-10.5 -32.5v-5q0 -22 12.5 -35.5t35.5 -13.5h6q23 0 35.5 13.5t12.5 35.5zM709 339h-7q-48 0 -48 -46q0 -41 43 -41h17q43 0 43 41q0 46 -48 46zM306 469
q0 -68 -39 -103.5t-113 -35.5q-58 0 -109 16q-15 4 -15 18v43q0 15 18 15q68 -6 96 -6q34 0 45.5 12.5t11.5 40.5v4q0 25 -15 34.5t-55 9.5h-85q-5 0 -9 4.5t-4 9.5l17 201q0 7 5 12t12 5h210q7 0 12 -5t5 -12v-54q0 -16 -17 -16h-141q-1 -7 -3.5 -29t-3.5 -34h10
q80 0 123.5 -28t43.5 -98v-4z" />
    <glyph glyph-name="seveneighths" unicode="&#x215e;" horiz-adv-x="815" 
d="M637 735q0 -7 -4 -12l-416 -702q-12 -21 -23 -21h-103q-11 0 -11 11q0 4 3 10l416 702q12 20 25 20h103q10 0 10 -8zM785 121q0 -61 -40.5 -93.5t-108.5 -32.5h-6q-68 0 -108 32.5t-40 93.5v7q0 53 41 86q-39 32 -39 82v6q0 58 38.5 87.5t107.5 29.5h6q69 0 108.5 -29.5
t39.5 -87.5v-6q0 -50 -41 -82q42 -34 42 -86v-7zM684 124v5q0 19 -10.5 32.5t-31.5 13.5h-17q-22 0 -32.5 -13.5t-10.5 -32.5v-5q0 -22 12.5 -35.5t35.5 -13.5h6q23 0 35.5 13.5t12.5 35.5zM637 339h-7q-48 0 -48 -46q0 -41 43 -41h17q43 0 43 41q0 46 -48 46zM300 663
l-146 -314q-7 -14 -17 -14h-75q-10 0 -14 6.5t0 13.5l146 307h-146q-18 0 -18 16v54q0 7 5.5 12t12.5 5h234q10 0 17.5 -7.5t7.5 -16.5v-31q0 -14 -7 -31z" />
    <glyph glyph-name="partialdiff" unicode="&#x2202;" horiz-adv-x="623" 
d="M583 457q0 -105 -21 -210q-27 -129 -98 -192.5t-194 -63.5q-113 0 -171.5 55t-58.5 156q0 42 10 106q42 237 270 237q69 0 108 -30q-2 15 -6 25q-10 73 -52 116.5t-139 43.5q-50 0 -97 -8q-8 -1 -12 1.5t-3 9.5l7 65q2 15 19 20q58 11 115 11q160 0 241.5 -91.5
t81.5 -250.5zM409 339q0 42 -18.5 62t-60.5 20q-96 0 -116 -137q-9 -60 -9 -85q0 -85 79 -85q94 0 115 137q10 60 10 88z" />
    <glyph glyph-name="Delta" unicode="&#x2206;" horiz-adv-x="669" 
d="M650 16q0 -16 -17 -16h-597q-17 0 -17 16l1 2v3l149 620q16 65 59.5 88t106.5 23t106 -23t59 -88l149 -620q0 -1 1 -3v-2zM447 137l-99 458q-3 15 -13 15q-11 0 -14 -15l-99 -458h225z" />
    <glyph glyph-name="product" unicode="&#x220f;" horiz-adv-x="839" 
d="M714 -54q0 -8 -6 -14t-14 -6h-131q-8 0 -14 6t-6 14v648h-247v-648q0 -8 -6 -14t-14 -6h-131q-8 0 -14 6t-6 14v648h-50q-8 0 -14 6t-6 14v109q0 8 6 14t14 6h689q8 0 14 -6t6 -14v-109q0 -8 -6 -14t-14 -6h-50v-648z" />
    <glyph glyph-name="summation" unicode="&#x2211;" horiz-adv-x="547" 
d="M492 -59q0 -16 -14 -16h-406q-17 0 -17 20v126q0 14 6 24l171 227q3 5 3 12t-3 12l-171 227q-6 10 -6 24v126q0 20 17 20h406q14 0 14 -16v-116q0 -17 -14 -17h-244q-8 0 -3 -9l157 -217q6 -9 6 -20v-28q0 -11 -6 -20l-157 -218q-5 -9 3 -9h244q14 0 14 -17v-115z" />
    <glyph glyph-name="minus" unicode="&#x2212;" 
d="M558 346q0 -16 -20 -16h-431q-20 0 -20 16v90q0 16 20 16h431q20 0 20 -16v-90z" />
    <glyph glyph-name="uni2215" unicode="&#x2215;" horiz-adv-x="370" 
d="M464 735q0 -7 -4 -12l-416 -702q-12 -21 -23 -21h-103q-11 0 -11 11q0 4 3 10l416 702q12 20 25 20h103q10 0 10 -8z" />
    <glyph glyph-name="uni2219" unicode="&#x2219;" horiz-adv-x="274" 
d="M216 319q0 -8 -6 -14t-14 -6h-117q-8 0 -14.5 6t-6.5 14v126q0 8 6.5 13.5t14.5 5.5h117q8 0 14 -5.5t6 -13.5v-126z" />
    <glyph glyph-name="radical" unicode="&#x221a;" horiz-adv-x="730" 
d="M714 858l-371 -817l-31 423q-1 15 -17 15h-168q-11 0 -14 -14l-17 -97q-2 -12 9 -12h62q6 0 7.5 -2t2.5 -9l32 -402q2 -10 5 -14t12 -4h185q21 0 28 16l427 918q7 14 -8 14h-125q-3 0 -5.5 -0.5t-4 -1t-3 -2t-2 -2.5t-2 -4.5t-2.5 -4.5z" />
    <glyph glyph-name="infinity" unicode="&#x221e;" horiz-adv-x="649" 
d="M609 366q0 -235 -175 -235h-6q-66 0 -112 46q-38 -47 -98 -47h-7q-171 0 -171 235v25q0 235 174 235h7q65 0 111 -46q36 47 100 47h6q171 0 171 -236v-24zM490 366v24q0 42 -2.5 67t-14.5 45.5t-35 20.5h-5q-23 -1 -34 -33t-22 -113q-10 -78 -18 -110q29 -34 70 -34h5
q56 0 56 133zM288 485q-30 37 -68 37h-5q-55 0 -55 -132v-25q0 -29 1.5 -48t6 -40.5t16 -32.5t28.5 -11h5q23 0 34.5 32.5t21.5 118.5q11 80 15 101z" />
    <glyph glyph-name="integral" unicode="&#x222b;" horiz-adv-x="479" 
d="M321 606v-643q0 -101 -39.5 -136t-128.5 -35q-31 0 -79 8q-19 3 -19 20v78q0 17 21 17h49q22 0 27.5 8t5.5 39v643q0 101 39.5 136t128.5 35q31 0 79 -8q19 -3 19 -20v-78q0 -17 -21 -17h-49q-22 0 -27.5 -8t-5.5 -39z" />
    <glyph glyph-name="approxequal" unicode="&#x2248;" horiz-adv-x="549" 
d="M470 547q0 -120 -122 -120q-38 0 -71 22l-42 29q-26 18 -41 18q-23 0 -23 -27v-19q0 -17 -15 -17h-71q-15 0 -15 17v19q0 119 123 119q38 0 70 -21l43 -28q28 -18 40 -18q23 0 23 27v19q0 16 16 16h70q15 0 15 -16v-20zM470 327q0 -120 -122 -120q-38 0 -71 22l-42 29
q-26 18 -41 18q-23 0 -23 -27v-19q0 -17 -15 -17h-71q-15 0 -15 17v19q0 119 123 119q38 0 70 -21l43 -28q28 -18 40 -18q23 0 23 27v19q0 16 16 16h70q15 0 15 -16v-20z" />
    <glyph glyph-name="notequal" unicode="&#x2260;" 
d="M364 743h107q10 0 14.5 -6t2.5 -14l-43 -143h87q20 0 20 -16v-90q0 -16 -20 -16h-124l-40 -134h164q20 0 20 -16v-90q0 -16 -20 -16h-201l-54 -181q-6 -21 -20 -21h-107q-25 0 -18 21l54 181h-73q-20 0 -20 16v90q0 16 20 16h110l41 134h-151q-20 0 -20 16v90q0 16 20 16
h188l43 143q5 20 20 20z" />
    <glyph glyph-name="lessequal" unicode="&#x2264;" 
d="M536 150q0 -13 -12 -13h-139q-11 0 -24 11l-233 207q-20 17 -20 36t20 36l233 207q13 11 24 11h139q12 0 12 -13q0 -6 -6 -12l-259 -229l259 -229q6 -6 6 -12zM558 -4q0 -16 -20 -16h-431q-20 0 -20 16v71q0 16 20 16h431q20 0 20 -16v-71z" />
    <glyph glyph-name="greaterequal" unicode="&#x2265;" 
d="M536 391q0 -18 -21 -36l-232 -207q-13 -11 -24 -11h-139q-12 0 -12 13q0 6 6 12l259 229l-259 229q-6 6 -6 12q0 13 12 13h139q11 0 24 -11l232 -207q21 -18 21 -36zM558 -4q0 -16 -20 -16h-431q-20 0 -20 16v71q0 16 20 16h431q20 0 20 -16v-71z" />
    <glyph glyph-name="lozenge" unicode="&#x25ca;" horiz-adv-x="576" 
d="M536 364q0 -21 -15 -41l-203 -249q-16 -19 -30 -19t-29 19l-203 249q-16 19 -16 41q0 21 16 40l204 255q11 14 28 14q18 0 29 -14l204 -255q15 -20 15 -40zM392 363q0 8 -8 19l-77 100q-9 10 -19 10t-19 -10l-77 -100q-8 -11 -8 -19q0 -11 9 -21l76 -95q10 -13 19 -13
q10 0 20 13l75 95q9 10 9 21z" />
    <glyph glyph-name="j.dotless" unicode="&#xe008;" horiz-adv-x="290" 
d="M226 -32q0 -95 -40 -133t-118 -38q-39 0 -80 7q-20 3 -20 20v79q0 18 21 18h44q20 0 25.5 10t5.5 37v584q0 8 5.5 14.5t13.5 6.5h124q8 0 13.5 -6.5t5.5 -14.5v-584z" />
    <glyph glyph-name="uni2014.alt" unicode="&#xe009;" horiz-adv-x="599" 
d="M549 251q0 -8 -6 -13.5t-14 -5.5h-460q-19 0 -19 19v79q0 8 5.5 14t13.5 6h460q8 0 14 -6t6 -14v-79z" />
    <glyph glyph-name="zero.fitted" unicode="&#xf639;" 
d="M592 328q0 -337 -270 -337q-269 0 -269 337v86q0 338 269 338q270 0 270 -338v-86zM421 328v86q0 110 -26 153t-73 43t-72.5 -43t-25.5 -153v-86q0 -110 25.5 -152.5t72.5 -42.5t73 42.5t26 152.5z" />
    <glyph glyph-name="two.fitted" unicode="&#xf63a;" 
d="M570 561q0 -110 -115 -188l-85 -57q-39 -26 -60 -41.5t-43.5 -37.5t-32 -44t-9.5 -47v-4h316q8 0 14 -5.5t6 -13.5v-103q0 -8 -6 -14t-14 -6h-445q-8 0 -14 6t-6 14v102q0 79 37.5 145t98.5 109l92 65q76 53 88 68q14 18 14 48q0 33 -23 46.5t-83 13.5q-65 0 -197 -13h-2
q-18 0 -18 20v78q0 13 19 19q102 31 213 31q136 0 195.5 -46.5t59.5 -144.5z" />
    <glyph glyph-name="three.fitted" unicode="&#xf63b;" 
d="M566 212q0 -111 -70 -166t-191 -55q-116 0 -207 28q-19 6 -19 19v80q0 18 18 18h2q105 -9 199 -9q99 0 99 85v18q0 86 -81 86h-176q-8 0 -13.5 6t-5.5 14v85q0 19 19 19h172q45 0 65 24.5t20 62.5v14q0 37 -22 56t-77 19q-67 0 -197 -12h-2q-18 0 -18 18v80q0 13 20 19
q101 31 204 31q128 0 194.5 -48t66.5 -157v-14q0 -44 -25 -87.5t-64 -65.5q41 -22 65 -61.5t24 -88.5v-18z" />
    <glyph glyph-name="four.fitted" unicode="&#xf63c;" 
d="M606 187q0 -8 -6 -14t-14 -6h-66v-147q0 -8 -5.5 -14t-13.5 -6h-133q-8 0 -13.5 6t-5.5 14v147h-289q-8 0 -14 6t-6 14v97q0 15 11 31l316 414q11 14 26 14h107q8 0 14 -6t6 -14v-424h66q8 0 14 -6t6 -14v-92zM354 299v220q0 6 -4 6q-1 0 -3 -2l-157 -214q-2 -2 -2 -6
t6 -4h160z" />
    <glyph glyph-name="five.fitted" unicode="&#xf63d;" 
d="M566 236q0 -119 -69.5 -182t-200.5 -63q-104 0 -197 29q-20 6 -20 22v79q0 18 18 18h2q108 -12 180 -12q67 0 91 26.5t24 82.5v8q0 51 -30 71.5t-112 20.5h-155q-6 0 -10 4.5t-4 9.5v1l31 373q1 8 7 13.5t13 5.5h389q8 0 14 -5.5t6 -13.5v-100q0 -8 -6 -13.5t-14 -5.5
h-272l-12 -138h29q68 0 120 -10.5t93.5 -35.5t63 -69.5t21.5 -107.5v-8z" />
    <glyph glyph-name="six.fitted" unicode="&#xf63e;" 
d="M589 245q0 -117 -68.5 -185.5t-195.5 -68.5q-125 0 -196.5 74.5t-71.5 219.5v153q0 314 278 314q115 0 197 -20q22 -6 22 -22v-87q0 -21 -18 -21h-5q-84 14 -182 14q-67 0 -96 -32t-29 -114v-7q62 12 118 12q111 0 179 -53t68 -170v-7zM422 245v7q0 104 -107 104
q-33 0 -91 -10v-61q0 -95 26 -129.5t75 -34.5q46 0 71.5 27.5t25.5 96.5z" />
    <glyph glyph-name="seven.fitted" unicode="&#xf63f;" horiz-adv-x="588" 
d="M534 637q0 -12 -16 -46l-263 -572q-9 -19 -25 -19h-137q-18 0 -18 12q0 5 3 11l272 571q1 2 1 5q0 6 -7 6h-277q-8 0 -14.5 5.5t-6.5 13.5v100q0 8 6.5 13.5t14.5 5.5h433q14 0 24 -10t10 -23v-73z" />
    <glyph glyph-name="eight.fitted" unicode="&#xf640;" 
d="M593 213q0 -106 -72 -164t-193 -58h-11q-121 0 -193 58t-72 164v13q0 98 85 160q-81 56 -81 150v11q0 102 69.5 153.5t191.5 51.5h11q122 0 192 -51.5t70 -153.5v-11q0 -94 -82 -150q85 -62 85 -160v-13zM429 531v5q0 91 -101 91h-11q-101 0 -101 -91v-5q0 -40 23 -63.5
t68 -23.5h31q45 0 68 23.5t23 63.5zM428 218v10q0 39 -22 67.5t-68 28.5h-31q-46 0 -68 -28.5t-22 -67.5v-10q0 -45 26 -73t74 -28h11q48 0 74 28t26 73z" />
    <glyph glyph-name="nine.fitted" unicode="&#xf641;" 
d="M589 305q0 -314 -278 -314q-115 0 -197 20q-22 5 -22 22v87q0 21 18 21h5q84 -14 182 -14q67 0 96 32t29 114v7q-62 -12 -118 -12q-111 0 -179 53t-68 170v7q0 116 68.5 185t195.5 69q125 0 196.5 -74.5t71.5 -219.5v-153zM422 397v61q0 95 -26 129.5t-75 34.5
q-46 0 -71.5 -27.5t-25.5 -96.5v-7q0 -104 107 -104q33 0 91 10z" />
    <glyph glyph-name="zero.taboldstyle" unicode="&#xf643;" 
d="M592 298q0 -154 -70 -230.5t-200 -76.5t-199.5 76t-69.5 231v6q0 155 69.5 231.5t199.5 76.5t200 -76.5t70 -231.5v-6zM421 298v6q0 96 -25.5 131t-73.5 35q-47 0 -72.5 -35t-25.5 -131v-6q0 -96 25 -130.5t73 -34.5t73.5 34.5t25.5 130.5z" />
    <glyph glyph-name="one.taboldstyle" unicode="&#xf644;" 
d="M121 142h133v283l-130 -56q-8 -3 -12 -3q-11 0 -11 13v114q0 10 10 14l181 85q9 4 23 4h90q19 0 19 -19v-435h133q8 0 14 -5.5t6 -13.5v-103q0 -8 -6 -14t-14 -6h-436q-8 0 -14 6t-6 14v103q0 8 6 13.5t14 5.5z" />
    <glyph glyph-name="two.taboldstyle" unicode="&#xf645;" 
d="M570 434q0 -63 -37 -109t-123 -81q-88 -37 -121.5 -56.5t-33.5 -41.5v-4h286q8 0 14 -5.5t6 -13.5v-103q0 -8 -6 -14t-14 -6h-445q-8 0 -14 6t-6 14v70q0 56 13.5 97.5t41.5 70t58 46.5t76 38q107 47 122 57q19 14 19 35q0 25 -22.5 34t-83.5 9q-65 0 -197 -13h-2
q-18 0 -18 20v78q0 13 19 19q102 31 213 31q137 0 196 -42t59 -136z" />
    <glyph glyph-name="three.taboldstyle" unicode="&#xf646;" 
d="M566 72q0 -111 -70 -166t-191 -55q-116 0 -207 28q-19 6 -19 19v80q0 20 20 18q105 -9 199 -9q99 0 99 85v18q0 86 -81 86h-176q-8 0 -13.5 6t-5.5 14v85q0 19 19 19h172q45 0 65 24.5t20 62.5v14q0 37 -22 56t-77 19q-31 0 -61 -1.5t-71 -5t-65 -5.5q-20 -1 -20 18v80
q0 13 20 19q101 31 204 31q128 0 194.5 -48t66.5 -157v-14q0 -44 -25 -87.5t-64 -65.5q41 -22 65 -61.5t24 -88.5v-18z" />
    <glyph glyph-name="four.taboldstyle" unicode="&#xf647;" 
d="M606 40q0 -8 -6 -14t-14 -6h-66v-147q0 -8 -5.5 -14t-13.5 -6h-133q-8 0 -13.5 6t-5.5 14v147h-289q-8 0 -14 6t-6 14v97q0 15 11 31l316 414q11 14 26 14h107q20 0 20 -20v-424h66q8 0 14 -6t6 -14v-92zM354 152v220q0 6 -4 6q-1 0 -3 -2l-157 -214q-2 -2 -2 -6t6 -4
h160z" />
    <glyph glyph-name="five.taboldstyle" unicode="&#xf648;" 
d="M566 89q0 -119 -69.5 -182t-200.5 -63q-104 0 -197 29q-20 6 -20 22v79q0 18 18 18h2q108 -12 180 -12q67 0 91 26.5t24 82.5v8q0 51 -30 71.5t-112 20.5h-155q-6 0 -10 4.5t-4 9.5v1l31 373q1 8 7 13.5t13 5.5h389q8 0 14 -5.5t6 -13.5v-100q0 -8 -6 -13.5t-14 -5.5
h-272l-12 -138h29q68 0 120 -10.5t93.5 -35.5t63 -69.5t21.5 -107.5v-8z" />
    <glyph glyph-name="six.taboldstyle" unicode="&#xf649;" 
d="M589 245q0 -117 -68.5 -185.5t-195.5 -68.5q-125 0 -196.5 74.5t-71.5 219.5v153q0 314 278 314q115 0 197 -20q22 -6 22 -22v-87q0 -21 -18 -21h-5q-84 14 -182 14q-67 0 -96 -32t-29 -114v-7q62 12 118 12q111 0 179 -53t68 -170v-7zM422 245v7q0 104 -107 104
q-33 0 -91 -10v-61q0 -95 26 -129.5t75 -34.5q46 0 71.5 27.5t25.5 96.5z" />
    <glyph glyph-name="seven.taboldstyle" unicode="&#xf64a;" 
d="M566 491q0 -12 -16 -46l-263 -572q-9 -19 -25 -19h-137q-18 0 -18 12q0 5 3 11l272 571q1 2 1 5q0 6 -7 6h-277q-8 0 -14.5 5.5t-6.5 13.5v100q0 8 6.5 13.5t14.5 5.5h433q14 0 24 -10t10 -23v-73z" />
    <glyph glyph-name="eight.taboldstyle" unicode="&#xf64b;" 
d="M593 213q0 -106 -72 -164t-193 -58h-11q-121 0 -193 58t-72 164v13q0 98 85 160q-81 56 -81 150v11q0 102 69.5 153.5t191.5 51.5h11q122 0 192 -51.5t70 -153.5v-11q0 -94 -82 -150q85 -62 85 -160v-13zM429 531v5q0 91 -101 91h-11q-101 0 -101 -91v-5q0 -40 23 -63.5
t68 -23.5h31q45 0 68 23.5t23 63.5zM428 218v10q0 39 -22 67.5t-68 28.5h-31q-46 0 -68 -28.5t-22 -67.5v-10q0 -45 26 -73t74 -28h11q48 0 74 28t26 73z" />
    <glyph glyph-name="nine.taboldstyle" unicode="&#xf64c;" 
d="M589 166q0 -314 -278 -314q-115 0 -197 20q-22 6 -22 22v87q0 14 5 18.5t18 2.5q134 -14 182 -14q67 0 96 32t29 114v7q-62 -12 -118 -12q-111 0 -179 53t-68 170v7q0 117 68.5 185.5t195.5 68.5q125 0 196.5 -74.5t71.5 -219.5v-153zM422 258v61q0 95 -26 129.5
t-75 34.5q-46 0 -71.5 -27.5t-25.5 -96.5v-7q0 -104 107 -104q33 0 91 10z" />
    <glyph glyph-name="zero.denominator" unicode="&#xf655;" horiz-adv-x="355" 
d="M329 183q0 -188 -152 -188q-151 0 -151 188v47q0 189 151 189q152 0 152 -189v-47zM225 183v47q0 57 -12.5 78.5t-35.5 21.5t-35 -21.5t-12 -78.5v-47q0 -56 12 -77.5t35 -21.5t35.5 21.5t12.5 77.5z" />
    <glyph glyph-name="one.denominator" unicode="&#xf656;" horiz-adv-x="241" 
d="M26 371l88 40q6 3 14 3h49q15 0 15 -17v-380q0 -17 -15 -17h-71q-17 0 -17 17v290l-53 -23q-20 -7 -20 12v62q0 9 10 13z" />
    <glyph glyph-name="two.denominator" unicode="&#xf657;" horiz-adv-x="355" 
d="M114 214l50 36q5 4 13 9.5t11 8t8.5 6t7 5.5t4.5 5t4 5t2 5t1.5 6t0.5 7q0 15 -11 20.5t-40 5.5q-47 0 -106 -7q-7 0 -12 5t-5 12v42q0 11 14 17q59 17 117 17q76 0 110.5 -27t34.5 -82q0 -61 -66 -107l-45 -31q-42 -28 -58.5 -44.5t-17.5 -39.5h165q17 0 17 -15v-56
q0 -7 -5 -12t-12 -5h-241q-7 0 -12 5t-5 12v55q0 87 76 142z" />
    <glyph glyph-name="three.denominator" unicode="&#xf658;" horiz-adv-x="355" 
d="M315 121q0 -64 -39 -95t-108 -31q-60 0 -114 15q-15 6 -15 17v43q0 16 17 16q63 -5 108 -5q26 0 36.5 9.5t10.5 30.5v10q0 40 -37 40h-95q-16 0 -16 17v46q0 16 16 16h93q39 0 39 41v8q0 34 -47 34q-55 0 -97 -6q-26 -4 -26 15v43q0 11 15 17q60 17 112 17
q147 0 147 -117v-8q0 -23 -12 -46t-31 -37q43 -26 43 -80v-10z" />
    <glyph glyph-name="four.denominator" unicode="&#xf659;" horiz-adv-x="355" 
d="M336 107q0 -7 -5 -12t-11 -5h-30v-73q0 -17 -16 -17h-72q-16 0 -16 17v73h-151q-6 0 -11 5t-5 12v52q0 11 7 21l171 224q8 10 18 10h58q7 0 12 -5t5 -12v-224h30q16 0 16 -17v-49zM189 173v103l-76 -103h76z" />
    <glyph glyph-name="five.denominator" unicode="&#xf65a;" horiz-adv-x="355" 
d="M315 134q0 -68 -39 -103.5t-113 -35.5q-58 0 -109 16q-15 4 -15 18v43q0 15 18 15q68 -6 96 -6q34 0 45.5 12.5t11.5 40.5v4q0 25 -15 34.5t-55 9.5h-85q-5 0 -9 4.5t-4 9.5l17 201q0 7 5 12t12 5h210q7 0 12 -5t5 -12v-54q0 -16 -17 -16h-141q-1 -7 -3.5 -29t-3.5 -34
h10q80 0 123.5 -28t43.5 -98v-4z" />
    <glyph glyph-name="six.denominator" unicode="&#xf65b;" horiz-adv-x="355" 
d="M327 139q0 -66 -38.5 -105t-109.5 -39q-70 0 -110.5 41.5t-40.5 123.5v83q0 176 156 176q50 0 110 -12q15 -3 15 -17v-47q0 -7 -1 -11t-5.5 -6.5t-13.5 -0.5q-40 8 -97 8q-33 0 -47 -15.5t-15 -54.5q30 5 58 5q62 0 100.5 -29.5t38.5 -95.5v-4zM225 139v4q0 50 -52 50
q-21 0 -43 -5v-28q0 -48 12.5 -65t36.5 -17q46 0 46 61z" />
    <glyph glyph-name="seven.denominator" unicode="&#xf65c;" horiz-adv-x="323" 
d="M291 328l-146 -314q-7 -14 -17 -14h-75q-10 0 -14 6t0 14l146 307h-146q-18 0 -18 16v54q0 7 5.5 12t12.5 5h234q10 0 17.5 -7.5t7.5 -16.5v-31q0 -14 -7 -31z" />
    <glyph glyph-name="eight.denominator" unicode="&#xf65d;" horiz-adv-x="355" 
d="M329 121q0 -61 -40.5 -93.5t-108.5 -32.5h-6q-68 0 -108 32.5t-40 93.5v7q0 53 41 86q-39 32 -39 82v6q0 58 38.5 87.5t107.5 29.5h6q69 0 108.5 -29.5t39.5 -87.5v-6q0 -50 -41 -82q42 -34 42 -86v-7zM228 124v5q0 19 -10.5 32.5t-31.5 13.5h-17q-22 0 -32.5 -13.5
t-10.5 -32.5v-5q0 -22 12.5 -35.5t35.5 -13.5h6q23 0 35.5 13.5t12.5 35.5zM181 339h-7q-48 0 -48 -46q0 -41 43 -41h17q43 0 43 41q0 46 -48 46z" />
    <glyph glyph-name="nine.denominator" unicode="&#xf65e;" horiz-adv-x="355" 
d="M327 171q0 -176 -156 -176q-59 0 -107 11q-17 4 -17 18v47q0 5 0.5 8t2.5 6t5.5 3h10.5q46 -7 97 -7q33 0 47 15t15 53q-30 -4 -58 -4q-62 0 -100.5 30t-38.5 96v4q0 67 39 105.5t110 38.5q70 0 110 -42t40 -123v-83zM225 225v29q0 47 -12 64.5t-36 17.5q-47 0 -47 -61
v-4q0 -50 52 -50q17 0 43 4z" />
    <glyph glyph-name="zero.numerator" unicode="&#xf661;" horiz-adv-x="355" 
d="M329 518q0 -188 -152 -188q-151 0 -151 188v47q0 189 151 189q152 0 152 -189v-47zM225 518v47q0 57 -12.5 78.5t-35.5 21.5t-35 -21.5t-12 -78.5v-47q0 -56 12 -77.5t35 -21.5t35.5 21.5t12.5 77.5z" />
    <glyph glyph-name="one.numerator" unicode="&#xf662;" horiz-adv-x="241" 
d="M26 706l88 40q6 3 14 3h49q15 0 15 -17v-380q0 -17 -15 -17h-71q-17 0 -17 17v290l-53 -23q-20 -7 -20 12v62q0 9 10 13z" />
    <glyph glyph-name="two.numerator" unicode="&#xf663;" horiz-adv-x="355" 
d="M114 549l50 36q5 4 13 9.5t11 8t8.5 6t7 5.5t4.5 5t4 5t2 5t1.5 6t0.5 7q0 15 -11 20.5t-40 5.5q-47 0 -106 -7q-7 0 -12 5t-5 12v42q0 11 14 17q59 17 117 17q76 0 110.5 -27t34.5 -82q0 -61 -66 -107l-45 -31q-42 -28 -58.5 -44.5t-17.5 -39.5h165q17 0 17 -15v-56
q0 -7 -5 -12t-12 -5h-241q-7 0 -12 5t-5 12v55q0 87 76 142z" />
    <glyph glyph-name="three.numerator" unicode="&#xf664;" horiz-adv-x="355" 
d="M315 456q0 -64 -39 -95t-108 -31q-60 0 -114 15q-15 6 -15 17v43q0 16 17 16q63 -5 108 -5q26 0 36.5 9.5t10.5 30.5v10q0 40 -37 40h-95q-16 0 -16 17v46q0 16 16 16h93q39 0 39 41v8q0 34 -47 34q-55 0 -97 -6q-26 -4 -26 15v43q0 11 15 17q60 17 112 17
q147 0 147 -117v-8q0 -23 -12 -46t-31 -37q43 -26 43 -80v-10z" />
    <glyph glyph-name="four.numerator" unicode="&#xf665;" horiz-adv-x="355" 
d="M336 442q0 -7 -5 -12t-11 -5h-30v-73q0 -17 -16 -17h-72q-16 0 -16 17v73h-151q-6 0 -11 5t-5 12v52q0 10 7 21l171 224q8 10 18 10h58q7 0 12 -5t5 -12v-224h30q16 0 16 -17v-49zM189 508v103l-76 -103h76z" />
    <glyph glyph-name="five.numerator" unicode="&#xf666;" horiz-adv-x="355" 
d="M315 469q0 -68 -39 -103.5t-113 -35.5q-58 0 -109 16q-15 4 -15 18v43q0 15 18 15q68 -6 96 -6q34 0 45.5 12.5t11.5 40.5v4q0 25 -15 34.5t-55 9.5h-85q-5 0 -9 4.5t-4 9.5l17 201q0 7 5 12t12 5h210q7 0 12 -5t5 -12v-54q0 -16 -17 -16h-141q-1 -7 -3.5 -29t-3.5 -34
h10q80 0 123.5 -28t43.5 -98v-4z" />
    <glyph glyph-name="six.numerator" unicode="&#xf667;" horiz-adv-x="355" 
d="M327 474q0 -66 -38.5 -105t-109.5 -39q-70 0 -110.5 41.5t-40.5 123.5v83q0 176 156 176q50 0 110 -12q15 -3 15 -17v-47q0 -7 -1 -11t-5.5 -6.5t-13.5 -0.5q-40 8 -97 8q-33 0 -47 -15.5t-15 -54.5q30 5 58 5q62 0 100.5 -29.5t38.5 -95.5v-4zM225 474v4q0 50 -52 50
q-21 0 -43 -5v-28q0 -48 12.5 -65t36.5 -17q46 0 46 61z" />
    <glyph glyph-name="seven.numerator" unicode="&#xf668;" horiz-adv-x="323" 
d="M291 663l-146 -314q-7 -14 -17 -14h-75q-10 0 -14 6.5t0 13.5l146 307h-146q-18 0 -18 16v54q0 7 5.5 12t12.5 5h234q10 0 17.5 -7.5t7.5 -16.5v-31q0 -14 -7 -31z" />
    <glyph glyph-name="eight.numerator" unicode="&#xf669;" horiz-adv-x="355" 
d="M329 456q0 -61 -40.5 -93.5t-108.5 -32.5h-6q-68 0 -108 32.5t-40 93.5v7q0 53 41 86q-39 31 -39 82v6q0 58 38.5 87.5t107.5 29.5h6q69 0 108.5 -29.5t39.5 -87.5v-6q0 -50 -41 -82q42 -34 42 -86v-7zM228 459v5q0 19 -10.5 32.5t-31.5 13.5h-17q-22 0 -32.5 -13.5
t-10.5 -32.5v-5q0 -22 12.5 -35.5t35.5 -13.5h6q23 0 35.5 13.5t12.5 35.5zM181 674h-7q-48 0 -48 -46q0 -41 43 -41h17q43 0 43 41q0 46 -48 46z" />
    <glyph glyph-name="nine.numerator" unicode="&#xf66a;" horiz-adv-x="355" 
d="M327 506q0 -176 -156 -176q-59 0 -107 11q-17 4 -17 18v47q0 5 0.5 8t2.5 6t5.5 3h10.5q45 -7 97 -7q33 0 47 15t15 53q-30 -4 -58 -4q-62 0 -100.5 30t-38.5 96v4q0 66 39 105t110 39q70 0 110 -42t40 -123v-83zM225 560v29q0 47 -12 64.5t-36 17.5q-47 0 -47 -61v-4
q0 -50 52 -50q17 0 43 4z" />
    <glyph glyph-name="commaaccent" unicode="&#xf6c3;" horiz-adv-x="443" 
d="M280 -38q22 0 13 -19l-69 -118q-12 -20 -25 -20h-75q-16 0 -11 20l30 118q5 19 20 19h117z" />
    <glyph glyph-name="one.fitted" unicode="&#xf6dc;" horiz-adv-x="439" 
d="M342 20q0 -8 -5.5 -14t-13.5 -6h-131q-8 0 -14 6t-6 14v552l-112 -46q-8 -3 -12 -3q-11 0 -11 13v114q0 10 10 14l163 75q9 4 23 4h90q19 0 19 -19v-704z" />
    <glyph glyph-name="a.superior" unicode="&#xf6e9;" horiz-adv-x="318" 
d="M282 355q0 -6 -4.5 -10.5t-10.5 -4.5h-61q-14 0 -14 15v1q-32 -21 -73 -21q-42 0 -69.5 23.5t-27.5 74.5v5q0 50 33 73t105 23h26v15q0 20 -9 26.5t-28 6.5q-53 0 -93 -4q-14 0 -14 14v45q0 12 13 15q50 12 95 12q132 0 132 -115v-194zM188 420v53h-28q-25 0 -34.5 -8
t-9.5 -27v-5q0 -24 28 -24q20 0 44 11z" />
    <glyph glyph-name="b.superior" unicode="&#xf6ea;" horiz-adv-x="338" 
d="M313 478q0 -69 -36 -106t-104 -37q-55 0 -117 14q-19 4 -19 20v381q0 6 4.5 10.5t10.5 4.5h66q14 0 14 -15v-89q23 3 41 3q69 0 104.5 -38t35.5 -105v-43zM218 478v43q0 62 -45 62q-28 0 -41 -2v-163q16 -3 41 -3q45 0 45 63z" />
    <glyph glyph-name="d.superior" unicode="&#xf6eb;" horiz-adv-x="338" 
d="M301 369q0 -16 -19 -20q-62 -14 -117 -14q-68 0 -104 37t-36 106v43q0 67 35.5 105t104.5 38q19 0 41 -3v89q0 15 14 15h67q5 0 9.5 -4.5t4.5 -10.5v-381zM206 418v163q-13 2 -41 2q-45 0 -45 -62v-43q0 -63 45 -63q26 0 41 3z" />
    <glyph glyph-name="e.superior" unicode="&#xf6ec;" horiz-adv-x="333" 
d="M306 485q0 -16 -15 -16h-169q0 -53 51 -53q47 0 107 5q14 0 14 -13v-41q0 -16 -14 -19q-51 -13 -113 -13q-58 0 -99 34.5t-41 108.5v39q0 68 37 107.5t104 39.5t102.5 -40.5t35.5 -106.5v-32zM122 531h90q-2 54 -45 54t-45 -54z" />
    <glyph glyph-name="i.superior" unicode="&#xf6ed;" horiz-adv-x="172" 
d="M133 355q0 -15 -14 -15h-67q-14 0 -14 15v290q0 5 4 9.5t10 4.5h67q6 0 10 -4.5t4 -9.5v-290zM136 702q0 -15 -14 -15h-72q-14 0 -14 15v50q0 15 14 15h72q14 0 14 -15v-50z" />
    <glyph glyph-name="l.superior" unicode="&#xf6ee;" horiz-adv-x="167" 
d="M131 356q0 -16 -13 -16h-67q-6 0 -10.5 5t-4.5 11v394q0 6 4.5 10.5t10.5 4.5h67q13 0 13 -15v-394z" />
    <glyph glyph-name="m.superior" unicode="&#xf6ef;" horiz-adv-x="493" 
d="M456 356q0 -6 -4.5 -11t-10.5 -5h-66q-6 0 -10.5 5t-4.5 11v185q0 23 -6.5 32t-22.5 9q-17 0 -38 -9q1 -10 1 -32v-185q0 -6 -4 -11t-10 -5h-67q-6 0 -10 5t-4 11v185q0 23 -6 32t-22 9q-13 0 -38 -14v-212q0 -6 -4.5 -11t-10.5 -5h-65q-6 0 -11 5t-5 11v289q0 5 4.5 9.5
t10.5 4.5h63q5 0 9.5 -4.5t4.5 -9.5v-5q39 24 76 24q42 0 67 -25q46 25 87 25q97 0 97 -123v-185z" />
    <glyph glyph-name="o.superior" unicode="&#xf6f0;" horiz-adv-x="332" 
d="M306 480q0 -67 -36.5 -106t-103.5 -39t-103.5 39t-36.5 106v39q0 67 36.5 106t103.5 39t103.5 -39t36.5 -106v-39zM210 480v39q0 62 -44 62t-44 -62v-39q0 -63 44 -63t44 63z" />
    <glyph glyph-name="r.superior" unicode="&#xf6f1;" horiz-adv-x="225" 
d="M215 597q0 -14 -13 -14h-4q-32 0 -66 -18v-209q0 -6 -4.5 -11t-10.5 -5h-65q-6 0 -11 5t-5 11v289q0 5 4.5 9.5t10.5 4.5h64q15 0 15 -14v-8q32 27 70 27q15 0 15 -15v-52z" />
    <glyph glyph-name="s.superior" unicode="&#xf6f2;" horiz-adv-x="285" 
d="M146 451l-71 41q-51 30 -51 83q0 89 116 89q46 0 98 -13q13 -3 13 -16v-44q0 -10 -3 -13t-12 -2q-56 7 -90 7q-25 0 -25 -12q0 -7 15 -15l67 -39q58 -34 58 -87q0 -41 -31 -68t-90 -27q-58 0 -100 12q-9 4 -11.5 7t-2.5 10v43q0 15 18 15q60 -8 91 -8q29 0 29 18
q0 8 -18 19z" />
    <glyph glyph-name="t.superior" unicode="&#xf6f3;" horiz-adv-x="236" 
d="M220 354q0 -12 -14 -15q-16 -4 -44 -4q-51 0 -73 20t-22 77v154q-8 1 -23 3.5t-18 3.5q-14 2 -14 15v37q0 5 4.5 9.5t10.5 4.5h40v41q0 13 13 15l69 12q14 0 14 -14v-54h41q6 0 10.5 -4.5t4.5 -9.5v-44q0 -6 -4.5 -10.5t-10.5 -4.5h-41v-154q0 -14 2.5 -18t11.5 -4h27
q16 0 16 -14v-42z" />
    <glyph glyph-name="zero.oldstyle" unicode="&#xf730;" 
d="M592 298q0 -154 -70 -230.5t-200 -76.5t-199.5 76t-69.5 231v6q0 155 69.5 231.5t199.5 76.5t200 -76.5t70 -231.5v-6zM421 298v6q0 96 -25.5 131t-73.5 35q-47 0 -72.5 -35t-25.5 -131v-6q0 -96 25 -130.5t73 -34.5t73.5 34.5t25.5 130.5z" />
    <glyph glyph-name="one.oldstyle" unicode="&#xf731;" horiz-adv-x="439" 
d="M342 20q0 -8 -5.5 -14t-13.5 -6h-131q-8 0 -14 6t-6 14v405l-112 -46q-8 -3 -12 -3q-11 0 -11 13v114q0 10 10 14l163 75q9 4 23 4h90q19 0 19 -19v-557z" />
    <glyph glyph-name="two.oldstyle" unicode="&#xf732;" 
d="M570 434q0 -63 -37 -109t-123 -81q-88 -37 -121.5 -56.5t-33.5 -41.5v-4h286q8 0 14 -5.5t6 -13.5v-103q0 -8 -6 -14t-14 -6h-445q-8 0 -14 6t-6 14v70q0 56 13.5 97.5t41.5 70t58 46.5t76 38q107 47 122 57q19 14 19 35q0 25 -22.5 34t-83.5 9q-65 0 -197 -13h-2
q-18 0 -18 20v78q0 13 19 19q102 31 213 31q137 0 196 -42t59 -136z" />
    <glyph glyph-name="three.oldstyle" unicode="&#xf733;" 
d="M566 72q0 -111 -70 -166t-191 -55q-116 0 -207 28q-19 6 -19 19v80q0 20 20 18q105 -9 199 -9q99 0 99 85v18q0 86 -81 86h-176q-8 0 -13.5 6t-5.5 14v85q0 19 19 19h172q45 0 65 24.5t20 62.5v14q0 37 -22 56t-77 19q-31 0 -61 -1.5t-71 -5t-65 -5.5q-20 -1 -20 18v80
q0 13 20 19q101 31 204 31q128 0 194.5 -48t66.5 -157v-14q0 -44 -25 -87.5t-64 -65.5q41 -22 65 -61.5t24 -88.5v-18z" />
    <glyph glyph-name="four.oldstyle" unicode="&#xf734;" 
d="M606 40q0 -8 -6 -14t-14 -6h-66v-147q0 -8 -5.5 -14t-13.5 -6h-133q-8 0 -13.5 6t-5.5 14v147h-289q-8 0 -14 6t-6 14v97q0 15 11 31l316 414q11 14 26 14h107q20 0 20 -20v-424h66q8 0 14 -6t6 -14v-92zM354 152v220q0 6 -4 6q-1 0 -3 -2l-157 -214q-2 -2 -2 -6t6 -4
h160z" />
    <glyph glyph-name="five.oldstyle" unicode="&#xf735;" 
d="M566 89q0 -119 -69.5 -182t-200.5 -63q-104 0 -197 29q-20 6 -20 22v79q0 18 18 18h2q108 -12 180 -12q67 0 91 26.5t24 82.5v8q0 51 -30 71.5t-112 20.5h-155q-6 0 -10 4.5t-4 9.5v1l31 373q1 8 7 13.5t13 5.5h389q8 0 14 -5.5t6 -13.5v-100q0 -8 -6 -13.5t-14 -5.5
h-272l-12 -138h29q68 0 120 -10.5t93.5 -35.5t63 -69.5t21.5 -107.5v-8z" />
    <glyph glyph-name="six.oldstyle" unicode="&#xf736;" 
d="M589 245q0 -117 -68.5 -185.5t-195.5 -68.5q-125 0 -196.5 74.5t-71.5 219.5v153q0 314 278 314q115 0 197 -20q22 -6 22 -22v-87q0 -21 -18 -21h-5q-84 14 -182 14q-67 0 -96 -32t-29 -114v-7q62 12 118 12q111 0 179 -53t68 -170v-7zM422 245v7q0 104 -107 104
q-33 0 -91 -10v-61q0 -95 26 -129.5t75 -34.5q46 0 71.5 27.5t25.5 96.5z" />
    <glyph glyph-name="seven.oldstyle" unicode="&#xf737;" horiz-adv-x="588" 
d="M534 491q0 -12 -16 -46l-263 -572q-9 -19 -25 -19h-137q-18 0 -18 12q0 5 3 11l272 571q1 2 1 5q0 6 -7 6h-277q-8 0 -14.5 5.5t-6.5 13.5v100q0 8 6.5 13.5t14.5 5.5h433q14 0 24 -10t10 -23v-73z" />
    <glyph glyph-name="eight.oldstyle" unicode="&#xf738;" 
d="M593 213q0 -106 -72 -164t-193 -58h-11q-121 0 -193 58t-72 164v13q0 98 85 160q-81 56 -81 150v11q0 102 69.5 153.5t191.5 51.5h11q122 0 192 -51.5t70 -153.5v-11q0 -94 -82 -150q85 -62 85 -160v-13zM429 531v5q0 91 -101 91h-11q-101 0 -101 -91v-5q0 -40 23 -63.5
t68 -23.5h31q45 0 68 23.5t23 63.5zM428 218v10q0 39 -22 67.5t-68 28.5h-31q-46 0 -68 -28.5t-22 -67.5v-10q0 -45 26 -73t74 -28h11q48 0 74 28t26 73z" />
    <glyph glyph-name="nine.oldstyle" unicode="&#xf739;" 
d="M589 166q0 -314 -278 -314q-115 0 -197 20q-22 6 -22 22v87q0 14 5 18.5t18 2.5q134 -14 182 -14q67 0 96 32t29 114v7q-62 -12 -118 -12q-111 0 -179 53t-68 170v7q0 117 68.5 185.5t195.5 68.5q125 0 196.5 -74.5t71.5 -219.5v-153zM422 258v61q0 95 -26 129.5
t-75 34.5q-46 0 -71.5 -27.5t-25.5 -96.5v-7q0 -104 107 -104q33 0 91 10z" />
    </font>
</defs>
</svg>
