<?xml version="1.0" encoding="utf-8"?>
<!-- Generator: Adobe Illustrator 16.0.0, SVG Export Plug-In . SVG Version: 6.00 Build 0)  -->
<!DOCTYPE svg PUBLIC "-//W3C//DTD SVG 1.1//EN" "http://www.w3.org/Graphics/SVG/1.1/DTD/svg11.dtd">
<svg version="1.1" id="Layer_1" xmlns="http://www.w3.org/2000/svg" xmlns:xlink="http://www.w3.org/1999/xlink" x="0px" y="0px"
	 width="504.908px" height="85.333px" viewBox="0 0 504.908 85.333" enable-background="new 0 0 504.908 85.333"
	 xml:space="preserve">
<g>
	<defs>
		<rect id="SVGID_1_" x="-38.194" y="-366.557" width="595.276" height="841.89"/>
	</defs>
	<clipPath id="SVGID_2_">
		<use xlink:href="#SVGID_1_"  overflow="visible"/>
	</clipPath>
	<path clip-path="url(#SVGID_2_)" fill="#49267F" d="M358.827,56.131h-19.14l9.452-22.01L358.827,56.131z M370.668,84.962h20.936
		v-3.11L353.8,0.144h-9.207l-37.685,81.708v3.11h20.938l4.905-10.527h33.017L370.668,84.962z M36.724,44.289H21.411V20.358
		c4.904,0,10.29-0.113,15.313,0C49.168,20.485,48.452,44.289,36.724,44.289 M10.213,84.962l11.198-21.415h15.436
		c40.069,0,40.069-62.206,0-62.324H0v83.739H10.213z M140.16,56.131h-19.14l9.452-22.01L140.16,56.131z M152.005,84.962h20.931
		v-3.11L135.133,0.144h-9.208l-37.68,81.708v3.11h20.935l4.9-10.527h33.021L152.005,84.962z M241.257,41.297h-15.309V20.358
		c5.028,0,10.29-0.113,15.309,0C253.46,20.485,252.848,41.297,241.257,41.297 M258.964,55.296
		c21.171-14.357,15.191-53.955-17.707-54.073h-36.72v83.739h10.213l11.198-24.643h11.125l14.357,24.643h23.922v-3.11L258.964,55.296
		z M463.873,37.349L431.097,0.983H423.2v83.979h21.892V47.64l17.706,18.659h2.395l17.82-18.659v37.322h21.896V0.983h-7.657
		L463.873,37.349z"/>
</g>
</svg>
